<svg id="Layer_1" data-name="Layer 1" xmlns="http://www.w3.org/2000/svg" xmlns:xlink="http://www.w3.org/1999/xlink" viewBox="0 0 145.91 145.91"><defs><style>.cls-1{fill:none;}.cls-2{fill:#e6e6e6;}.cls-3{fill:#f3f3f2;}.cls-4{fill:#fff;}.cls-5{fill:#c75049;}.cls-6{fill:url(#New_Pattern_Swatch_2);}.cls-7{fill:#47433d;}</style><pattern id="New_Pattern_Swatch_2" data-name="New Pattern Swatch 2" width="325" height="20" patternTransform="matrix(-0.62, 0, 0, 0.62, 1470.33, -491.46)" patternUnits="userSpaceOnUse" viewBox="0 0 325 20"><rect class="cls-1" width="325" height="20"/><rect class="cls-2" y="10" width="88" height="10"/><rect class="cls-2" x="108" y="10" width="89" height="10"/><rect class="cls-2" x="217" y="10" width="88" height="10"/><rect class="cls-3" x="88" y="10" width="20" height="10"/><rect class="cls-3" x="197" y="10" width="20" height="10"/><rect class="cls-3" x="305" y="10" width="20" height="10"/><rect class="cls-3" width="88" height="10"/><rect class="cls-3" x="108" width="89" height="10"/><rect class="cls-3" x="217" width="88" height="10"/><rect class="cls-4" x="88" width="20" height="10"/><rect class="cls-4" x="197" width="20" height="10"/><rect class="cls-4" x="305" width="20" height="10"/></pattern></defs><title>3-2</title><path class="cls-5" d="M69.83,142.7a73,73,0,1,1,73-73A73,73,0,0,1,69.83,142.7Zm0-135.92a63,63,0,1,0,63,63A63,63,0,0,0,69.83,6.78Z" transform="translate(3.12 3.21)"/><path class="cls-5" d="M69.83,125.71a56,56,0,1,1,56-56A56,56,0,0,1,69.83,125.71Zm0-109.27a53.3,53.3,0,1,0,53.3,53.3A53.35,53.35,0,0,0,69.83,16.44Z" transform="translate(3.12 3.21)"/><polygon class="cls-4" points="110.88 46.63 110.88 92.69 93.1 110.47 57.82 110.47 57.82 46.63 110.88 46.63"/><path class="cls-5" d="M91,109.6H52.37V41.08H110.1V90.45ZM57,104.93H89l16.42-16.42V45.75H57Z" transform="translate(3.12 3.21)"/><polygon class="cls-6" points="93.1 92.69 110.88 92.69 93.1 110.47 93.1 92.69"/><path class="cls-5" d="M90,109.6a2.34,2.34,0,0,1-2.33-2.34V89.48A2.33,2.33,0,0,1,90,87.15h17.78a2.33,2.33,0,0,1,1.65,4L91.63,108.91A2.32,2.32,0,0,1,90,109.6Zm2.33-17.79v9.82l9.83-9.82Z" transform="translate(3.12 3.21)"/><path class="cls-7" d="M48.21,95.32H29.08V60.24l9.57-26.43,9.56,26.43ZM33.75,90.66h9.8V61.06l-4.9-13.54-4.9,13.54Z" transform="translate(3.12 3.21)"/><polygon class="cls-7" points="41.77 43.88 38.49 53.03 45.04 53.03 41.77 43.88"/><polygon class="cls-7" points="48.35 55.36 35.18 55.36 41.77 36.95 48.35 55.36"/><rect class="cls-7" x="34.53" y="61.53" width="14.46" height="4.66"/></svg>