<svg id="Layer_1" data-name="Layer 1" xmlns="http://www.w3.org/2000/svg" viewBox="0 0 88.83 88.32"><defs><style>.cls-1{fill:#47433d;}.cls-2{fill:#c75049;}.cls-3{fill:#fff;}</style></defs><title>3-6</title><path class="cls-1" d="M109.35,114.62h-80V44.53h80Zm-73.87-6.15H103.2V50.67H35.48Z" transform="translate(-25.17 -26.3)"/><polygon class="cls-2" points="38.2 67.15 41.81 52.01 50.77 52.01 38.2 67.15"/><polygon class="cls-2" points="49.13 38.52 45.53 53.66 36.56 53.66 49.13 38.52"/><path class="cls-2" d="M68.8,102A22.92,22.92,0,1,1,91.72,79.11,22.94,22.94,0,0,1,68.8,102Zm0-39.68A16.77,16.77,0,1,0,85.57,79.11,16.79,16.79,0,0,0,68.8,62.34Z" transform="translate(-25.17 -26.3)"/><path class="cls-3" d="M36.47,3.07h16A8.56,8.56,0,0,1,61,11.63V21.3a0,0,0,0,1,0,0H27.91a0,0,0,0,1,0,0V11.63A8.56,8.56,0,0,1,36.47,3.07Z"/><path class="cls-1" d="M89.27,50.67H50V37.93A11.65,11.65,0,0,1,61.63,26.3h16A11.65,11.65,0,0,1,89.27,37.93ZM56.15,44.53h27v-6.6a5.5,5.5,0,0,0-5.49-5.49h-16a5.5,5.5,0,0,0-5.48,5.49Z" transform="translate(-25.17 -26.3)"/><rect class="cls-1" y="82.17" width="88.83" height="6.15"/></svg>