<svg id="Layer_1" data-name="Layer 1" xmlns="http://www.w3.org/2000/svg" viewBox="0 0 92.62 93.58"><defs><style>.cls-1{fill:#c75049;}.cls-2{fill:#47433d;}</style></defs><title>3-7</title><path class="cls-1" d="M62,38H38.16V28.4A5.4,5.4,0,0,1,43.55,23H56.61A5.4,5.4,0,0,1,62,28.4ZM43.64,32.5H56.53v-4H43.64Z" transform="translate(-23.7 -23)"/><path class="cls-1" d="M94.41,90.6H73.29V85.12H94.41a3.39,3.39,0,0,0,3.38-3.38V75h5.47v6.75A8.87,8.87,0,0,1,94.41,90.6Z" transform="translate(-23.7 -23)"/><circle class="cls-1" cx="72.87" cy="38.93" r="2.47"/><circle class="cls-1" cx="81.08" cy="38.93" r="2.47"/><path class="cls-2" d="M66.7,116.58H33.47a9.78,9.78,0,0,1-9.77-9.76V42.27a9.78,9.78,0,0,1,9.77-9.77H66.7a9.78,9.78,0,0,1,9.77,9.77v64.55A9.78,9.78,0,0,1,66.7,116.58ZM33.47,38a4.29,4.29,0,0,0-4.29,4.29v64.55a4.3,4.3,0,0,0,4.29,4.29H66.7A4.3,4.3,0,0,0,71,106.82V42.27A4.3,4.3,0,0,0,66.7,38Z" transform="translate(-23.7 -23)"/><path class="cls-2" d="M110.67,77.73H90.38a5.67,5.67,0,0,1-5.65-5.66V51.79a5.66,5.66,0,0,1,5.65-5.65h20.29a5.65,5.65,0,0,1,5.65,5.65V72.07A5.66,5.66,0,0,1,110.67,77.73ZM90.38,51.61a.18.18,0,0,0-.17.18V72.07a.18.18,0,0,0,.17.18h20.29a.18.18,0,0,0,.17-.18V51.79a.18.18,0,0,0-.17-.18Z" transform="translate(-23.7 -23)"/><polygon class="cls-1" points="22.27 62.55 24.95 51.32 31.6 51.32 22.27 62.55"/><polygon class="cls-1" points="30.38 41.31 27.71 52.54 21.05 52.54 30.38 41.31"/><path class="cls-1" d="M50,91.91a17,17,0,1,1,17-17A17,17,0,0,1,50,91.91Zm0-29.44A12.44,12.44,0,1,0,62.44,74.91,12.45,12.45,0,0,0,50,62.47Z" transform="translate(-23.7 -23)"/></svg>