<svg id="Layer_1" data-name="Layer 1" xmlns="http://www.w3.org/2000/svg" viewBox="0 0 105.32 97.75"><defs><style>.cls-1{fill:#47433d;}.cls-2{fill:#c75049;}</style></defs><title>3-5</title><rect class="cls-1" x="52.66" y="59.4" width="13.59" height="5.79"/><path class="cls-1" d="M110.27,99.77H95.89a15.86,15.86,0,0,1,0-31.71h14.38ZM95.89,73.85a10.07,10.07,0,1,0,0,20.13h8.59V73.85Z" transform="translate(-16.68 -21.62)"/><path class="cls-1" d="M119.11,93.62H107.37a2.89,2.89,0,0,1,0-5.78h11.74a2.89,2.89,0,0,1,0,5.78Z" transform="translate(-16.68 -21.62)"/><path class="cls-1" d="M119.11,79.77H107.37a2.9,2.9,0,0,1,0-5.79h11.74a2.9,2.9,0,0,1,0,5.79Z" transform="translate(-16.68 -21.62)"/><path class="cls-2" d="M85.62,60H66.45V40.8A19.18,19.18,0,1,1,85.62,60ZM72.23,54.18H85.62A13.39,13.39,0,1,0,72.23,40.8Z" transform="translate(-16.68 -21.62)"/><path class="cls-2" d="M53.06,119.37a19.18,19.18,0,1,1,0-38.35H72.23V100.2A19.19,19.19,0,0,1,53.06,119.37Zm0-32.56A13.39,13.39,0,1,0,66.45,100.2V86.81Z" transform="translate(-16.68 -21.62)"/><rect class="cls-2" x="49.77" y="35.46" width="5.79" height="26.84"/><rect class="cls-2" x="39.07" y="32.56" width="13.59" height="5.79"/><path class="cls-2" d="M42.79,72.93H28.41V41.22H42.79a15.86,15.86,0,0,1,0,31.71ZM34.2,67.15h8.59a10.07,10.07,0,0,0,0-20.14H34.2Z" transform="translate(-16.68 -21.62)"/><path class="cls-2" d="M31.31,53.16H19.58a2.9,2.9,0,1,1,0-5.79H31.31a2.9,2.9,0,0,1,0,5.79Z" transform="translate(-16.68 -21.62)"/><path class="cls-2" d="M31.31,67H19.58a2.9,2.9,0,1,1,0-5.79H31.31a2.9,2.9,0,0,1,0,5.79Z" transform="translate(-16.68 -21.62)"/><circle class="cls-2" cx="26.25" cy="35.46" r="2.61"/><circle class="cls-1" cx="79.06" cy="62.3" r="2.61"/></svg>