<svg id="Layer_1" data-name="Layer 1" xmlns="http://www.w3.org/2000/svg" viewBox="0 0 89.5 89.96"><defs><style>.cls-1{fill:#c75049;}.cls-2{fill:#47433d;}</style></defs><title>3-4</title><polygon class="cls-1" points="40.67 55.44 43.35 44.16 50.04 44.16 40.67 55.44"/><polygon class="cls-1" points="48.82 34.1 46.13 45.39 39.44 45.39 48.82 34.1"/><path class="cls-1" d="M70.1,87.37a17.2,17.2,0,1,1,17.2-17.2A17.22,17.22,0,0,1,70.1,87.37Zm0-29.58A12.38,12.38,0,1,0,82.49,70.17,12.4,12.4,0,0,0,70.1,57.79Z" transform="translate(-25.39 -25.42)"/><path class="cls-2" d="M114.88,115.37h-42V91.76l1.9-.42A21.72,21.72,0,0,0,91.23,75l.43-1.88h23.22Zm-37.23-4.81h32.42V78H95.42A26.57,26.57,0,0,1,77.65,95.56Zm-10.27,4.81h-42V72.9H48.52l.41,1.89A21.67,21.67,0,0,0,65.48,91.34l1.9.42ZM30.2,110.56H62.56v-15A26.53,26.53,0,0,1,44.71,77.71H30.2Zm84.68-43.12H91.69l-.41-1.89A21.71,21.71,0,0,0,74.73,49l-1.9-.41V25.42h42.05ZM95.5,62.63h14.57V30.23H77.65V44.77A26.54,26.54,0,0,1,95.5,62.63ZM48.55,67.2H25.39V25.42h42V48.58l-1.9.41A21.74,21.74,0,0,0,49,65.33ZM30.2,62.39H44.78A26.58,26.58,0,0,1,62.56,44.78V30.23H30.2Z" transform="translate(-25.39 -25.42)"/></svg>