<svg id="Layer_1" data-name="Layer 1" xmlns="http://www.w3.org/2000/svg" viewBox="0 0 146 146"><defs><style>.cls-1{fill:#d14a43;}.cls-2{fill:#fff;}.cls-3{fill:#48443e;}</style></defs><title>2-2</title><path class="cls-1" d="M126.45,161.22a73,73,0,1,1,73-73A73.09,73.09,0,0,1,126.45,161.22Zm0-136a63,63,0,1,0,63,63A63.07,63.07,0,0,0,126.45,25.22Z" transform="translate(-53.45 -15.22)"/><path class="cls-1" d="M126.45,144.22a56,56,0,1,1,56-56A56.06,56.06,0,0,1,126.45,144.22Zm0-109.33a53.33,53.33,0,1,0,53.33,53.33A53.39,53.39,0,0,0,126.45,34.89Z" transform="translate(-53.45 -15.22)"/><circle class="cls-2" cx="73" cy="86.44" r="26.69"/><path class="cls-3" d="M126.45,130.68a29,29,0,1,1,29-29A29.06,29.06,0,0,1,126.45,130.68Zm0-53.38a24.36,24.36,0,1,0,24.35,24.36A24.39,24.39,0,0,0,126.45,77.3Z" transform="translate(-53.45 -15.22)"/><circle class="cls-2" cx="73" cy="72.88" r="26.69"/><path class="cls-3" d="M126.45,117.12a29,29,0,1,1,29-29A29.06,29.06,0,0,1,126.45,117.12Zm0-53.38A24.36,24.36,0,1,0,150.8,88.1,24.39,24.39,0,0,0,126.45,63.74Z" transform="translate(-53.45 -15.22)"/><circle class="cls-2" cx="73" cy="60.01" r="26.69"/><path class="cls-3" d="M126.45,104.25a29,29,0,1,1,29-29A29.06,29.06,0,0,1,126.45,104.25Zm0-53.38A24.36,24.36,0,1,0,150.8,75.23,24.39,24.39,0,0,0,126.45,50.87Z" transform="translate(-53.45 -15.22)"/><path class="cls-2" d="M117,86.09h13.42a5.44,5.44,0,0,0,5.44-5.43h0a5.44,5.44,0,0,0-5.44-5.43h-8A5.43,5.43,0,0,1,117,69.8h0a5.44,5.44,0,0,1,5.43-5.44h13.43" transform="translate(-53.45 -15.22)"/><path class="cls-1" d="M130.44,88.43H117V83.76h13.42a3.1,3.1,0,1,0,0-6.2h-8a7.77,7.77,0,0,1,0-15.53h13.43V66.7H122.45a3.1,3.1,0,1,0,0,6.19h8a7.77,7.77,0,1,1,0,15.54Z" transform="translate(-53.45 -15.22)"/><line class="cls-2" x1="73" y1="49.15" x2="73" y2="40.44"/><rect class="cls-1" x="70.67" y="40.44" width="4.67" height="8.71"/><line class="cls-2" x1="73" y1="79.58" x2="73" y2="70.87"/><rect class="cls-1" x="70.67" y="70.87" width="4.67" height="8.71"/></svg>