<svg id="Layer_1" data-name="Layer 1" xmlns="http://www.w3.org/2000/svg" viewBox="0 0 146 146"><defs><style>.cls-1{fill:#d14a43;}.cls-2{fill:#48443e;}.cls-3{fill:#fff;}</style></defs><title>2-3</title><path class="cls-1" d="M126.63,161.22a73,73,0,1,1,73-73A73.09,73.09,0,0,1,126.63,161.22Zm0-136a63,63,0,1,0,63,63A63.07,63.07,0,0,0,126.63,25.22Z" transform="translate(-53.63 -15.22)"/><path class="cls-1" d="M126.63,144.22a56,56,0,1,1,56-56A56.06,56.06,0,0,1,126.63,144.22Zm0-109.33A53.33,53.33,0,1,0,180,88.22,53.39,53.39,0,0,0,126.63,34.89Z" transform="translate(-53.63 -15.22)"/><path class="cls-1" d="M143.4,62.74h-4.67V56.52a8.3,8.3,0,0,0-8.29-8.29h-7.62a8.3,8.3,0,0,0-8.29,8.29v6.22h-4.67V56.52a13,13,0,0,1,13-13h7.62a13,13,0,0,1,13,13Z" transform="translate(-53.63 -15.22)"/><path class="cls-2" d="M130.44,83.52h-7.62a13,13,0,0,1-13-13V62.74h4.67v7.82a8.3,8.3,0,0,0,8.29,8.29h7.62a8.3,8.3,0,0,0,8.29-8.29V62.74h4.67v7.82A13,13,0,0,1,130.44,83.52Z" transform="translate(-53.63 -15.22)"/><rect class="cls-1" x="52.95" y="45.18" width="40.1" height="4.67"/><path class="cls-2" d="M158.23,118.9h-4.66V95.41a7.57,7.57,0,0,0-4.28-6.79l-12.84-6.14,2-4.2,12.84,6.14a12.24,12.24,0,0,1,6.93,11Z" transform="translate(-53.63 -15.22)"/><path class="cls-2" d="M100.5,111.49H95.83V95.81a12.24,12.24,0,0,1,6.93-11l12.84-6.14,2,4.21L104.77,89a7.56,7.56,0,0,0-4.27,6.78Z" transform="translate(-53.63 -15.22)"/><path class="cls-3" d="M98.16,111.49a11,11,0,0,0,11,11" transform="translate(-53.63 -15.22)"/><path class="cls-2" d="M109.13,124.79a13.32,13.32,0,0,1-13.3-13.3h4.67a8.64,8.64,0,0,0,8.63,8.63Z" transform="translate(-53.63 -15.22)"/><path class="cls-1" d="M131.5,124.79H109.13V104.37h2.33A5.36,5.36,0,0,0,116.81,99v-1a4.56,4.56,0,0,1,4.56-4.55h2.08a6.75,6.75,0,0,1,6.75,6.74v2.13h1.3a6.66,6.66,0,0,1,6.65,6.66v9.1A6.66,6.66,0,0,1,131.5,124.79Zm-17.71-4.67H131.5a2,2,0,0,0,2-2V109a2,2,0,0,0-2-2h-6v-6.8a2.08,2.08,0,0,0-2.08-2.08h-2V99a10,10,0,0,1-7.69,9.74Z" transform="translate(-53.63 -15.22)"/></svg>