<svg id="Layer_1" data-name="Layer 1" xmlns="http://www.w3.org/2000/svg" viewBox="0 0 146 146"><defs><style>.cls-1{fill:#d14a43;}.cls-2{fill:#fff;}.cls-3{fill:#48443e;}</style></defs><title>2-1</title><path class="cls-1" d="M145.75,174.22a73,73,0,1,1,73-73A73.08,73.08,0,0,1,145.75,174.22Zm0-136a63,63,0,1,0,63,63A63.07,63.07,0,0,0,145.75,38.22Z" transform="translate(-72.75 -28.22)"/><path class="cls-1" d="M145.75,157.22a56,56,0,1,1,56-56A56.06,56.06,0,0,1,145.75,157.22Zm0-109.33a53.33,53.33,0,1,0,53.33,53.33A53.39,53.39,0,0,0,145.75,47.89Z" transform="translate(-72.75 -28.22)"/><circle class="cls-2" cx="73" cy="60.01" r="26.69"/><path class="cls-3" d="M145.75,117.25a29,29,0,1,1,29-29A29.06,29.06,0,0,1,145.75,117.25Zm0-53.38A24.36,24.36,0,1,0,170.1,88.23,24.39,24.39,0,0,0,145.75,63.87Z" transform="translate(-72.75 -28.22)"/><circle class="cls-2" cx="73" cy="73.57" r="26.69"/><path class="cls-3" d="M145.75,130.81a29,29,0,1,1,29-29A29.06,29.06,0,0,1,145.75,130.81Zm0-53.38a24.36,24.36,0,1,0,24.35,24.36A24.39,24.39,0,0,0,145.75,77.43Z" transform="translate(-72.75 -28.22)"/><circle class="cls-2" cx="73" cy="86.44" r="26.69"/><path class="cls-3" d="M145.75,143.68a29,29,0,1,1,29-29A29.06,29.06,0,0,1,145.75,143.68Zm0-53.38a24.36,24.36,0,1,0,24.35,24.36A24.39,24.39,0,0,0,145.75,90.3Z" transform="translate(-72.75 -28.22)"/><path class="cls-2" d="M155.17,103.79H141.75a5.44,5.44,0,0,0-5.43,5.44h0a5.43,5.43,0,0,0,5.43,5.43h8a5.43,5.43,0,0,1,5.43,5.43h0a5.43,5.43,0,0,1-5.43,5.43H136.32" transform="translate(-72.75 -28.22)"/><path class="cls-1" d="M149.74,127.86H136.32v-4.67h13.42a3.1,3.1,0,0,0,0-6.2h-8a7.77,7.77,0,0,1,0-15.53h13.42v4.67H141.75a3.1,3.1,0,1,0,0,6.19h8a7.77,7.77,0,0,1,0,15.54Z" transform="translate(-72.75 -28.22)"/><line class="cls-2" x1="73" y1="97.3" x2="73" y2="106.01"/><rect class="cls-1" x="70.67" y="97.3" width="4.67" height="8.71"/><line class="cls-2" x1="73" y1="66.87" x2="73" y2="75.57"/><rect class="cls-1" x="70.67" y="66.87" width="4.67" height="8.71"/></svg>