<svg id="Layer_1" data-name="Layer 1" xmlns="http://www.w3.org/2000/svg" viewBox="0 0 62.31 58.81"><defs><style>.cls-1{fill:#48443e;}.cls-2{fill:#d14a43;}</style></defs><title>2-4</title><path class="cls-1" d="M58.87,78H42.46V74.77l7.75-8.26a19.05,19.05,0,0,0,2.36-3A4.86,4.86,0,0,0,53.33,61a3.69,3.69,0,0,0-.8-2.51,2.92,2.92,0,0,0-2.31-.91,3.14,3.14,0,0,0-2.54,1.11,4.38,4.38,0,0,0-.93,2.91H42a7.82,7.82,0,0,1,1-4A7.4,7.4,0,0,1,46,54.78a9,9,0,0,1,4.33-1,8.5,8.5,0,0,1,5.74,1.77,6.29,6.29,0,0,1,2.05,5,8.06,8.06,0,0,1-.92,3.61A20.23,20.23,0,0,1,54,68.45l-5.44,5.74H58.87Z" transform="translate(-28.16 -35.71)"/><path class="cls-1" d="M76.21,68.12q0,5-2,7.6a7.2,7.2,0,0,1-6,2.63,7.23,7.23,0,0,1-6-2.58c-1.38-1.72-2.08-4.19-2.12-7.4V64c0-3.35.7-5.88,2.08-7.62a7.24,7.24,0,0,1,6-2.59,7.23,7.23,0,0,1,6,2.57c1.38,1.71,2.09,4.18,2.12,7.39Zm-4.75-4.84a8.72,8.72,0,0,0-.82-4.34,2.74,2.74,0,0,0-2.54-1.35,2.7,2.7,0,0,0-2.47,1.29,8.3,8.3,0,0,0-.85,4v5.82a9.23,9.23,0,0,0,.8,4.36,2.71,2.71,0,0,0,2.56,1.42,2.64,2.64,0,0,0,2.51-1.37A8.88,8.88,0,0,0,71.46,69Z" transform="translate(-28.16 -35.71)"/><path class="cls-1" d="M51.11,90.9H50.05v3.63H48.23V85.65h1.82v3.56h.84l2.17-3.56h2.23l-2.74,4.2,3,4.68H53.39Z" transform="translate(-28.16 -35.71)"/><path class="cls-1" d="M56.28,94.53V85.65h3.1a4.08,4.08,0,0,1,2.45.62,2.11,2.11,0,0,1,.84,1.81,2,2,0,0,1-.34,1.15,1.89,1.89,0,0,1-.93.73,1.85,1.85,0,0,1,1.08.69,2,2,0,0,1,.39,1.27,2.3,2.3,0,0,1-.82,1.93,3.67,3.67,0,0,1-2.33.68Zm1.82-5.16h1.36c.92,0,1.38-.38,1.38-1.1a1,1,0,0,0-.35-.87,1.81,1.81,0,0,0-1.11-.27H58.1Zm0,1.29v2.4h1.57a1.54,1.54,0,0,0,1-.31A1.07,1.07,0,0,0,61,91.9a1.12,1.12,0,0,0-1.26-1.24Z" transform="translate(-28.16 -35.71)"/><path class="cls-1" d="M70.76,87.13H68v7.4H66.21v-7.4H63.53V85.65h7.23Z" transform="translate(-28.16 -35.71)"/><path class="cls-2" d="M81.34,88.88l-2.69-2.69a27.35,27.35,0,1,0-38.68,0l-2.69,2.69a31.16,31.16,0,1,1,44.06,0Z" transform="translate(-28.16 -35.71)"/></svg>