<svg id="Layer_1" data-name="Layer 1" xmlns="http://www.w3.org/2000/svg" viewBox="0 0 62.17 58.82"><defs><style>.cls-1{fill:#48443e;}.cls-2{fill:#d14a43;}</style></defs><title>service_2</title><path class="cls-1" d="M77.09,84.83H60.72V81.58l7.73-8.23a18.91,18.91,0,0,0,2.35-3,4.85,4.85,0,0,0,.77-2.46,3.63,3.63,0,0,0-.81-2.5,2.88,2.88,0,0,0-2.3-.91,3.12,3.12,0,0,0-2.53,1.11A4.36,4.36,0,0,0,65,68.46H60.25a7.79,7.79,0,0,1,1-4,7.36,7.36,0,0,1,2.94-2.83,9,9,0,0,1,4.32-1,8.47,8.47,0,0,1,5.73,1.77,6.27,6.27,0,0,1,2,5A7.93,7.93,0,0,1,75.4,71a19.77,19.77,0,0,1-3.15,4.28L66.82,81H77.09Z" transform="translate(-38.51 -42.61)"/><path class="cls-1" d="M60.08,98.18v3.12H58.26V92.44h3.45a4.07,4.07,0,0,1,1.76.37,2.67,2.67,0,0,1,1.16,1A2.87,2.87,0,0,1,65,95.38a2.56,2.56,0,0,1-.89,2.05,3.74,3.74,0,0,1-2.47.75Zm0-1.48h1.63a1.62,1.62,0,0,0,1.11-.34,1.25,1.25,0,0,0,.38-1,1.39,1.39,0,0,0-1.45-1.47H60.08Z" transform="translate(-38.51 -42.61)"/><path class="cls-1" d="M69.61,96.63l1.61-4.19h2L70.1,99.75l-.25.48a2.27,2.27,0,0,1-2.11,1.2l-.63,0,0-1.46.47,0a1.24,1.24,0,0,0,.62-.13,1,1,0,0,0,.39-.5l.23-.57-3.11-6.32h2Z" transform="translate(-38.51 -42.61)"/><path class="cls-1" d="M79.93,93.92H76v1.72H77.4a3.8,3.8,0,0,1,2.48.75,2.52,2.52,0,0,1,.91,2,2.6,2.6,0,0,1-.9,2.07,3.62,3.62,0,0,1-2.42.8H74.14V92.44h5.79Zm-4,3.19v2.72h1.45a1.57,1.57,0,0,0,1.12-.38,1.33,1.33,0,0,0,.41-1,1.21,1.21,0,0,0-.39-1,1.69,1.69,0,0,0-1.1-.36Z" transform="translate(-38.51 -42.61)"/><path class="cls-2" d="M91.58,95.66,88.9,93a27.29,27.29,0,1,0-38.6,0l-2.68,2.68a31.08,31.08,0,1,1,44,0Z" transform="translate(-38.51 -42.61)"/></svg>