<svg id="Layer_1" data-name="Layer 1" xmlns="http://www.w3.org/2000/svg" viewBox="0 0 62.29 61"><defs><style>.cls-1{fill:#48443e;}.cls-2{fill:#d14a43;}</style></defs><title>2-8</title><path class="cls-1" d="M55.12,63h2.53a3.59,3.59,0,0,0,2.68-.9,3.34,3.34,0,0,0,.87-2.4,3,3,0,0,0-.86-2.26,3.39,3.39,0,0,0-2.38-.8,3.48,3.48,0,0,0-2.28.75,2.36,2.36,0,0,0-.93,1.94H50A5.86,5.86,0,0,1,51,56a6.72,6.72,0,0,1,2.83-2.32,9.44,9.44,0,0,1,4-.84,9,9,0,0,1,5.95,1.81,6.23,6.23,0,0,1,2.15,5,5.05,5.05,0,0,1-1,3,6.62,6.62,0,0,1-2.63,2.12,5.6,5.6,0,0,1,4,5.59A6.31,6.31,0,0,1,64,75.48a9.35,9.35,0,0,1-6.15,1.92A8.9,8.9,0,0,1,52,75.51a6.18,6.18,0,0,1-2.27-5h4.75a2.78,2.78,0,0,0,1,2.21,3.71,3.71,0,0,0,2.49.85,3.78,3.78,0,0,0,2.66-.89,3.1,3.1,0,0,0,1-2.38q0-3.58-3.95-3.58H55.12Z" transform="translate(-27.16 -34.76)"/><path class="cls-1" d="M48.25,86.18h-4v7.4H42.44V84.7h5.81Z" transform="translate(-27.16 -34.76)"/><path class="cls-1" d="M56.27,89.34a5.33,5.33,0,0,1-.47,2.3,3.51,3.51,0,0,1-1.32,1.52,3.68,3.68,0,0,1-2,.54,3.72,3.72,0,0,1-2-.53,3.55,3.55,0,0,1-1.34-1.52,5.08,5.08,0,0,1-.48-2.26V89a5.44,5.44,0,0,1,.47-2.31,3.58,3.58,0,0,1,1.34-1.53,3.93,3.93,0,0,1,3.94,0,3.56,3.56,0,0,1,1.33,1.53A5.3,5.3,0,0,1,56.27,89Zm-1.86-.4a3.67,3.67,0,0,0-.5-2.12,1.75,1.75,0,0,0-2.84,0,3.69,3.69,0,0,0-.51,2.1v.43a3.8,3.8,0,0,0,.5,2.11,1.75,1.75,0,0,0,2.85,0,3.74,3.74,0,0,0,.5-2.11Z" transform="translate(-27.16 -34.76)"/><path class="cls-1" d="M65.62,95.76H63.93V93.58H58.58v2.17H56.85l-.1-3.64h.67a2.88,2.88,0,0,0,.84-1.33,9,9,0,0,0,.4-2.16l.26-3.92h5.81v7.41h1Zm-6.1-3.65H62.9V86.18H60.65l-.15,2.34A7.85,7.85,0,0,1,59.52,92.11Z" transform="translate(-27.16 -34.76)"/><path class="cls-1" d="M71.83,91.75H68.62L68,93.58h-2l3.3-8.88h1.7l3.32,8.88H72.45Zm-2.71-1.48h2.22L70.22,87Z" transform="translate(-27.16 -34.76)"/><path class="cls-2" d="M36.29,87.93a31.15,31.15,0,1,1,44.05,0l-2.69-2.69a27.36,27.36,0,1,0-38.67,0Z" transform="translate(-27.16 -34.76)"/></svg>