<svg id="Layer_1" data-name="Layer 1" xmlns="http://www.w3.org/2000/svg" viewBox="0 0 62.17 58.69"><defs><style>.cls-1{fill:#48443e;}.cls-2{fill:#d14a43;}</style></defs><title>service_1</title><path class="cls-1" d="M73.05,84.83H68.31V66.53l-5.66,1.75V64.46l9.89-3.55h.51Z" transform="translate(-38.46 -42.61)"/><path class="cls-1" d="M59.43,92.44l2.27,6.43L64,92.44h2.4v8.86H64.53V98.88l.18-4.18-2.39,6.6H61.07l-2.39-6.59.19,4.17v2.42H57V92.44Z" transform="translate(-38.46 -42.61)"/><path class="cls-1" d="M68,101.3V92.44h3.1a4.1,4.1,0,0,1,2.45.62,2.13,2.13,0,0,1,.83,1.81A2,2,0,0,1,74,96a2,2,0,0,1-.93.72,1.93,1.93,0,0,1,1.07.69,2.06,2.06,0,0,1,.39,1.27,2.34,2.34,0,0,1-.81,1.93,3.69,3.69,0,0,1-2.33.67Zm1.83-5.15h1.35c.92,0,1.38-.38,1.38-1.1a1,1,0,0,0-.35-.86,1.83,1.83,0,0,0-1.11-.27H69.78Zm0,1.29v2.39h1.56a1.56,1.56,0,0,0,1-.3,1.07,1.07,0,0,0,.36-.85,1.12,1.12,0,0,0-1.26-1.24Z" transform="translate(-38.46 -42.61)"/><path class="cls-1" d="M82.4,93.92H79.69v7.38H77.86V93.92H75.19V92.44H82.4Z" transform="translate(-38.46 -42.61)"/><path class="cls-2" d="M91.53,95.66,88.85,93a27.29,27.29,0,1,0-38.6,0l-2.68,2.68a31.09,31.09,0,1,1,44,0Z" transform="translate(-38.46 -42.61)"/></svg>