<svg id="Layer_1" data-name="Layer 1" xmlns="http://www.w3.org/2000/svg" viewBox="0 0 62.29 58.81"><defs><style>.cls-1{fill:#48443e;}.cls-2{fill:#d14a43;}</style></defs><title>2-7</title><path class="cls-1" d="M57.41,77.64H41V74.39l7.74-8.26a18.48,18.48,0,0,0,2.36-3,4.91,4.91,0,0,0,.77-2.47,3.63,3.63,0,0,0-.81-2.5,2.89,2.89,0,0,0-2.3-.92,3.14,3.14,0,0,0-2.54,1.11,4.41,4.41,0,0,0-.93,2.92H40.52a7.8,7.8,0,0,1,1-4,7.34,7.34,0,0,1,3-2.84,9,9,0,0,1,4.32-1,8.53,8.53,0,0,1,5.75,1.78,6.28,6.28,0,0,1,2,5,8.1,8.1,0,0,1-.92,3.62,20.23,20.23,0,0,1-3.16,4.29l-5.44,5.74H57.41Z" transform="translate(-26.7 -35.33)"/><path class="cls-1" d="M74.75,67.74c0,3.31-.69,5.85-2.06,7.6a7.18,7.18,0,0,1-6,2.63,7.23,7.23,0,0,1-6-2.58q-2.07-2.58-2.12-7.4V63.58q0-5,2.08-7.61a7.23,7.23,0,0,1,6-2.6,7.23,7.23,0,0,1,6,2.58c1.38,1.71,2.08,4.18,2.12,7.39ZM70,62.9a8.8,8.8,0,0,0-.82-4.34,2.76,2.76,0,0,0-2.54-1.36,2.7,2.7,0,0,0-2.47,1.3,8.16,8.16,0,0,0-.85,4v5.82a9.23,9.23,0,0,0,.8,4.36,2.72,2.72,0,0,0,2.55,1.42,2.68,2.68,0,0,0,2.52-1.37A9,9,0,0,0,70,68.59Z" transform="translate(-26.7 -35.33)"/><path class="cls-1" d="M53.92,85.27v8.87H52.09V86.75H49.72l-.15,3.13a9.64,9.64,0,0,1-.4,2.5,2.52,2.52,0,0,1-.91,1.33,2.7,2.7,0,0,1-1.63.43h-.47V92.67l.3,0a1.17,1.17,0,0,0,1-.79,8,8,0,0,0,.38-2.51L48,85.27Z" transform="translate(-26.7 -35.33)"/><path class="cls-1" d="M60.86,90.29H57.34v2.38h4.12v1.47H55.52V85.27h5.93v1.48H57.34v2.12h3.52Z" transform="translate(-26.7 -35.33)"/><path class="cls-1" d="M69.34,86.75H66.62v7.39H64.79V86.75H62.11V85.27h7.23Z" transform="translate(-26.7 -35.33)"/><path class="cls-2" d="M35.82,88.5a31.16,31.16,0,1,1,44.06,0l-2.69-2.69a27.35,27.35,0,1,0-38.68,0Z" transform="translate(-26.7 -35.33)"/></svg>