<svg id="Layer_1" data-name="Layer 1" xmlns="http://www.w3.org/2000/svg" viewBox="0 0 146 146"><defs><style>.cls-1{fill:#d14a43;}.cls-2{fill:#48443e;}</style></defs><title>5-2</title><path class="cls-1" d="M70.11,142.81a73,73,0,1,1,73-73A73.08,73.08,0,0,1,70.11,142.81Zm0-136a63,63,0,1,0,63,63A63.07,63.07,0,0,0,70.11,6.81Z" transform="translate(2.89 3.19)"/><path class="cls-1" d="M70.11,125.81a56,56,0,1,1,56-56A56.06,56.06,0,0,1,70.11,125.81Zm0-109.33a53.34,53.34,0,1,0,53.33,53.33A53.39,53.39,0,0,0,70.11,16.48Z" transform="translate(2.89 3.19)"/><path class="cls-2" d="M78.59,81.41H61.07V58.21H78.59ZM64.4,78.08H75.26V61.54H64.4Z" transform="translate(2.89 3.19)"/><path class="cls-2" d="M68.57,72.51a5,5,0,0,1,.25-1.77,2.75,2.75,0,0,1,.82-1.13,5.32,5.32,0,0,0,.86-.87,1.39,1.39,0,0,0,.3-.87c0-.77-.33-1.16-1-1.16a.9.9,0,0,0-.74.34,1.42,1.42,0,0,0-.3.91h-2.6a3.11,3.11,0,0,1,1-2.39,3.84,3.84,0,0,1,2.67-.86,4,4,0,0,1,2.65.8,2.74,2.74,0,0,1,.94,2.24,2.57,2.57,0,0,1-.25,1.16A3.92,3.92,0,0,1,72.33,70l-.89.82a2.14,2.14,0,0,0-.52.74,2.93,2.93,0,0,0-.16,1Zm-.32,2.33a1.19,1.19,0,0,1,.41-.93,1.48,1.48,0,0,1,1-.37,1.44,1.44,0,0,1,1,.37,1.26,1.26,0,0,1,0,1.86,1.44,1.44,0,0,1-1,.37,1.48,1.48,0,0,1-1-.37A1.19,1.19,0,0,1,68.25,74.84Z" transform="translate(2.89 3.19)"/><path class="cls-2" d="M58.42,81.41H40.9V58.21H58.42ZM44.23,78.08H55.09V61.54H44.23Z" transform="translate(2.89 3.19)"/><path class="cls-2" d="M48.4,72.51a5,5,0,0,1,.25-1.77,2.75,2.75,0,0,1,.82-1.13,5.9,5.9,0,0,0,.87-.87,1.44,1.44,0,0,0,.29-.87c0-.77-.33-1.16-1-1.16a.91.91,0,0,0-.74.34,1.42,1.42,0,0,0-.3.91H46a3.11,3.11,0,0,1,1-2.39,3.88,3.88,0,0,1,2.67-.86,4,4,0,0,1,2.66.8,2.77,2.77,0,0,1,.94,2.24A2.57,2.57,0,0,1,53,68.91,3.73,3.73,0,0,1,52.16,70l-.88.82a2,2,0,0,0-.52.74,2.91,2.91,0,0,0-.17,1Zm-.32,2.33a1.19,1.19,0,0,1,.41-.93,1.48,1.48,0,0,1,1-.37,1.44,1.44,0,0,1,1,.37,1.26,1.26,0,0,1,0,1.86,1.44,1.44,0,0,1-1,.37,1.48,1.48,0,0,1-1-.37A1.19,1.19,0,0,1,48.08,74.84Z" transform="translate(2.89 3.19)"/><path class="cls-2" d="M98.76,81.41H81.23V58.21H98.76ZM84.57,78.08H95.42V61.54H84.57Z" transform="translate(2.89 3.19)"/><path class="cls-2" d="M88.73,72.51A5.2,5.2,0,0,1,89,70.74a2.77,2.77,0,0,1,.83-1.13,5.77,5.77,0,0,0,.86-.87,1.39,1.39,0,0,0,.3-.87c0-.77-.34-1.16-1-1.16a.92.92,0,0,0-.75.34,1.42,1.42,0,0,0-.3.91H86.33a3.08,3.08,0,0,1,1-2.39A3.84,3.84,0,0,1,90,64.71a4,4,0,0,1,2.65.8,2.74,2.74,0,0,1,.94,2.24,2.57,2.57,0,0,1-.25,1.16A3.78,3.78,0,0,1,92.49,70l-.88.82a2.14,2.14,0,0,0-.52.74,2.93,2.93,0,0,0-.16,1Zm-.31,2.33a1.16,1.16,0,0,1,.41-.93,1.44,1.44,0,0,1,1-.37,1.48,1.48,0,0,1,1,.37,1.26,1.26,0,0,1,0,1.86,1.48,1.48,0,0,1-1,.37,1.44,1.44,0,0,1-1-.37A1.16,1.16,0,0,1,88.42,74.84Z" transform="translate(2.89 3.19)"/><path class="cls-2" d="M108.64,96.21H31.57V43.41h77.07ZM36.23,91.54H104V48.08H36.23Z" transform="translate(2.89 3.19)"/><rect class="cls-2" x="70.67" y="28.06" width="4.67" height="12.56"/><path class="cls-2" d="M81.27,48.08H58.94V45.75a11.17,11.17,0,1,1,22.33,0ZM64,43.41H76.17a6.5,6.5,0,0,0-12.13,0Z" transform="translate(2.89 3.19)"/><rect class="cls-2" x="70.67" y="105.38" width="4.67" height="12.56"/><path class="cls-2" d="M70.11,105A11.18,11.18,0,0,1,58.94,93.88V91.54H81.27v2.34A11.18,11.18,0,0,1,70.11,105ZM64,96.21a6.5,6.5,0,0,0,12.13,0Z" transform="translate(2.89 3.19)"/></svg>