<svg id="Layer_1" data-name="Layer 1" xmlns="http://www.w3.org/2000/svg" viewBox="0 0 146 146"><defs><style>.cls-1{fill:#d14a43;}.cls-2{fill:#fff;}.cls-3{fill:#48443e;}</style></defs><title>5-3</title><path class="cls-1" d="M69.85,142.81a73,73,0,1,1,73-73A73.09,73.09,0,0,1,69.85,142.81Zm0-136a63,63,0,1,0,63,63A63.07,63.07,0,0,0,69.85,6.81Z" transform="translate(3.15 3.19)"/><path class="cls-1" d="M69.85,125.81a56,56,0,1,1,56-56A56.06,56.06,0,0,1,69.85,125.81Zm0-109.33a53.34,53.34,0,1,0,53.34,53.33A53.39,53.39,0,0,0,69.85,16.48Z" transform="translate(3.15 3.19)"/><rect class="cls-2" x="40.85" y="40.02" width="53.1" height="63.89"/><path class="cls-3" d="M93.13,103.06H35.37V34.5H93.13ZM40,98.39H88.47V39.17H40Z" transform="translate(3.15 3.19)"/><rect class="cls-3" x="52.46" y="51.86" width="29.34" height="4.67"/><rect class="cls-3" x="52.46" y="62.27" width="29.34" height="4.67"/><rect class="cls-3" x="52.46" y="72.68" width="29.34" height="4.67"/><rect class="cls-3" x="52.46" y="83.45" width="29.34" height="4.67"/><circle class="cls-2" cx="83.41" cy="65.29" r="17.32"/><path class="cls-3" d="M80.27,81.75A19.65,19.65,0,1,1,94.16,76,19.59,19.59,0,0,1,80.27,81.75Zm0-34.62a15,15,0,1,0,10.59,4.38A14.94,14.94,0,0,0,80.27,47.13Z" transform="translate(3.15 3.19)"/><path class="cls-2" d="M72.9,54.74a10.43,10.43,0,0,0,0,14.73" transform="translate(3.15 3.19)"/><path class="cls-3" d="M71.25,71.12a12.77,12.77,0,0,1,0-18l3.3,3.3a8.09,8.09,0,0,0,0,11.43Z" transform="translate(3.15 3.19)"/><path class="cls-2" d="M88.87,80.22H110.8a2.92,2.92,0,0,1,2.92,2.92v0a2.92,2.92,0,0,1-2.92,2.92H88.87a0,0,0,0,1,0,0V80.22a0,0,0,0,1,0,0Z" transform="translate(91.6 -44.09) rotate(45)"/><path class="cls-3" d="M108,95.1a5.26,5.26,0,0,1-3.72-1.53L87.15,76.42,94.58,69l17.15,17.15a5.25,5.25,0,0,1-3.71,9ZM93.75,76.42,107.6,90.27a.59.59,0,0,0,.83,0,.57.57,0,0,0,.17-.41.59.59,0,0,0-.17-.42L94.58,75.59Z" transform="translate(3.15 3.19)"/></svg>