<svg id="Layer_1" data-name="Layer 1" xmlns="http://www.w3.org/2000/svg" viewBox="0 0 146 146"><defs><style>.cls-1{fill:#d14a43;}.cls-2{fill:#48443e;}.cls-3{fill:#fff;}</style></defs><title>5-1</title><path class="cls-1" d="M70,142.81a73,73,0,1,1,73-73A73.09,73.09,0,0,1,70,142.81Zm0-136a63,63,0,1,0,63,63A63.07,63.07,0,0,0,70,6.81Z" transform="translate(3.04 3.19)"/><path class="cls-1" d="M70,125.81a56,56,0,1,1,56-56A56.06,56.06,0,0,1,70,125.81ZM70,16.48a53.34,53.34,0,1,0,53.33,53.33A53.39,53.39,0,0,0,70,16.48Z" transform="translate(3.04 3.19)"/><path class="cls-2" d="M73.77,66.52h-8.2A13.79,13.79,0,0,1,51.8,52.75V37.64A13.79,13.79,0,0,1,65.57,23.87h8.2A13.79,13.79,0,0,1,87.54,37.64V52.75A13.79,13.79,0,0,1,73.77,66.52Zm-8.2-38a9.11,9.11,0,0,0-9.1,9.1V52.75a9.11,9.11,0,0,0,9.1,9.1h8.2a9.11,9.11,0,0,0,9.1-9.1V37.64a9.11,9.11,0,0,0-9.1-9.1Z" transform="translate(3.04 3.19)"/><rect class="cls-2" x="51.13" y="45.19" width="43.16" height="4.67"/><path class="cls-2" d="M103.08,104.71H98.41V79.51A8.33,8.33,0,0,0,93.71,72L79.88,65.43l2-4.21,13.82,6.61a13,13,0,0,1,7.36,11.68Z" transform="translate(3.04 3.19)"/><path class="cls-2" d="M40.93,95.38H36.26V79.94a13,13,0,0,1,7.36-11.68l13.82-6.61,2,4.21L45.63,72.47a8.33,8.33,0,0,0-4.7,7.47Z" transform="translate(3.04 3.19)"/><path class="cls-3" d="M38.59,95.38a9.33,9.33,0,0,0,9.33,9.33" transform="translate(3.04 3.19)"/><path class="cls-2" d="M47.92,107A11.67,11.67,0,0,1,36.26,95.38h4.67a7,7,0,0,0,7,7Z" transform="translate(3.04 3.19)"/><rect class="cls-3" x="51.47" y="86.07" width="42.48" height="12.19"/><path class="cls-2" d="M93.24,97.4H46.1V80.54H93.24ZM50.76,92.73H88.58V85.21H50.76Z" transform="translate(3.04 3.19)"/><rect class="cls-3" x="51.47" y="98.25" width="42.48" height="13.98"/><path class="cls-2" d="M93.24,111.38H46.1V92.73H93.24Zm-42.48-4.67H88.58V97.4H50.76Z" transform="translate(3.04 3.19)"/><rect class="cls-3" x="67.08" y="98.25" width="11.26" height="6.69"/><path class="cls-2" d="M77.63,104.09H61.71V92.73H77.63ZM66.38,99.42H73v-2H66.38Z" transform="translate(3.04 3.19)"/><path class="cls-3" d="M67.08,79.08H78.34A1.65,1.65,0,0,1,80,80.73v5.34a0,0,0,0,1,0,0H65.44a0,0,0,0,1,0,0V80.73A1.65,1.65,0,0,1,67.08,79.08Z"/><path class="cls-2" d="M79.28,85.21H60.06V77.54a4,4,0,0,1,4-4H75.3a4,4,0,0,1,4,4ZM64.73,80.54h9.88V78.23H64.73Z" transform="translate(3.04 3.19)"/></svg>