<svg id="Layer_1" data-name="Layer 1" xmlns="http://www.w3.org/2000/svg" viewBox="0 0 103.92 92.77"><defs><style>.cls-1{fill:#fff;}.cls-2{fill:#48443e;}.cls-3{fill:#d14a43;}</style></defs><title>5-9</title><path class="cls-1" d="M27.25,79.53c0-17.68,18.28-32,40.83-32a50.13,50.13,0,0,1,17.33,3,41.87,41.87,0,0,1,20.14-2.29l-6,10.92A31.74,31.74,0,0,1,105.11,66L114,68A5.53,5.53,0,0,1,118.51,74l-1.24,13.91a8.68,8.68,0,0,1-3.11,5.57,81.45,81.45,0,0,1-20,12.34,6.06,6.06,0,0,1-2.53,6.4h0a6.07,6.07,0,0,1-8.42-1.65l-.55-.82a60.28,60.28,0,0,1-14.53,1.83,50.75,50.75,0,0,1-13-1.68l-.18.32a6.07,6.07,0,0,1-11-4.9C33.77,99.45,27.25,90.09,27.25,79.53Z" transform="translate(-17.29 -23.12)"/><path class="cls-2" d="M49.59,115.89a8.75,8.75,0,0,0,6.59-3,57.9,57.9,0,0,0,25.29-.17,8.74,8.74,0,0,0,15.46-5.27,83.35,83.35,0,0,0,19-12,11.27,11.27,0,0,0,4-7.32l1.24-13.91a8.21,8.21,0,0,0-6.5-8.76l-7.88-1.77a34,34,0,0,0-3.9-5l6.8-12.47-3.7-.62a44.62,44.62,0,0,0-20.61,2.08,52.88,52.88,0,0,0-17.3-2.85c-24,0-43.51,15.56-43.51,34.69,0,10.53,6.06,20.54,16.31,27.09a8.78,8.78,0,0,0,4.35,8.1A8.6,8.6,0,0,0,49.59,115.89Zm4.15-9.12-1.2,2.08a3.4,3.4,0,0,1-6.18-2.74l.67-2L45.16,103c-9.69-5.62-15.24-14.17-15.24-23.45,0-16.18,17.12-29.35,38.16-29.35A47.56,47.56,0,0,1,84.49,53l1,.36,1-.38a37.76,37.76,0,0,1,14.83-2.45l-5,9.12,1.48,1.41a29.78,29.78,0,0,1,5.07,6.3l.58,1,10.06,2.26a2.86,2.86,0,0,1,2.39,3.08l-1.24,13.92a6.06,6.06,0,0,1-2.19,3.77,79.32,79.32,0,0,1-19.37,11.92l-2,.89.5,2.16A3.36,3.36,0,0,1,90.09,110a3.41,3.41,0,0,1-4.72-.92l-1.59-2.37-1.81.45a52.71,52.71,0,0,1-26.25.16Z" transform="translate(-17.29 -23.12)"/><path class="cls-1" d="M29.28,69.22A8.83,8.83,0,0,1,20,60.9" transform="translate(-17.29 -23.12)"/><path class="cls-2" d="M28.77,71.91l.66,0-.31-5.34a6.17,6.17,0,0,1-6.5-5.8l-5.33.31A11.51,11.51,0,0,0,28.77,71.91Z" transform="translate(-17.29 -23.12)"/><path class="cls-3" d="M81.23,59.35l1.46-5.14c-14.44-4.1-28.62-.17-29.21,0l1.46,5.14C55.07,59.31,68.28,55.67,81.23,59.35Z" transform="translate(-17.29 -23.12)"/><circle class="cls-1" cx="50.8" cy="17.29" r="14.62"/><path class="cls-3" d="M68.08,57.7A17.29,17.29,0,1,0,50.79,40.41,17.31,17.31,0,0,0,68.08,57.7Zm0-29.24A11.95,11.95,0,1,1,56.13,40.41,12,12,0,0,1,68.08,28.46Z" transform="translate(-17.29 -23.12)"/></svg>