<svg id="Layer_1" data-name="Layer 1" xmlns="http://www.w3.org/2000/svg" viewBox="0 0 88.87 74.41"><defs><style>.cls-1{fill:#fff;}.cls-2{fill:#48443e;}.cls-3{fill:#d14a43;}</style></defs><title>5-8</title><rect class="cls-1" x="2.67" y="14.12" width="83.52" height="33.39"/><path class="cls-2" d="M114.39,82.82H25.53V44.09h88.86ZM30.87,77.48h78.18V49.43H30.87Z" transform="translate(-25.53 -32.64)"/><rect class="cls-1" x="2.67" y="47.51" width="83.52" height="24.23"/><path class="cls-2" d="M114.39,107.05H25.53V77.48h88.86Zm-83.52-5.34h78.18V82.82H30.87Z" transform="translate(-25.53 -32.64)"/><path class="cls-1" d="M33.56,2.67H55.31A3.43,3.43,0,0,1,58.74,6.1v8a0,0,0,0,1,0,0H30.13a0,0,0,0,1,0,0v-8A3.43,3.43,0,0,1,33.56,2.67Z"/><path class="cls-2" d="M86.94,49.43H53V38.74a6.11,6.11,0,0,1,6.11-6.1H80.84a6.11,6.11,0,0,1,6.1,6.1ZM58.33,44.09H81.59V38.74a.76.76,0,0,0-.75-.76H59.09a.76.76,0,0,0-.76.76Z" transform="translate(-25.53 -32.64)"/><circle class="cls-1" cx="44.41" cy="45.22" r="14.41"/><path class="cls-3" d="M69.94,94.94A17.08,17.08,0,1,1,87,77.86,17.1,17.1,0,0,1,69.94,94.94Zm0-28.81A11.73,11.73,0,1,0,81.67,77.86,11.75,11.75,0,0,0,69.94,66.13Z" transform="translate(-25.53 -32.64)"/><polygon class="cls-3" points="40.47 55.63 43.09 44.64 49.6 44.64 40.47 55.63"/><polygon class="cls-3" points="48.41 34.85 45.79 45.84 39.28 45.84 48.41 34.85"/></svg>