<svg id="Layer_1" data-name="Layer 1" xmlns="http://www.w3.org/2000/svg" viewBox="0 0 64.73 81.99"><defs><style>.cls-1{fill:#48443e;}.cls-2{fill:#d14a43;}</style></defs><title>5-7</title><path class="cls-1" d="M102.22,110.7H37.49v-82h64.73Zm-59.39-5.35H96.88V34.05h-54Z" transform="translate(-37.49 -28.71)"/><path class="cls-1" d="M90.81,68.14H48.9V40.05H90.81ZM54.24,62.8H85.46V45.39H54.24Z" transform="translate(-37.49 -28.71)"/><circle class="cls-2" cx="18.77" cy="50.39" r="4.7"/><circle class="cls-2" cx="32.97" cy="50.39" r="4.7"/><circle class="cls-2" cx="47.17" cy="50.39" r="4.7"/><circle class="cls-2" cx="18.77" cy="64.41" r="4.7"/><circle class="cls-2" cx="32.97" cy="64.41" r="4.7"/><circle class="cls-2" cx="47.17" cy="64.41" r="4.7"/><path class="cls-1" d="M77.55,56.47a5.56,5.56,0,0,1,.29-2,3.19,3.19,0,0,1,.94-1.29,6.14,6.14,0,0,0,1-1,1.65,1.65,0,0,0,.34-1c0-.89-.38-1.33-1.15-1.33a1.06,1.06,0,0,0-.85.39,1.58,1.58,0,0,0-.34,1h-3a3.55,3.55,0,0,1,1.11-2.74,4.4,4.4,0,0,1,3-1,4.61,4.61,0,0,1,3,.91A3.16,3.16,0,0,1,83.08,51a3.05,3.05,0,0,1-.29,1.33,4.65,4.65,0,0,1-.93,1.22l-1,.94a2.47,2.47,0,0,0-.59.85,3.36,3.36,0,0,0-.19,1.11Zm-.36,2.67a1.34,1.34,0,0,1,.47-1.07,1.68,1.68,0,0,1,1.17-.42,1.72,1.72,0,0,1,1.18.42,1.36,1.36,0,0,1,.46,1.07A1.38,1.38,0,0,1,80,60.21a1.76,1.76,0,0,1-1.18.41,1.72,1.72,0,0,1-1.17-.41A1.35,1.35,0,0,1,77.19,59.14Z" transform="translate(-37.49 -28.71)"/></svg>