<svg id="Layer_1" data-name="Layer 1" xmlns="http://www.w3.org/2000/svg" viewBox="0 0 62.31 59"><defs><style>.cls-1{fill:#48443e;}.cls-2{fill:#d14a43;}</style></defs><title>5-4</title><path class="cls-1" d="M62.37,72.29l1.38-12.17H77.17v4H67.65l-.59,5.14a7.57,7.57,0,0,1,3.6-.9A6.91,6.91,0,0,1,76,70.45,8.48,8.48,0,0,1,78,76.39a8.74,8.74,0,0,1-1,4.15,6.9,6.9,0,0,1-2.8,2.84,8.72,8.72,0,0,1-4.31,1,9.24,9.24,0,0,1-4-.88A7,7,0,0,1,62.91,81a6.8,6.8,0,0,1-1.15-3.64h4.71a3.45,3.45,0,0,0,1,2.33,3.33,3.33,0,0,0,2.34.83,2.92,2.92,0,0,0,2.49-1.16,5.36,5.36,0,0,0,.87-3.28,4.42,4.42,0,0,0-1-3.12,3.63,3.63,0,0,0-2.84-1.09,4.15,4.15,0,0,0-2.75.89l-.46.43Z" transform="translate(-38.54 -41.75)"/><path class="cls-1" d="M63.52,90.08a2.54,2.54,0,0,1,.78-1.93,2.78,2.78,0,0,1,2-.75,2.86,2.86,0,0,1,2,.74,2.6,2.6,0,0,1,.78,2v.64a2.55,2.55,0,0,1-.78,1.94,3.2,3.2,0,0,1-4.08,0,2.59,2.59,0,0,1-.78-2Zm1.71.7a1.25,1.25,0,0,0,.31.87,1.06,1.06,0,0,0,.81.32,1,1,0,0,0,.79-.33,1.26,1.26,0,0,0,.3-.89v-.66a1.24,1.24,0,0,0-.3-.87,1.13,1.13,0,0,0-1.6,0,1.26,1.26,0,0,0-.31.91Zm1.63,8.82-1.26-.68,6.34-10.15,1.25.68Zm2.87-2.21a2.53,2.53,0,0,1,.78-1.94,3.2,3.2,0,0,1,4.08,0,2.59,2.59,0,0,1,.78,2v.64A2.55,2.55,0,0,1,74.6,100a2.82,2.82,0,0,1-2,.74A2.89,2.89,0,0,1,70.5,100a2.62,2.62,0,0,1-.77-2Zm1.71.7a1.25,1.25,0,0,0,.32.85,1,1,0,0,0,.8.35c.73,0,1.09-.41,1.09-1.22v-.68a1.22,1.22,0,0,0-.3-.86,1.06,1.06,0,0,0-.81-.33,1,1,0,0,0-.8.33,1.26,1.26,0,0,0-.3.89Z" transform="translate(-38.54 -41.75)"/><path class="cls-2" d="M91.73,94.92,89,92.23a27.36,27.36,0,1,0-38.68,0l-2.69,2.69a31.15,31.15,0,1,1,44.06,0Z" transform="translate(-38.54 -41.75)"/></svg>