<svg id="Layer_1" data-name="Layer 1" xmlns="http://www.w3.org/2000/svg" viewBox="0 0 62.31 59"><defs><style>.cls-1{fill:#48443e;}.cls-2{fill:#d14a43;}</style></defs><title>5-5</title><path class="cls-1" d="M66.94,75.05h2.71v3.83H66.94v5.18H62.19V78.88H52.37l-.21-3,10-15.77h4.8Zm-10,0h5.3V66.6l-.32.54Z" transform="translate(-38.57 -41.75)"/><path class="cls-1" d="M71.22,72.29,72.6,60.12H86v4H76.5l-.59,5.14a7.57,7.57,0,0,1,3.6-.9,6.91,6.91,0,0,1,5.36,2.12,8.48,8.48,0,0,1,1.94,5.94,8.62,8.62,0,0,1-1,4.15A6.84,6.84,0,0,1,83,83.38a8.69,8.69,0,0,1-4.31,1,9.24,9.24,0,0,1-4-.88A7.1,7.1,0,0,1,71.76,81a6.7,6.7,0,0,1-1.14-3.64h4.7a3.5,3.5,0,0,0,1,2.33,3.33,3.33,0,0,0,2.34.83,2.91,2.91,0,0,0,2.49-1.16,5.36,5.36,0,0,0,.87-3.28,4.46,4.46,0,0,0-1-3.12,3.67,3.67,0,0,0-2.85-1.09,4.1,4.1,0,0,0-2.74.89l-.46.43Z" transform="translate(-38.57 -41.75)"/><path class="cls-1" d="M63.56,90.08a2.53,2.53,0,0,1,.77-1.93,2.81,2.81,0,0,1,2-.75,2.85,2.85,0,0,1,2,.74,2.6,2.6,0,0,1,.78,2v.64a2.55,2.55,0,0,1-.78,1.94,3.18,3.18,0,0,1-4.07,0,2.59,2.59,0,0,1-.78-2Zm1.71.7a1.24,1.24,0,0,0,.3.87,1.06,1.06,0,0,0,.81.32,1,1,0,0,0,.8-.33,1.31,1.31,0,0,0,.29-.89v-.66a1.29,1.29,0,0,0-.29-.87,1,1,0,0,0-.82-.33,1,1,0,0,0-.79.33,1.3,1.3,0,0,0-.3.91Zm1.62,8.82-1.26-.68L72,88.77l1.26.68Zm2.87-2.21a2.5,2.5,0,0,1,.79-1.94,3.18,3.18,0,0,1,4.07,0,2.59,2.59,0,0,1,.78,2v.64a2.55,2.55,0,0,1-.76,1.93,2.82,2.82,0,0,1-2,.74,2.86,2.86,0,0,1-2.06-.74,2.59,2.59,0,0,1-.78-2Zm1.71.7a1.25,1.25,0,0,0,.32.85,1.07,1.07,0,0,0,.81.35c.72,0,1.08-.41,1.08-1.22v-.68a1.22,1.22,0,0,0-.3-.86,1,1,0,0,0-.8-.33,1,1,0,0,0-.8.33,1.22,1.22,0,0,0-.31.89Z" transform="translate(-38.57 -41.75)"/><path class="cls-2" d="M91.76,94.92l-2.69-2.69a27.35,27.35,0,1,0-38.68,0L47.7,94.92a31.16,31.16,0,1,1,44.06,0Z" transform="translate(-38.57 -41.75)"/></svg>