<svg id="Layer_1" data-name="Layer 1" xmlns="http://www.w3.org/2000/svg" viewBox="0 0 62.31 58.82"><defs><style>.cls-1{fill:#48443e;}.cls-2{fill:#d14a43;}</style></defs><title>5-6</title><path class="cls-1" d="M66.49,76.05h2.72v3.83H66.49v5.18H61.74V79.88H51.93l-.22-3,10-15.77h4.8Zm-10,0h5.29V67.6l-.31.54Z" transform="translate(-38.13 -42.75)"/><path class="cls-1" d="M86.35,63.78,77.09,85.06h-5L81.35,65H69.45V61.12h16.9Z" transform="translate(-38.13 -42.75)"/><path class="cls-1" d="M57.85,92.69l2.28,6.44,2.27-6.44h2.4v8.88H63V99.14L63.15,95l-2.4,6.61H59.5L57.11,95l.18,4.18v2.43H55.46V92.69Z" transform="translate(-38.13 -42.75)"/><path class="cls-1" d="M73.72,92.69v8.88H71.88V94.18H69.52l-.15,3.13A10,10,0,0,1,69,99.8a2.6,2.6,0,0,1-.91,1.34,2.87,2.87,0,0,1-1.63.43H66V100.1l.31,0a1.21,1.21,0,0,0,1-.8,8,8,0,0,0,.37-2.5l.16-4.08Z" transform="translate(-38.13 -42.75)"/><path class="cls-1" d="M82.54,101.57H80.71v-3.8H77.14v3.8H75.31V92.69h1.83v3.6h3.57v-3.6h1.83Z" transform="translate(-38.13 -42.75)"/><path class="cls-2" d="M91.32,95.92l-2.69-2.69a27.36,27.36,0,1,0-38.69,0l-2.68,2.69a31.15,31.15,0,1,1,44.06,0Z" transform="translate(-38.13 -42.75)"/></svg>