<svg version="1" xmlns="http://www.w3.org/2000/svg" width="880" height="880" viewBox="0 0 660.000000 660.000000"><path d="M323.4 54.7c-2.5 4.3-4.9 8.5-5.4 9.3-.5.8-1.9 3.3-3.2 5.5-1.2 2.2-2.3 4.2-2.3 4.5 0 .3-.8 1.6-1.7 3-.9 1.4-5.6 9.5-10.6 18-4.9 8.5-12.3 21.4-16.5 28.7-4.2 7.2-8.5 14.7-9.5 16.5-4.5 7.9-31.5 54.4-34.1 58.8-1.1 1.9-2.4 4.2-2.8 5-.4.8-3.3 5.9-6.5 11.3-3.2 5.3-5.8 9.9-5.8 10.2 0 .3-1.5 2.8-3.3 5.7-1.9 2.9-3.7 6-4.1 6.8-.4.8-1.2 2.4-1.9 3.5s-3.3 5.6-5.8 10-8.4 14.6-13.1 22.7c-4.7 8-8.8 15.2-9.2 16-.3.7-1.7 3.1-3.1 5.3-1.4 2.2-3 5.2-3.6 6.7-.6 1.6-1.5 2.8-2 2.8s-.9.4-.9.9c0 .6-4.9 9.4-10.9 19.8-6 10.3-10.7 19-10.6 19.3.2.3 62.3.5 138.2.5h137.8l3.3 5.3c1.7 2.9 3.2 5.5 3.2 5.8 0 .3.8 1.8 1.8 3.2 1.1 1.5 3.3 5.2 4.9 8.2 1.7 3 15.2 26.5 30 52.1s27.3 47.2 27.6 48c.4.8 1.5 2.6 2.5 4.1 3.6 5.7 22.7 39.3 23 40.5.2.7.8 1.3 1.3 1.3s.9.4.9.9c0 .8 6.8 13 12.1 21.6 1 1.6 2.5 4.3 3.4 6 .8 1.6 2.7 5 4.1 7.3 1.4 2.4 2.4 4.6 2.2 4.8-.3.3-105.1.7-120 .4-1 0-3.2-2.7-5.5-6.7-2.1-3.8-4.3-7.7-5-8.8-.7-1.1-1.5-2.7-1.9-3.5-.4-.7-4.5-7.8-9.1-15.7-4.6-7.8-8.3-14.7-8.3-15.3 0-.5-.3-1-.7-1-.5 0-1.3-1-1.9-2.3-1.5-3.3-5.8-11.1-6.4-11.7-.7-.7-2.9-4.3-3.7-6-.4-.8-2-3.8-3.6-6.5-1.7-2.8-3.7-6.4-4.7-8-10.5-18.6-23.2-39.7-25.1-41.9-5.2-6.1-7.7-8.3-13.5-12.2-5.8-3.9-10.9-6.3-15.9-7.5-.2 0-2.6-.6-5.2-1.3-3.7-1-24.8-1.2-91.3-1.1l-86.5.1-7.2 2.5c-16.7 5.9-25.8 14.1-37.2 33.3-4.2 7.2-8 13.8-8.4 14.6-.4.8-1.6 3-2.8 4.9-1.1 1.9-5.4 9.3-9.6 16.5-4.2 7.2-8.6 14.9-9.9 17.1-1.3 2.2-3.1 5.6-4.1 7.5-1 1.9-2 3.7-2.3 4-.3.3-2.8 4.3-5.4 9-7.1 12.5-8.1 14.3-16.1 28C24.2 572.7 12 594.3 12 595.1c0 .5-.4.9-1 .9-.5 0-1 .4-1 1 0 .5-2 4.3-4.5 8.3C3 609.4 1 613 1 613.4c0 .3 73.4.6 163 .6 171.2 0 166.5.1 161.5-4-.8-.7-1.5-1.6-1.5-2 0-.5-2-4.3-4.5-8.4-2.5-4.2-4.5-8.1-4.5-8.6 0-.6-.4-1-1-1-.5 0-1-.4-1-1 0-.5-2.2-4.7-4.9-9.2-5.4-9.2-7.9-13.6-10.7-18.8-1.1-1.9-2.4-3.9-2.9-4.5-.8-.9-26.1-1.2-95.3-1.2-51.8 0-94.5-.2-94.7-.5-.3-.3 2.4-5.6 6-11.7 3.6-6.2 7.6-13.1 8.9-15.4 3-5.3 18.8-32.6 27.5-47.5 3.6-6.2 7-12.1 7.5-13 .8-1.6 6.2-1.7 78.7-1.7h77.8l8.3 14.4c4.6 8 9.6 16.8 11.1 19.5 1.6 2.8 4.2 7.2 5.8 9.9 1.6 2.6 2.9 4.9 2.9 5.1 0 .2 1.8 3.4 4 7s4 7 4 7.6c0 .5.5 1 1 1 .6 0 1 .4 1 .9s2.7 5.5 6 11.1 6 10.4 6 10.7c0 .2 1.4 2.5 3.2 5.1 1.8 2.6 3.2 4.9 3.2 5.2-.1.3.4 1.4 1.1 2.5 1.1 1.8 17 29.3 22.3 38.5 1 1.9 2.8 5 3.8 6.7l1.9 3.3h129.8c71.3 0 129.7-.3 129.7-.6 0-.9-3.3-6.7-4.7-8.2-.7-.7-1.3-1.7-1.3-2.2 0-.4-1.7-3.7-3.8-7.1-2.2-3.5-5-8.4-6.4-10.9-1.4-2.5-6.7-11.7-11.8-20.5-5.1-8.8-9.8-17-10.4-18.2-.6-1.3-1.4-2.3-1.8-2.3-.5 0-.8-.5-.8-1.1 0-.6-3.1-6.4-7-13-3.8-6.6-7-12.2-7-12.3 0-.2-2.5-4.5-5.5-9.5-3-5.1-5.5-9.4-5.5-9.6 0-.3-1.6-2.9-3.5-5.9-1.9-3-3.5-6-3.5-6.6 0-.5-.5-1-1.2-1-.6 0-.8-.3-.5-.7.4-.3.1-1.3-.7-2.2-.7-.9-2.6-4.1-4.2-7.1s-3.2-5.7-3.5-6c-.3-.3-1.4-2.1-2.4-4-.9-1.9-2.3-4.2-3-5-.8-.8-1.3-1.7-1.2-2 0-.3-2.4-4.8-5.5-10-3-5.2-9.4-16.3-14.2-24.5-4.7-8.3-9.1-15.7-9.6-16.5-.6-.8-1.7-2.9-2.5-4.5-.9-1.7-2.4-4.4-3.4-6-1-1.7-2.8-4.8-4.1-7-4.4-7.9-17.3-30-18.9-32.5-.9-1.4-2.2-3.6-2.9-5-3.5-6.5-5.4-9.7-7.2-12.5-1.1-1.7-2.4-3.9-2.9-5s-3-5.5-5.5-9.8c-2.5-4.3-4.6-8-4.6-8.3 0-.3-.4-1-1-1.7-.5-.7-2.8-3.6-5-6.5-7.6-9.8-19.2-17.3-32-20.8-5.9-1.5-14.5-1.7-96.5-1.9-49.5-.1-90.3-.3-90.7-.4-.4 0 .3-1.7 1.5-3.7 2.7-4.4 2.8-4.6 10.2-17.4 3.2-5.8 6.2-10.7 6.5-11 .3-.3 1.3-2.1 2.4-4 2.4-4.5 5.6-10.2 8.1-14.4 3.3-5.5 12-21 12.4-22.1.2-.6.7-1.2 1.1-1.5 1-.8 10-16.8 10-18 0-.5.5-1 1-1 .6 0 1-.4 1-.9s2.7-5.5 6-11c3.3-5.6 6-10.5 6-10.9 0-.4.5-1.3 1.2-2 .9-.9 2.3.8 6 7.1 2.6 4.5 5.2 8.9 5.8 9.7.6.8 1.3 2.2 1.7 3 .6 1.3 12.8 22.1 15.3 26 .5.8 2.4 4 4.1 7.1l3.2 5.7h33.6c18.5 0 34-.2 34.4-.5.4-.3.4-1-.1-1.6-.5-.7-2.1-3.2-3.4-5.7-1.4-2.5-5.8-10.1-9.7-16.8-3.9-6.8-7.1-12.6-7.1-12.8 0-.3-.5-1-1-1.7-1.1-1.2-31.1-53.2-35.8-61.7-1.3-2.5-2.7-5-3.2-5.5-.4-.6-1.9-3-3.2-5.5-1.4-2.5-5.8-10.1-9.7-16.8-3.9-6.8-7.1-12.8-7.1-13.3s-.4-.9-.8-.9-2-2.5-3.6-5.5c-1.5-3-3.2-5.7-3.7-6-.5-.4-.9-1.5-.9-2.6 0-1-.3-1.9-.7-1.9-.5 0-3.3-4.5-6.3-10s-5.8-10-6.2-10c-.4 0-2.8 3.5-5.4 7.7z"/></svg>