<?xml version="1.0" encoding="utf-8"?>
<svg xmlns="http://www.w3.org/2000/svg" viewBox="0 0 372.91 143.07">
  <defs>
    <style>
      .cls-1 {
        fill: #BD362F;
      }

      .cls-2 {
        fill: #191919;
      }

      .cls-3 {
        fill: #191919;
      }

    </style>
  </defs>
  <title>logo for interior price</title>
  <path class="cls-1" d="M95.23,155.12Zm26-82.37H77.84L95.14,42.8l8.84,15h17.19L95.23,12.84,52,87.73h69.27l30.27,52.41h-30.6l-17.3-30a14.94,14.94,0,0,0-12.93-7.47H52A14.94,14.94,0,0,0,39,110.17l-25.95,45H95.23l-8.65-15H38.93l13-22.46H90.79l21.62,37.44h65L134.13,80.21A14.93,14.93,0,0,0,121.2,72.75Z" transform="translate(-13.09 -12.84)" />
  <path class="cls-2" d="M158,57.75h7.56V91.88H158Z" transform="translate(-13.09 -12.84)" />
  <path class="cls-2" d="M196.06,91.88,179.53,71.65V91.88h-7.36V57.75H178L194.54,78V57.75h7.37V91.88Z" transform="translate(-13.09 -12.84)" />
  <path class="cls-2" d="M205.07,57.75h29.45v7.07h-11V91.88H216V64.82H205.07Z" transform="translate(-13.09 -12.84)" />
  <path class="cls-2" d="M237.69,57.75h26.08v7.07H245.24v6.34h17.31V78H245.24v6.82h19v7.07H237.69Z" transform="translate(-13.09 -12.84)" />
  <path class="cls-2" d="M269.32,91.88V57.75h13.8c10.87,0,13.79,5.46,13.79,11.12a10.65,10.65,0,0,1-6.67,10l9.5,13h-9.11l-8.34-11.65h-5.41V91.88Zm7.56-27.06v8.34h6.38c3.71,0,5.81-1.56,5.81-4.29,0-2.44-1.27-4.05-6.1-4.05Z" transform="translate(-13.09 -12.84)" />
  <path class="cls-2" d="M303.15,57.75h7.56V91.88h-7.56Z" transform="translate(-13.09 -12.84)" />
  <path class="cls-2" d="M333.18,57.17a17.65,17.65,0,1,1-17.6,17.65A17.32,17.32,0,0,1,333.18,57.17Zm0,28c5.37,0,9.7-4,9.7-10.33s-4.72-10.34-9.7-10.34c-5.16,0-9.75,4-9.75,10.34S328,85.15,333.18,85.15Z" transform="translate(-13.09 -12.84)" />
  <path class="cls-2" d="M355.36,91.88V57.75h13.8C380,57.75,383,63.21,383,68.87a10.65,10.65,0,0,1-6.67,10l9.5,13h-9.11l-8.34-11.65h-5.41V91.88Zm7.56-27.06v8.34h6.39c3.7,0,5.8-1.56,5.8-4.29,0-2.44-1.27-4.05-6.1-4.05Z" transform="translate(-13.09 -12.84)" />
  <path class="cls-3" d="M194.55,155.12V108.78h19.2c15.75,0,19.66,8.34,19.66,16,0,7.82-5,15.83-19.66,15.83h-8.94v14.56Zm10.26-36.74V131h8.81c6.42,0,9.13-2.39,9.13-6.29,0-3.64-2.25-6.29-8.74-6.29Z" transform="translate(-13.09 -12.84)" />
  <path class="cls-3" d="M239.37,155.12V108.78H258.1c14.76,0,18.74,7.41,18.74,15.09a14.47,14.47,0,0,1-9.07,13.57l12.91,17.68H268.3L257,139.3h-7.35v15.82Zm10.26-36.74V129.7h8.67c5,0,7.88-2.12,7.88-5.83,0-3.31-1.72-5.49-8.28-5.49Z" transform="translate(-13.09 -12.84)" />
  <path class="cls-3" d="M285.31,108.78h10.26v46.34H285.31Z" transform="translate(-13.09 -12.84)" />
  <path class="cls-3" d="M345.62,146.38c-4.17,6.09-11.52,9.53-19.73,9.53-14.43,0-23.7-9.6-23.7-24,0-13.24,9.6-24,24-24,8.48,0,15.43,3.57,18.74,8.8l-6.95,6.35a14.74,14.74,0,0,0-11.06-5.22c-8.27,0-14,5.42-14,14,0,8.34,5.89,14,13.9,14a16,16,0,0,0,12.78-6.15Z" transform="translate(-13.09 -12.84)" />
  <path class="cls-3" d="M350.58,108.78H386v9.6H360.84V127h23.5v9.27h-23.5v9.27H386v9.6H350.58Z" transform="translate(-13.09 -12.84)" />
</svg>
