<?xml version="1.0" encoding="utf-8"?>
<svg version="1.1" id="Layer_1" xmlns="http://www.w3.org/2000/svg" xmlns:xlink="http://www.w3.org/1999/xlink" x="0px" y="0px" viewBox="0 0 211 89" style="enable-background:new 0 0 211 89;" xml:space="preserve">
  <style type="text/css">
    .st0 {
      fill: #D14A43;
    }

    .st1 {
      fill: #201600;
    }

  </style>
  <path class="st0" d="M49.1,80.1L49.1,80.1L49.1,80.1L49.1,80.1z M63.1,36H39.8l9.3-16.1l4.7,8h9.2L49.1,3.8L26,44h37.2l16.2,28.1
	H62.9L53.7,56c-1.4-2.5-4.1-4-6.9-4H25.9c-2.9,0-5.5,1.5-6.9,4L5.1,80.1h44.1l-4.6-8H18.9l7-12h20.9l11.6,20.1h34.8L70,40
	C68.6,37.5,65.9,36,63.1,36z" />
  <g>
    <path class="st1" d="M82.8,27.9h4.1v18.3h-4.1V27.9z" />
    <path class="st1" d="M103.2,46.2l-8.9-10.9v10.9h-3.9V27.9h3.1l8.9,10.9V27.9h3.9v18.3H103.2z" />
    <path class="st1" d="M108.1,27.9h15.8v3.8H118v14.5h-4.1V31.7h-5.9V27.9z" />
    <path class="st1" d="M125.5,27.9h14v3.8h-9.9v3.4h9.3v3.7h-9.3v3.7h10.2v3.8h-14.2V27.9z" />
    <path class="st1" d="M142.5,46.2V27.9h7.4c5.8,0,7.4,2.9,7.4,6c0,2.4-1.4,4.5-3.6,5.4l5.1,7h-4.9l-4.5-6.2h-2.9v6.2H142.5z
		 M146.6,31.7v4.5h3.4c2,0,3.1-0.8,3.1-2.3c0-1.3-0.7-2.2-3.3-2.2H146.6z" />
    <path class="st1" d="M160.7,27.9h4.1v18.3h-4.1V27.9z" />
    <path class="st1" d="M176.8,27.6c5.2,0,9.4,4,9.4,9.5c0,5.4-4.2,9.5-9.4,9.5s-9.4-4-9.4-9.5C167.3,31.8,171.5,27.6,176.8,27.6z
		 M176.8,42.6c2.9,0,5.2-2.1,5.2-5.5c0-3.4-2.5-5.5-5.2-5.5c-2.8,0-5.2,2.1-5.2,5.5C171.5,40.5,174,42.6,176.8,42.6z" />
    <path class="st1" d="M188.7,46.2V27.9h7.4c5.8,0,7.4,2.9,7.4,6c0,2.4-1.4,4.5-3.6,5.4l5.1,7h-4.9l-4.5-6.2h-2.9v6.2H188.7z
		 M192.7,31.7v4.5h3.4c2,0,3.1-0.8,3.1-2.3c0-1.3-0.7-2.2-3.3-2.2H192.7z" />
  </g>
  <g>
    <path class="st1" d="M102.4,80.1V55.3h10.3c8.5,0,10.5,4.5,10.5,8.6c0,4.2-2.7,8.5-10.5,8.5h-4.8v7.8H102.4z M107.9,60.4v6.7h4.7
		c3.4,0,4.9-1.3,4.9-3.4c0-2-1.2-3.4-4.7-3.4H107.9z" />
    <path class="st1" d="M126.4,80.1V55.3h10c7.9,0,10,4,10,8.1c0,3.2-1.9,6.1-4.9,7.3l6.9,9.5H142l-6.1-8.5h-3.9v8.5H126.4z
		 M131.9,60.4v6.1h4.7c2.7,0,4.2-1.1,4.2-3.1c0-1.8-0.9-2.9-4.4-2.9H131.9z" />
    <path class="st1" d="M151.1,55.3h5.5v24.9h-5.5V55.3z" />
    <path class="st1" d="M183.4,75.5c-2.2,3.3-6.2,5.1-10.6,5.1c-7.7,0-12.7-5.1-12.7-12.9c0-7.1,5.1-12.9,12.9-12.9
		c4.5,0,8.3,1.9,10,4.7l-3.7,3.4c-1.5-1.8-3.9-2.8-5.9-2.8c-4.4,0-7.5,2.9-7.5,7.5c0,4.5,3.2,7.5,7.5,7.5c2.8,0,5.1-1.2,6.9-3.3
		L183.4,75.5z" />
    <path class="st1" d="M186.1,55.3h19v5.1h-13.5v4.6h12.6v5h-12.6v5h13.5v5.1h-19V55.3z" />
  </g>
</svg>
