<?xml version="1.0" encoding="utf-8"?>
<!-- Generator: Adobe Illustrator 23.0.3, SVG Export Plug-In . SVG Version: 6.00 Build 0)  -->
<svg version="1.1" id="Layer_1" xmlns="http://www.w3.org/2000/svg" xmlns:xlink="http://www.w3.org/1999/xlink" x="0px" y="0px" viewBox="0 0 120 72" style="enable-background:new 0 0 120 72;" xml:space="preserve">
  <style type="text/css">
    .st0 {
      fill: #4B774F;
    }

  </style>
  <g>
    <g>
      <path d="M65.1,44.2L62.5,39h-1.8v5.2h-2.6V31.1h5.1c2.5,0,4.3,1.7,4.3,4c0,1.1-0.4,2-1.1,2.7c-0.3,0.3-0.6,0.5-1.3,0.8l2.9,5.7
			C68,44.2,65.1,44.2,65.1,44.2z M63.1,36.9c1.1,0,1.9-0.7,1.9-1.7s-0.8-1.7-1.9-1.7h-2.4V37L63.1,36.9L63.1,36.9z" />
      <path d="M79.6,39.7c0,2.7-2,4.6-4.8,4.6S70,42.4,70,39.7v-8.6h2.6v8.5c0,1.5,0.9,2.4,2.3,2.4s2.3-0.9,2.3-2.4v-8.5h2.5
			C79.6,31.1,79.6,39.7,79.6,39.7z" />
      <path d="M88,33.5c-0.4-0.2-1-0.3-1.6-0.3c-1.3,0-2.2,0.6-2.2,1.6c0,0.8,0.6,1.3,1.6,1.5l1.6,0.2c2.4,0.3,3.5,1.5,3.5,3.8
			c0,2.5-1.9,4-5.1,4c-1,0-2-0.2-2.8-0.5c-0.7-0.3-1-0.5-1.8-1.2l1.7-1.7c0.5,0.4,0.7,0.6,1.1,0.8c0.6,0.2,1.2,0.3,2,0.3
			c1.5,0,2.3-0.5,2.3-1.6c0-0.9-0.5-1.4-1.6-1.5l-1.6-0.2c-2.3-0.3-3.5-1.5-3.5-3.6c0-2.5,1.8-4,4.7-4c0.9,0,1.7,0.2,2.4,0.4
			c0.6,0.2,1,0.5,1.7,1.1l-1.6,1.6C88.6,33.8,88.4,33.7,88,33.5z" />
      <path d="M98.8,33.5c-0.4-0.2-1-0.3-1.6-0.3c-1.3,0-2.2,0.6-2.2,1.6c0,0.8,0.6,1.3,1.6,1.5l1.6,0.2c2.4,0.3,3.5,1.5,3.5,3.8
			c0,2.5-1.9,4-5.1,4c-1,0-2-0.2-2.8-0.5c-0.7-0.3-1-0.5-1.8-1.2l1.7-1.7c0.5,0.4,0.7,0.6,1.1,0.8c0.6,0.2,1.2,0.3,2,0.3
			c1.5,0,2.3-0.5,2.3-1.6c0-0.9-0.5-1.4-1.6-1.5l-1.6-0.2c-2.3-0.3-3.5-1.5-3.5-3.6c0-2.5,1.8-4,4.7-4c0.9,0,1.7,0.2,2.4,0.4
			c0.6,0.2,1,0.5,1.7,1.1l-1.6,1.6C99.4,33.8,99.2,33.7,98.8,33.5z" />
      <path d="M104.2,44.2V31.1h2.6v13.1H104.2z" />
      <path d="M117.2,44.2l-0.8-2.3h-4.7l-0.8,2.3h-2.7l4.8-13.1h2l4.8,13.1H117.2z M114.2,35l-1.7,4.8h3.3L114.2,35z" />
    </g>
  </g>
  <g>
    <path d="M58.1,27.9V8.2h4.8v15.3h5.6v4.3L58.1,27.9L58.1,27.9z" />
    <path d="M86.4,27.9h-3.9l-3.2-9.7l-3.2,9.7h-3.9L66.8,8.2h5.1l2.6,10.4l3.1-10.4H81l3.2,10.4l2.5-10.4h5.1L86.4,27.9z" />
    <path d="M109.1,8.2h-3.9l-3.2,9.7l-3.2-9.7h-3.9l-5.4,19.6h5.1l2.6-10.4l3.2,10.4h3.4l3.2-10.4l2.6,10.4h5.1L109.1,8.2z" />
  </g>
  <path class="st0" d="M26.1,0c-4.7,3.2-7.8,8.6-7.8,14.7c0,5.8,2.8,10.9,7.1,14.2l0.7-17.2l0.7,17.2c4.3-3.2,7.1-8.4,7.1-14.2
	C34,8.5,30.9,3.1,26.1,0z" />
  <path class="st0" d="M38.2,20.7c-4.2,2-6.9,5.7-8,9.9c2.7-1.9,7.6-5.1,13.2-6.5c-6.3,2.6-10.3,5.6-13.2,8.1
	c4.1,2.2,9.2,2.5,13.7,0.3c4.6-2.3,7.6-6.6,8.2-11.4C48.1,18.8,42.8,18.4,38.2,20.7z" />
  <path class="st0" d="M9,24.1c5.4,1.4,10.3,4.4,13,6.4c-1-4.1-3.8-7.8-7.9-9.8c-4.6-2.3-9.9-1.9-14,0.5c0.6,4.8,3.6,9.1,8.2,11.4
	c4.6,2.2,9.7,1.9,13.8-0.4C19.2,29.7,15.2,26.7,9,24.1z" />
  <path class="st0" d="M36.2,35.8c-0.5-0.2-1.1-0.1-1.6,0.1c-0.5,0.2-1,0.3-1.6,0.2c-1.8-0.5-3.5-1.3-6.9-1.3c-3.3,0-5,0.9-6.9,1.3
	c-0.1,0-0.2,0-0.2,0c0.6,0.9,1.5,1.5,2.7,1.6c2.1,0.1,4.8-0.2,5,1.7c-4,1.4-7.1-0.1-8.8-1.9c-1-1.1-2.5-1.5-3.9-0.9l0,0
	c2.5,4.6,6.9,7.8,12.1,8.5c5.3-0.8,9.7-3.9,12.1-8.5C37.6,36.2,36.9,36,36.2,35.8z" />
  <g>
    <path class="st0" d="M3.3,68.9v3H2.2v-3L0,64.6h1.2l1.5,3.2l1.5-3.2h1.2L3.3,68.9z" />
    <path class="st0" d="M10.7,71.2C10.2,71.7,9.5,72,8.8,72c-0.8,0-1.4-0.3-1.9-0.8c-0.8-0.7-0.8-1.8-0.8-2.9v-0.4
		c0-1.2,0.1-2,0.7-2.6c0.5-0.5,1.2-0.8,1.9-0.8c0.8,0,1.4,0.3,1.9,0.8c0.6,0.6,0.7,1.4,0.7,2.4v0.5C11.4,69.5,11.4,70.4,10.7,71.2z
		 M9.8,66c-0.3-0.3-0.7-0.4-1.1-0.4S7.9,65.8,7.6,66c-0.4,0.4-0.4,1.2-0.4,2.2c0,0.9-0.1,1.8,0.4,2.3c0.3,0.3,0.7,0.4,1.1,0.4
		s0.8-0.2,1.1-0.4c0.4-0.4,0.4-1.1,0.4-2.3C10.3,67.1,10.2,66.4,9.8,66z" />
    <path class="st0" d="M15.5,72c-1.5,0-2.6-1.1-2.6-2.5v-4.8H14v4.8c0,1,0.6,1.6,1.5,1.6c0.9,0,1.5-0.6,1.5-1.6v-4.8h1.1v4.8
		C18.2,70.9,17.1,72,15.5,72z" />
    <path class="st0" d="M24,71.9l-1.5-3.1h-1.4v3.1H20v-7.3h2.8c1.3,0,2.3,0.9,2.3,2.1c0,0.6-0.2,1.1-0.7,1.5
		c-0.2,0.2-0.4,0.3-0.8,0.4l1.7,3.2C25.3,71.9,24,71.9,24,71.9z M22.7,65.6h-1.6v2.3h1.6c0.8,0,1.2-0.4,1.2-1.1
		C23.9,66,23.5,65.6,22.7,65.6z" />
    <path class="st0" d="M30.2,65.6v2.2h3v1h-3v3.1h-1.1v-7.3h4.7v1L30.2,65.6L30.2,65.6z" />
    <path class="st0" d="M35.1,71.9v-7.3h1.1v7.3H35.1z" />
    <path class="st0" d="M42.6,71.9l-3.4-5.1v5.1h-1.1v-7.3h1l3.4,5.1v-5.1h1.1v7.3H42.6z" />
    <path class="st0" d="M49.7,71.9l-0.5-1.5h-2.9l-0.5,1.5h-1.2l2.7-7.3h0.9l2.7,7.3H49.7z M47.8,66.3l-1.1,3.2H49L47.8,66.3z" />
    <path class="st0" d="M56.4,71.9L53,66.8v5.1h-1.1v-7.3h1l3.4,5.1v-5.1h1.1v7.3H56.4z" />
    <path class="st0" d="M62.8,71.8c-0.3,0.1-0.7,0.2-1.1,0.2c-0.8,0-1.4-0.3-1.9-0.8c-0.7-0.7-0.7-1.7-0.7-2.9V68c0-1.3,0.1-2,0.7-2.6
		c0.5-0.5,1.2-0.8,1.9-0.8c0.4,0,0.8,0.1,1.1,0.2c0.3,0.1,0.6,0.3,0.9,0.7L63,66.2c-0.4-0.4-0.8-0.6-1.3-0.6c-0.4,0-0.8,0.2-1.1,0.4
		c-0.4,0.4-0.4,1.2-0.4,2.2v0.3c0,1.2,0.1,1.7,0.4,2s0.6,0.4,1.1,0.4s0.9-0.2,1.3-0.6l0.7,0.8C63.3,71.4,63.1,71.6,62.8,71.8z" />
    <path class="st0" d="M65.2,71.9v-7.3h1.1v7.3H65.2z" />
    <path class="st0" d="M72.4,71.9l-0.5-1.5H69l-0.5,1.5h-1.2l2.7-7.3h0.9l2.7,7.3H72.4z M70.5,66.3l-1.1,3.2h2.3L70.5,66.3z" />
    <path class="st0" d="M74.6,71.9v-7.3h1.1v6.3h3.5v1H74.6L74.6,71.9z" />
    <path class="st0" d="M84.1,65.6v2.2h3v1h-3v3.1H83v-7.3h4.7v1L84.1,65.6L84.1,65.6z" />
    <path class="st0" d="M91.5,72c-1.5,0-2.6-1.1-2.6-2.5v-4.8H90v4.8c0,1,0.6,1.6,1.5,1.6s1.5-0.6,1.5-1.6v-4.8h1.1v4.8
		C94.1,70.9,93,72,91.5,72z" />
    <path class="st0" d="M98.3,65.6v6.3h-1.1v-6.3h-2v-1h5.1v1H98.3z" />
    <path class="st0" d="M104.1,72c-1.5,0-2.6-1.1-2.6-2.5v-4.8h1.1v4.8c0,1,0.6,1.6,1.5,1.6s1.5-0.6,1.5-1.6v-4.8h1.1v4.8
		C106.7,70.9,105.6,72,104.1,72z" />
    <path class="st0" d="M112.6,71.9l-1.5-3.1h-1.4v3.1h-1.1v-7.3h2.8c1.3,0,2.3,0.9,2.3,2.1c0,0.6-0.2,1.1-0.7,1.5
		c-0.2,0.2-0.4,0.3-0.8,0.4l1.7,3.2C113.8,71.9,112.6,71.9,112.6,71.9z M111.3,65.6h-1.6v2.3h1.6c0.8,0,1.2-0.4,1.2-1.1
		C112.5,66,112,65.6,111.3,65.6z" />
    <path class="st0" d="M115.3,71.9v-7.3h4.7v1h-3.6v2.1h3v1h-3v2.2h3.6v1L115.3,71.9L115.3,71.9z" />
  </g>
  <path class="st0" d="M35.4,61.4c-0.5,0.5-0.8,1.2-0.7,1.9c0.2-0.4,0.6-1,1.7-1.5c-0.8,0.7-1.4,1.8-1.3,1.8c0.6,0.1,1.3,0,1.8-0.5
	c0.6-0.5,1.1-1.6,1-2.4C36.7,60.5,36,60.8,35.4,61.4z" />
</svg>
