<svg id="Layer_1" data-name="Layer 1" xmlns="http://www.w3.org/2000/svg" viewBox="0 0 146 146"><defs><style>.cls-1{fill:#c75049;}.cls-2{fill:#47433d;}</style></defs><title>ic1</title><path class="cls-1" d="M102.93,176.5a73,73,0,1,1,73-73A73.09,73.09,0,0,1,102.93,176.5Zm0-136a63,63,0,1,0,63,63A63.07,63.07,0,0,0,102.93,40.5Z" transform="translate(-29.93 -30.5)"/><path class="cls-1" d="M102.93,159.5a56,56,0,1,1,56-56A56.06,56.06,0,0,1,102.93,159.5Zm0-109.33a53.33,53.33,0,1,0,53.34,53.33A53.39,53.39,0,0,0,102.93,50.17Z" transform="translate(-29.93 -30.5)"/><path class="cls-2" d="M97.12,100.84H89.5a13,13,0,0,1-13-13v-14a13,13,0,0,1,13-13h7.62a13,13,0,0,1,13,13v14A13,13,0,0,1,97.12,100.84ZM89.5,65.55a8.3,8.3,0,0,0-8.29,8.29v14a8.3,8.3,0,0,0,8.29,8.29h7.62a8.3,8.3,0,0,0,8.29-8.29v-14a8.3,8.3,0,0,0-8.29-8.29Z" transform="translate(-29.93 -30.5)"/><rect class="cls-2" x="43.33" y="47.23" width="40.1" height="4.67"/><path class="cls-2" d="M124.51,141h-4.66V112.74a7.55,7.55,0,0,0-4.28-6.79l-12.84-6.14,2-4.21,12.84,6.14a12.25,12.25,0,0,1,6.93,11Z" transform="translate(-29.93 -30.5)"/><path class="cls-2" d="M116.36,100.84H105.74V96.17h10.62a8.3,8.3,0,0,0,8.3-8.29v-14a8.3,8.3,0,0,0-8.3-8.29H97.72V60.89h18.64a13,13,0,0,1,13,13v14A13,13,0,0,1,116.36,100.84Z" transform="translate(-29.93 -30.5)"/><rect class="cls-2" x="83.02" y="47.23" width="19.65" height="4.67"/><path class="cls-2" d="M143.76,125.53h-4.67V112.74a7.55,7.55,0,0,0-4.28-6.79L122,99.81l2-4.21,12.84,6.14a12.25,12.25,0,0,1,6.93,11Z" transform="translate(-29.93 -30.5)"/><path class="cls-2" d="M66.77,125.93H62.11V113.14a12.25,12.25,0,0,1,6.93-11L81.88,96l2,4.21-12.84,6.14a7.56,7.56,0,0,0-4.28,6.79Z" transform="translate(-29.93 -30.5)"/><path class="cls-2" d="M98,133.45a3.8,3.8,0,0,0-1-2.75,9.27,9.27,0,0,0-3.52-1.95,28.13,28.13,0,0,1-3.82-1.61,7.78,7.78,0,0,1-4.55-7.22,7.45,7.45,0,0,1,2-5.33,8.36,8.36,0,0,1,5.35-2.48v-4.26h3.12v4.29a7.78,7.78,0,0,1,5.26,2.88,9.92,9.92,0,0,1,1.85,6.22H97.92a6.1,6.1,0,0,0-1.11-3.87,3.57,3.57,0,0,0-3-1.42,4,4,0,0,0-2.93,1,3.81,3.81,0,0,0-1.06,2.91,3.62,3.62,0,0,0,1,2.72,10.07,10.07,0,0,0,3.54,1.94,31.06,31.06,0,0,1,3.93,1.7,10,10,0,0,1,2.4,1.79,7.08,7.08,0,0,1,1.5,2.31,8.22,8.22,0,0,1,.53,3.07,7.33,7.33,0,0,1-2,5.35,9,9,0,0,1-5.64,2.42V145H92V141.2a9,9,0,0,1-6-2.77A9.07,9.07,0,0,1,84,132.22h4.75A5.37,5.37,0,0,0,90,136a4.51,4.51,0,0,0,3.5,1.35,4.84,4.84,0,0,0,3.39-1.07A3.69,3.69,0,0,0,98,133.45Z" transform="translate(-29.93 -30.5)"/></svg>