<svg id="Layer_1" data-name="Layer 1" xmlns="http://www.w3.org/2000/svg" viewBox="0 0 146 146"><defs><style>.cls-1{fill:#c75049;}.cls-2{fill:#47433d;}.cls-3{fill:#fff;}</style></defs><title>ic2</title><path class="cls-1" d="M96.91,172.83a73,73,0,1,1,73-73A73.09,73.09,0,0,1,96.91,172.83Zm0-136a63,63,0,1,0,63,63A63.08,63.08,0,0,0,96.91,36.83Z" transform="translate(-23.91 -26.83)"/><path class="cls-1" d="M96.91,155.83a56,56,0,1,1,56-56A56.07,56.07,0,0,1,96.91,155.83Zm0-109.33a53.34,53.34,0,1,0,53.34,53.33A53.39,53.39,0,0,0,96.91,46.5Z" transform="translate(-23.91 -26.83)"/><path class="cls-2" d="M91.1,97.17H83.48a13,13,0,0,1-13-13v-14a13,13,0,0,1,13-13H91.1a13,13,0,0,1,13,13v14A13,13,0,0,1,91.1,97.17ZM83.48,61.89a8.3,8.3,0,0,0-8.29,8.29v14a8.3,8.3,0,0,0,8.29,8.29H91.1a8.3,8.3,0,0,0,8.29-8.29v-14a8.3,8.3,0,0,0-8.29-8.29Z" transform="translate(-23.91 -26.83)"/><rect class="cls-2" x="48.94" y="47.23" width="28.87" height="4.67"/><rect class="cls-2" x="43.12" y="30.39" width="59.16" height="4.67"/><path class="cls-2" d="M118.49,137.34h-4.66V109.07a7.56,7.56,0,0,0-4.28-6.79L96.71,96.14l2-4.21,12.84,6.14a12.25,12.25,0,0,1,6.93,11Z" transform="translate(-23.91 -26.83)"/><path class="cls-2" d="M110.35,97.17H99.72V92.5h10.63a8.3,8.3,0,0,0,8.29-8.29v-14a8.3,8.3,0,0,0-8.29-8.29H91.7V57.22h18.65a13,13,0,0,1,13,13v14A13,13,0,0,1,110.35,97.17Z" transform="translate(-23.91 -26.83)"/><rect class="cls-2" x="77.41" y="47.23" width="19.65" height="4.67"/><path class="cls-2" d="M137.74,121.87h-4.67v-12.8a7.56,7.56,0,0,0-4.28-6.79L116,96.14l2-4.21,12.84,6.14a12.25,12.25,0,0,1,6.93,11Z" transform="translate(-23.91 -26.83)"/><path class="cls-2" d="M60.76,122.27H56.09v-12.8a12.25,12.25,0,0,1,6.93-11l12.84-6.14,2,4.21L65,102.68a7.55,7.55,0,0,0-4.27,6.79Z" transform="translate(-23.91 -26.83)"/><path class="cls-2" d="M87,135.54l-10.93-43H98ZM82.11,97.17,87,116.59,92,97.17Z" transform="translate(-23.91 -26.83)"/><circle class="cls-3" cx="63.13" cy="96.54" r="9.81"/><path class="cls-2" d="M87,135.51a12.14,12.14,0,1,1,12.14-12.14A12.16,12.16,0,0,1,87,135.51Zm0-19.61a7.47,7.47,0,1,0,7.48,7.47A7.48,7.48,0,0,0,87,115.9Z" transform="translate(-23.91 -26.83)"/></svg>