<svg id="Layer_1" data-name="Layer 1" xmlns="http://www.w3.org/2000/svg" viewBox="0 0 75.77 95.56"><defs><style>.cls-1{fill:#47433d;}.cls-2{fill:#c75049;}.cls-3{fill:#fff;}</style></defs><title>ic3</title><path class="cls-1" d="M136.27,139.11H80.7V95.29h55.57ZM85.21,134.6h46.55V99.8H85.21Z" transform="translate(-60.5 -43.54)"/><path class="cls-2" d="M83,80.33A11.16,11.16,0,0,1,82.56,58a17.82,17.82,0,1,1,17.51,21.18,17.67,17.67,0,0,1-9-2.41A11.22,11.22,0,0,1,83,80.33Zm0-17.82a6.66,6.66,0,1,0,5.71,10.06L90,70.4l2,1.54a13.32,13.32,0,1,0-5.19-11.4l-.16,2.52-2.49-.44A6.15,6.15,0,0,0,83,62.51Z" transform="translate(-60.5 -43.54)"/><path class="cls-2" d="M124.91,117.84H96.55l-2.62-13h31Zm-24.67-4.5h20.17v-4h-21Z" transform="translate(-60.5 -43.54)"/><polygon class="cls-3" points="42.16 93.31 2.75 93.31 13.32 40.84 31.59 40.84 42.16 93.31"/><path class="cls-1" d="M105.41,139.11H60.5L72,82.13h22ZM66,134.6h33.9l-9.66-48H75.67Z" transform="translate(-60.5 -43.54)"/><path class="cls-1" d="M94.31,99.8H71.17a2.26,2.26,0,0,1,0-4.51H94.31a2.26,2.26,0,1,1,0,4.51Z" transform="translate(-60.5 -43.54)"/><path class="cls-1" d="M97.38,112.92H68.53a2.25,2.25,0,0,1,0-4.5H97.38a2.25,2.25,0,1,1,0,4.5Z" transform="translate(-60.5 -43.54)"/><path class="cls-1" d="M100,126.05H65.82a2.26,2.26,0,0,1,0-4.51H100a2.26,2.26,0,0,1,0,4.51Z" transform="translate(-60.5 -43.54)"/></svg>