<svg id="Layer_1" data-name="Layer 1" xmlns="http://www.w3.org/2000/svg" viewBox="0 0 74.67 77.19"><defs><style>.cls-1{fill:#47433d;}.cls-2{fill:#c75049;}</style></defs><title>ic4</title><path class="cls-1" d="M84.29,83.64H32L27.83,53.29l57.86-9,2.17-14.35h12.39a2.26,2.26,0,1,1,0,4.51H91.74Zm-48.35-4.5H80.42L85,49,32.9,57.06Z" transform="translate(-27.83 -29.94)"/><polygon class="cls-1" points="55.02 64.76 23.64 64.76 23.64 60.25 51.08 60.25 52.62 48.9 57.09 49.51 55.02 64.76"/><path class="cls-2" d="M51.47,107.13a8.47,8.47,0,1,1,8.47-8.47A8.48,8.48,0,0,1,51.47,107.13Zm0-12.43a4,4,0,1,0,4,4A4,4,0,0,0,51.47,94.7Z" transform="translate(-27.83 -29.94)"/><path class="cls-2" d="M76.47,107.13a8.47,8.47,0,1,1,8.47-8.47A8.48,8.48,0,0,1,76.47,107.13Zm0-12.43a4,4,0,1,0,4,4A4,4,0,0,0,76.47,94.7Z" transform="translate(-27.83 -29.94)"/><rect class="cls-1" x="51.9" y="63.22" width="32.43" height="4.51" transform="translate(-26.87 102) rotate(-88.58)"/><rect class="cls-1" x="46.95" y="52.27" width="4.51" height="29.15" transform="matrix(1, -0.06, 0.06, 1, -31.92, -26.73)"/></svg>