<svg id="Layer_1" data-name="Layer 1" xmlns="http://www.w3.org/2000/svg" viewBox="0 0 65.71 77.44"><defs><style>.cls-1{fill:#c75049;}.cls-2{fill:#fff;}.cls-3{fill:#47433d;}</style></defs><title>ic6</title><rect class="cls-1" x="30.6" y="32.71" width="4.51" height="44.73"/><path class="cls-2" d="M17.63,43.65H48.07a7.45,7.45,0,0,1,7.45,7.45v4a0,0,0,0,1,0,0H10.19a0,0,0,0,1,0,0v-4A7.45,7.45,0,0,1,17.63,43.65Z"/><path class="cls-3" d="M87.67,87.86H42.33a2.25,2.25,0,0,1-2.25-2.25v-4a9.71,9.71,0,0,1,9.7-9.7H80.22a9.71,9.71,0,0,1,9.7,9.7v4A2.25,2.25,0,0,1,87.67,87.86Zm-43.08-4.5H85.41V81.64a5.2,5.2,0,0,0-5.19-5.2H49.78a5.2,5.2,0,0,0-5.19,5.2Z" transform="translate(-32.15 -30.55)"/><path class="cls-1" d="M82.72,108h-4.5v-4.12c0-1-1.17-1.87-2.55-1.87H54.32c-1.37,0-2.54.85-2.54,1.87V108h-4.5v-4.12c0-3.52,3.16-6.38,7-6.38H75.67c3.89,0,7,2.86,7,6.38Z" transform="translate(-32.15 -30.55)"/><path class="cls-3" d="M87.67,87.86a2.25,2.25,0,0,1-2.26-2.25c0-11.08,2.75-20.11,8.39-27.62a2.25,2.25,0,1,1,3.6,2.71c-5,6.7-7.48,14.85-7.48,24.91A2.25,2.25,0,0,1,87.67,87.86Z" transform="translate(-32.15 -30.55)"/><path class="cls-3" d="M42.33,87.86a2.25,2.25,0,0,1-2.25-2.25c0-10.06-2.45-18.21-7.48-24.91A2.25,2.25,0,1,1,36.2,58c5.64,7.51,8.39,16.54,8.39,27.62A2.25,2.25,0,0,1,42.33,87.86Z" transform="translate(-32.15 -30.55)"/><path class="cls-3" d="M81.42,65.51H48.58a5.6,5.6,0,0,1-5.8-5.05l-.86-15.62a12.62,12.62,0,0,1,3.56-9.39,16.4,16.4,0,0,1,11.92-4.9H72.6a16.36,16.36,0,0,1,11.91,4.9,12.59,12.59,0,0,1,3.57,9.39l-.86,15.62A5.6,5.6,0,0,1,81.42,65.51Zm-24-30.46a11.86,11.86,0,0,0-8.64,3.5,8.13,8.13,0,0,0-2.34,6.05l.85,15.62c0,.37.59.78,1.31.78H81.42c.72,0,1.28-.41,1.3-.78l.86-15.62a8.13,8.13,0,0,0-2.34-6.05,11.86,11.86,0,0,0-8.64-3.5Z" transform="translate(-32.15 -30.55)"/></svg>