<?xml version="1.0" encoding="utf-8"?>
<!-- Generator: Adobe Illustrator 23.0.3, SVG Export Plug-In . SVG Version: 6.00 Build 0)  -->
<svg id="Layer_1" data-name="Layer 1" xmlns="http://www.w3.org/2000/svg" viewBox="0 0 222 71.09">
  <defs>
    <style>
      .cls-1 {
        fill: #C83834;
      }

      .cls-2 {
        fill: #4D4D4D;
      }

      .cls-3 {
        fill: #1A1A1A;
      }

    </style>
  </defs>
  <title>logo</title>
  <path class="cls-1" d="M33.55,29.64,24.23,64.81A24.86,24.86,0,0,1,13.59,44.38a27.85,27.85,0,0,1,7-18.59c3.29-3.6,12.86-14.49,12.86-14.49a33.49,33.49,0,0,0-11.5,62.21l-1.16,4.36,16.36,0L49.91,29.66Z" transform="translate(-5 -6.8)" />
  <path class="cls-2" d="M53.88,14.67,55.7,6.8H43.08L29.45,23.23l22.15,0A24.89,24.89,0,0,1,45,68.43l-2.5,9.22a33.48,33.48,0,0,0,11.39-63" transform="translate(-5 -6.8)" />
  <polygon class="cls-3" points="79.18 19.88 102.34 19.9 97.95 44.76 91.18 44.75 94.64 25.07 85.06 25.07 81.6 44.74 74.79 44.74 79.18 19.88" />
  <polygon class="cls-3" points="107.45 19.91 125.17 19.92 124.28 24.95 113.36 24.94 112.55 29.6 122.28 29.61 121.42 34.5 111.69 34.49 110.72 39.74 122.27 39.75 121.38 44.78 103.06 44.77 107.45 19.91" />
  <path class="cls-3" d="M134.61,26.73h10.33c4.88,0,8.13,3.08,8.13,7.59,0,5.44-4.52,9.62-10.48,9.61h-4.48l-1.37,7.65h-6.52Zm4.4,12h3.07c2.62,0,4.36-1.59,4.37-3.88,0-1.81-1.33-3-3.41-3H140.2Z" transform="translate(-5 -6.8)" />
  <path class="cls-3" d="M157.89,26.75H169c4.77,0,7.47,2.34,7.47,6.15a6.42,6.42,0,0,1-3.63,5.84A5.84,5.84,0,0,1,175.33,44c0,4.33-4.07,7.66-9.36,7.65H153.5Zm3,20h4.26a3.29,3.29,0,0,0,3.55-3.26c0-1.44-1-2.4-2.73-2.4h-4.11Zm1.71-10h4.07a3,3,0,0,0,3.15-2.85,2.17,2.17,0,0,0-2.44-2.22h-3.85Z" transform="translate(-5 -6.8)" />
  <path class="cls-3" d="M189.41,26.78h6.25l5.6,24.87h-6.4l-1-5h-9.36l-2.71,5h-6.92Zm-2.2,14.94H193l-1.47-7.88Z" transform="translate(-5 -6.8)" />
  <path class="cls-3" d="M217.55,43.42h-2l-6.48,8.24h-7.59l7.71-9.31a6.74,6.74,0,0,1-3.73-6.22c0-5.26,4.56-9.32,10.25-9.32H227l-4.39,24.86H216.1Zm2-11.43h-3.33c-2.48,0-4.07,1.48-4.07,3.59,0,1.63,1.1,2.66,3.1,2.67h3.22Z" transform="translate(-5 -6.8)" />
  <path class="cls-3" d="M84.87,57.59a6.05,6.05,0,0,1,3.31,1L87,60.31a3.72,3.72,0,0,0-2.12-.75,3.14,3.14,0,0,0-3,3.44,2,2,0,0,0,2.2,2.06,4.79,4.79,0,0,0,2.22-.69l.75,1.7a6.81,6.81,0,0,1-3.49,1c-2.46,0-4.22-1.45-4.22-3.73a5.46,5.46,0,0,1,5.5-5.71" transform="translate(-5 -6.8)" />
  <polygon class="cls-3" points="84.58 50.96 91.08 50.96 90.75 52.81 86.75 52.8 86.45 54.51 90.02 54.51 89.7 56.3 86.14 56.3 85.78 58.23 90.01 58.23 89.69 60.07 82.97 60.07 84.58 50.96" />
  <polygon class="cls-3" points="94.25 52.86 91.67 52.86 92.02 50.96 99.65 50.97 99.31 52.87 96.73 52.87 95.47 60.08 92.98 60.08 94.25 52.86" />
  <polygon class="cls-3" points="100.83 50.97 107.33 50.98 107 52.82 103 52.82 102.7 54.53 106.27 54.53 105.95 56.32 102.39 56.32 102.03 58.24 106.27 58.24 105.94 60.09 99.22 60.08 100.83 50.97" />
  <path class="cls-3" d="M114,57.78H118c1.75,0,2.74.86,2.74,2.26a2.33,2.33,0,0,1-1.33,2.14,2.15,2.15,0,0,1,.94,1.91c0,1.59-1.5,2.81-3.44,2.81h-4.57Zm1.1,7.33h1.56a1.21,1.21,0,0,0,1.31-1.2.89.89,0,0,0-1-.88h-1.51Zm.63-3.68h1.49a1.08,1.08,0,0,0,1.16-1,.81.81,0,0,0-.9-.82H116Z" transform="translate(-5 -6.8)" />
  <path class="cls-3" d="M125.52,57.79h2.29l2.05,9.12h-2.34l-.37-1.85h-3.43l-1,1.84h-2.54Zm-.81,5.48h2.12l-.54-2.89Z" transform="translate(-5 -6.8)" />
  <path class="cls-3" d="M135.84,63.89h-.72l-2.38,3H130l2.83-3.42a2.47,2.47,0,0,1-1.37-2.28,3.57,3.57,0,0,1,3.76-3.41h4.12l-1.61,9.12H135.3Zm.73-4.19h-1.22A1.33,1.33,0,0,0,133.86,61c0,.6.4,1,1.14,1h1.18Z" transform="translate(-5 -6.8)" />
  <polygon class="cls-3" points="139.43 51.01 141.82 51.01 141.19 54.52 141.81 54.52 145 51.01 147.78 51.01 143.75 55.34 146.42 60.13 143.73 60.12 141.7 56.39 140.86 56.39 140.21 60.12 137.82 60.12 139.43 51.01" />
  <path class="cls-3" d="M157.45,57.66c2.55,0,4.23,1.47,4.23,3.73a5.43,5.43,0,0,1-5.54,5.71c-2.53,0-4.21-1.47-4.21-3.74a5.42,5.42,0,0,1,5.52-5.7m-1,7.5c1.55,0,2.74-1.51,2.74-3.53a1.83,1.83,0,0,0-1.93-2c-1.55,0-2.74,1.5-2.75,3.52A1.85,1.85,0,0,0,156.4,65.16Z" transform="translate(-5 -6.8)" />
  <polygon class="cls-3" points="158.72 51.02 160.97 51.02 162.76 54.65 165.85 51.03 168.4 51.03 166.8 60.14 164.52 60.14 165.54 54.37 163.07 57.24 161.77 57.24 160.4 54.48 159.41 60.14 157.11 60.14 158.72 51.02" />
  <polygon class="cls-3" points="170.28 51.03 178.77 51.04 177.16 60.15 174.68 60.15 175.95 52.94 172.43 52.94 171.17 60.15 168.67 60.15 170.28 51.03" />
  <path class="cls-3" d="M188.24,57.85h2.29L192.58,67h-2.35l-.36-1.85h-3.43l-1,1.84h-2.54Zm-.81,5.48h2.12L189,60.44Z" transform="translate(-5 -6.8)" />
  <polygon class="cls-3" points="189.92 51.05 192.42 51.05 191.79 54.55 195.32 54.56 195.93 51.06 198.41 51.06 196.81 60.17 194.32 60.17 194.98 56.45 191.47 56.45 190.81 60.17 188.31 60.16 189.92 51.05" />
  <polygon class="cls-3" points="200.29 51.06 202.58 51.06 201.63 56.5 206.51 51.07 208.78 51.07 207.17 60.18 204.89 60.18 205.83 54.74 200.96 60.18 198.68 60.17 200.29 51.06" />
  <path class="cls-3" d="M219.28,64h-.72l-2.37,3h-2.78l2.82-3.42a2.5,2.5,0,0,1-1.37-2.28,3.57,3.57,0,0,1,3.76-3.41h4.13L221.14,67h-2.39Zm.74-4.19H218.8a1.33,1.33,0,0,0-1.49,1.31c0,.6.4,1,1.13,1h1.18Z" transform="translate(-5 -6.8)" />
</svg>
