<?xml version="1.0" encoding="utf-8"?>
<!DOCTYPE svg PUBLIC "-//W3C//DTD SVG 1.1//EN" "http://www.w3.org/Graphics/SVG/1.1/DTD/svg11.dtd">
<svg xmlns="http://www.w3.org/2000/svg" viewBox="0 0 120 45">
  <defs>
    <style>
      .cls-1 {
        fill: #201600;
      }

      .cls-2 {
        fill: #4b774f;
      }

    </style>
  </defs>
  <title>LOGO</title>
  <path class="cls-1" d="M78,57.05,75.4,51.82H73.56v5.23H71V43.93h5.14a4,4,0,0,1,4.26,4,3.49,3.49,0,0,1-1.11,2.65,3.4,3.4,0,0,1-1.29.79l2.93,5.66Zm-2-7.37a1.74,1.74,0,1,0,0-3.47H73.56v3.47Z" transform="translate(-12.92 -12.77)" />
  <path class="cls-1" d="M92.51,52.55a4.84,4.84,0,0,1-9.66,0V43.93h2.56v8.53a2.28,2.28,0,1,0,4.56,0V43.93h2.54Z" transform="translate(-12.92 -12.77)" />
  <path class="cls-1" d="M100.9,46.32a4.68,4.68,0,0,0-1.57-.27c-1.34,0-2.15.61-2.15,1.64,0,.81.57,1.33,1.6,1.47l1.55.22c2.4.35,3.52,1.53,3.52,3.76,0,2.51-1.92,4-5.07,4A7.27,7.27,0,0,1,96,56.65a5.22,5.22,0,0,1-1.77-1.22l1.66-1.66a3.7,3.7,0,0,0,1.14.76,5.23,5.23,0,0,0,2,.35c1.53,0,2.34-.56,2.34-1.64s-.48-1.41-1.56-1.55l-1.59-.22c-2.3-.32-3.48-1.55-3.48-3.63,0-2.49,1.79-4,4.7-4a6.81,6.81,0,0,1,2.43.42,5.09,5.09,0,0,1,1.68,1.11L101.9,47A3,3,0,0,0,100.9,46.32Z" transform="translate(-12.92 -12.77)" />
  <path class="cls-1" d="M111.69,46.32a4.78,4.78,0,0,0-1.57-.27c-1.35,0-2.16.61-2.16,1.64,0,.81.57,1.33,1.61,1.47l1.55.22c2.39.35,3.52,1.53,3.52,3.76,0,2.51-1.92,4-5.07,4a7.23,7.23,0,0,1-2.82-.51A5,5,0,0,1,105,55.43l1.66-1.66a3.7,3.7,0,0,0,1.14.76,5.19,5.19,0,0,0,2,.35c1.53,0,2.34-.56,2.34-1.64s-.48-1.41-1.57-1.55L109,51.47c-2.31-.32-3.49-1.55-3.49-3.63,0-2.49,1.79-4,4.7-4a6.83,6.83,0,0,1,2.44.42,5,5,0,0,1,1.67,1.11L112.68,47A2.89,2.89,0,0,0,111.69,46.32Z" transform="translate(-12.92 -12.77)" />
  <path class="cls-1" d="M117.05,57.05V43.93h2.57V57.05Z" transform="translate(-12.92 -12.77)" />
  <path class="cls-1" d="M130.14,57.05l-.77-2.32H124.7l-.79,2.32h-2.67L126,43.93h2l4.79,13.12Zm-3.06-9.25-1.66,4.77h3.27Z" transform="translate(-12.92 -12.77)" />
  <path class="cls-1" d="M71,40.7V21.05h4.83V36.39h5.62V40.7Z" transform="translate(-12.92 -12.77)" />
  <path class="cls-1" d="M99.3,40.7h-4L92.18,31,89,40.7H85.09L79.68,21.05h5L87.3,31.42l3.17-10.37h3.42l3.17,10.37,2.57-10.37h5.05Z" transform="translate(-12.92 -12.77)" />
  <path class="cls-1" d="M122,21.05h-4l-3.17,9.68-3.18-9.68H107.8L102.39,40.7h5L110,30.32l3.18,10.38h3.42l3.17-10.38,2.57,10.38h5Z" transform="translate(-12.92 -12.77)" />
  <path class="cls-2" d="M39,12.77a17.7,17.7,0,0,0-.76,28.86L39,24.49l.74,17.15A17.7,17.7,0,0,0,39,12.77Z" transform="translate(-12.92 -12.77)" />
  <path class="cls-2" d="M51.06,33.48a14.88,14.88,0,0,0-7.94,9.92,40.6,40.6,0,0,1,13.2-6.53,45.06,45.06,0,0,0-13.17,8.18A14.93,14.93,0,0,0,65.11,34,14.94,14.94,0,0,0,51.06,33.48Z" transform="translate(-12.92 -12.77)" />
  <path class="cls-2" d="M21.86,36.87a40.22,40.22,0,0,1,13,6.39A14.92,14.92,0,0,0,12.92,34,14.92,14.92,0,0,0,35,45,45,45,0,0,0,21.86,36.87Z" transform="translate(-12.92 -12.77)" />
  <path class="cls-2" d="M49.11,48.58a2.16,2.16,0,0,0-1.6.09,2.36,2.36,0,0,1-1.62.18C44,48.38,42.37,47.5,39,47.5s-5,.88-6.86,1.35l-.21,0a3.1,3.1,0,0,0,2.65,1.56c2.11.1,4.81-.17,5,1.71a8.05,8.05,0,0,1-8.83-1.91,3.49,3.49,0,0,0-3.89-.94h0A16.36,16.36,0,0,0,39,57.87a16.15,16.15,0,0,0,12.12-8.55C50.48,49.05,49.8,48.8,49.11,48.58Z" transform="translate(-12.92 -12.77)" />
</svg>
