<svg id="Layer_1" data-name="Layer 1" xmlns="http://www.w3.org/2000/svg" viewBox="0 0 980 460"><defs><style>.cls-1{fill:#d14a43;}.cls-2{fill:#fff;}.cls-3{fill:#666;}</style></defs><title>Untitled-3</title><path class="cls-1" d="M447,123.28a14.82,14.82,0,0,0-29.64,0c0,8.19,14.82,36.23,14.82,36.23S447,131.47,447,123.28Z"/><circle class="cls-2" cx="432.18" cy="123.28" r="6.59"/><path class="cls-3" d="M464.83,80.71h-3.9V88h-1.45V79.52h5.35Z"/><path class="cls-3" d="M466.11,87.21a.87.87,0,0,1,.22-.62.84.84,0,0,1,.67-.25.83.83,0,0,1,.91.87.85.85,0,0,1-.23.6.88.88,0,0,1-.68.25.81.81,0,0,1-.89-.85Z"/><path class="cls-3" d="M483.08,76.6V88h-1.5V77.82H477.5l-.2,4.51a15.3,15.3,0,0,1-.47,3.41,3.31,3.31,0,0,1-1,1.68A2.83,2.83,0,0,1,474,88h-.5V86.74h.32a1.68,1.68,0,0,0,1.11-.47,2.94,2.94,0,0,0,.6-1.34,18.81,18.81,0,0,0,.29-2.81l.23-5.51Z"/><path class="cls-3" d="M491,79.52h1.44V88H491V81.81L487.14,88H485.7V79.52h1.44v6.17Z"/><path class="cls-3" d="M501.72,88h-1.45V80.71h-3.89V88h-1.45V79.52h6.79Z"/><path class="cls-3" d="M507.55,88.13a3.71,3.71,0,0,1-2.8-1.13,4.18,4.18,0,0,1-1.08-3v-.27a5,5,0,0,1,.48-2.24,3.71,3.71,0,0,1,1.35-1.55,3.39,3.39,0,0,1,1.87-.56,3.14,3.14,0,0,1,2.56,1.09,4.69,4.69,0,0,1,.91,3.11v.6h-5.72a3,3,0,0,0,.73,2,2.3,2.3,0,0,0,1.78.77,2.47,2.47,0,0,0,1.29-.32,3,3,0,0,0,.93-.82l.88.68A3.54,3.54,0,0,1,507.55,88.13Zm-.18-7.58a1.9,1.9,0,0,0-1.47.64,3.1,3.1,0,0,0-.74,1.78h4.24v-.11a2.74,2.74,0,0,0-.6-1.71A1.81,1.81,0,0,0,507.37,80.55Z"/><path class="cls-3" d="M512.64,79.52h1.45v7.27H518V79.52h1.45v7.27h1l-.14,3.69H519V88h-6.36Z"/><path class="cls-3" d="M524.63,84.37h-1.06V88h-1.45V79.52h1.45V83.1h.95l2.84-3.58h1.75l-3.34,4.06L529.39,88h-1.84Z"/><path class="cls-3" d="M530.59,90.24l-.82-.57a3.81,3.81,0,0,0,.76-2.11v-1.3H532v1.13a3.54,3.54,0,0,1-.39,1.58A3.73,3.73,0,0,1,530.59,90.24Z"/><path class="cls-3" d="M462.13,105.05l2-6.33h1.55l-3.4,9.76c-.53,1.4-1.36,2.1-2.51,2.1l-.27,0-.54-.1v-1.17l.39,0a1.89,1.89,0,0,0,1.14-.3,2.14,2.14,0,0,0,.68-1.08l.32-.86-3-8.36H460Z"/><path class="cls-3" d="M473.55,98.72v8.45h-1.46V99.91h-2.87l-.17,3.17a7.08,7.08,0,0,1-.73,3.11,2.14,2.14,0,0,1-1.87,1h-.58V105.9l.41,0a1.21,1.21,0,0,0,1-.82,9.34,9.34,0,0,0,.39-2.72l.16-3.61Z"/><path class="cls-3" d="M475.9,106.41a.89.89,0,0,1,.22-.62,1,1,0,0,1,1.34,0,.86.86,0,0,1,.24.62.81.81,0,0,1-.24.6.89.89,0,0,1-1.56-.6Z"/><path class="cls-3" d="M492.63,103.56a4.2,4.2,0,0,1-1.33,2.79,4.39,4.39,0,0,1-3,1,4,4,0,0,1-3.23-1.45,5.8,5.8,0,0,1-1.21-3.87v-1.09a6.44,6.44,0,0,1,.56-2.79,4.23,4.23,0,0,1,1.61-1.85,4.44,4.44,0,0,1,2.4-.64,4.14,4.14,0,0,1,2.91,1,4.25,4.25,0,0,1,1.27,2.8h-1.5a3.26,3.26,0,0,0-.85-2,2.58,2.58,0,0,0-1.83-.61,2.68,2.68,0,0,0-2.25,1.06,4.92,4.92,0,0,0-.82,3v1.1a5,5,0,0,0,.78,3,2.48,2.48,0,0,0,2.16,1.09,2.89,2.89,0,0,0,1.92-.57,3.16,3.16,0,0,0,.89-2Z"/><path class="cls-3" d="M497.22,105.05l2-6.33h1.54l-3.39,9.76c-.53,1.4-1.37,2.1-2.51,2.1l-.28,0-.53-.1v-1.17l.39,0a1.89,1.89,0,0,0,1.14-.3,2.21,2.21,0,0,0,.68-1.08l.32-.86-3-8.36h1.58Z"/><path class="cls-3" d="M502.16,107.17V98.72h3.29a4.66,4.66,0,0,1,2.59.59A1.94,1.94,0,0,1,509,101a1.72,1.72,0,0,1-.36,1.06,2.21,2.21,0,0,1-1,.72,2.28,2.28,0,0,1,1.24.7,1.87,1.87,0,0,1,.46,1.25,2.06,2.06,0,0,1-.86,1.78,4.07,4.07,0,0,1-2.41.62Zm1.44-4.87h1.87c1.35,0,2-.39,2-1.18s-.64-1.2-1.92-1.23h-2Zm0,1.16V106H506a2.29,2.29,0,0,0,1.36-.34,1.1,1.1,0,0,0,.45-.94c0-.85-.62-1.27-1.86-1.27Z"/><path class="cls-3" d="M510.78,102.87a5,5,0,0,1,.49-2.24,3.62,3.62,0,0,1,1.36-1.53,3.69,3.69,0,0,1,2-.54,3.55,3.55,0,0,1,2.79,1.2,4.58,4.58,0,0,1,1.07,3.18v.1a5,5,0,0,1-.48,2.21,3.47,3.47,0,0,1-1.35,1.53,3.77,3.77,0,0,1-2,.55,3.55,3.55,0,0,1-2.78-1.2,4.58,4.58,0,0,1-1.07-3.16Zm1.45.17a3.59,3.59,0,0,0,.66,2.26,2.09,2.09,0,0,0,1.74.85,2.06,2.06,0,0,0,1.75-.87,3.88,3.88,0,0,0,.65-2.41,3.63,3.63,0,0,0-.66-2.26,2.1,2.1,0,0,0-1.75-.86,2.07,2.07,0,0,0-1.73.85A3.92,3.92,0,0,0,512.23,103Z"/><path class="cls-3" d="M527.43,103a5.07,5.07,0,0,1-.88,3.11,2.85,2.85,0,0,1-2.39,1.18,3.12,3.12,0,0,1-2.43-1v4.07h-1.44V98.72h1.32l.07.94a3,3,0,0,1,2.45-1.1,2.87,2.87,0,0,1,2.41,1.15,5.14,5.14,0,0,1,.89,3.2Zm-1.45-.17a3.75,3.75,0,0,0-.6-2.25,2,2,0,0,0-1.68-.83,2.14,2.14,0,0,0-2,1.16v4a2.15,2.15,0,0,0,2,1.16,2,2,0,0,0,1.65-.83A4.06,4.06,0,0,0,526,102.87Z"/><path class="cls-3" d="M528.88,102.87a5.08,5.08,0,0,1,.49-2.24,3.6,3.6,0,0,1,3.35-2.07,3.55,3.55,0,0,1,2.79,1.2,4.58,4.58,0,0,1,1.07,3.18v.1a5.08,5.08,0,0,1-.47,2.21,3.56,3.56,0,0,1-1.36,1.53,3.75,3.75,0,0,1-2,.55,3.55,3.55,0,0,1-2.78-1.2,4.58,4.58,0,0,1-1.07-3.16Zm1.46.17a3.59,3.59,0,0,0,.65,2.26,2.09,2.09,0,0,0,1.74.85,2.06,2.06,0,0,0,1.75-.87,3.88,3.88,0,0,0,.65-2.41,3.63,3.63,0,0,0-.66-2.26,2.1,2.1,0,0,0-1.75-.86,2.07,2.07,0,0,0-1.73.85A3.92,3.92,0,0,0,530.34,103Z"/><path class="cls-3" d="M538.52,107.17V98.72h3.3a4.66,4.66,0,0,1,2.59.59,1.93,1.93,0,0,1,.9,1.73,1.71,1.71,0,0,1-.35,1.06,2.21,2.21,0,0,1-1,.72,2.29,2.29,0,0,1,1.23.7,1.83,1.83,0,0,1,.47,1.25,2.06,2.06,0,0,1-.86,1.78,4.08,4.08,0,0,1-2.42.62ZM540,102.3h1.87c1.35,0,2-.39,2-1.18s-.64-1.2-1.92-1.23h-2Zm0,1.16V106h2.39a2.25,2.25,0,0,0,1.35-.34,1.1,1.1,0,0,0,.45-.94c0-.85-.62-1.27-1.86-1.27Z"/><path class="cls-3" d="M552.75,107.17a3.1,3.1,0,0,1-.2-.89,3.23,3.23,0,0,1-2.41,1,3,3,0,0,1-2-.71,2.3,2.3,0,0,1-.8-1.79,2.38,2.38,0,0,1,1-2,4.72,4.72,0,0,1,2.83-.73h1.4v-.67a1.65,1.65,0,0,0-.45-1.21,1.86,1.86,0,0,0-1.34-.44,2.1,2.1,0,0,0-1.29.39,1.15,1.15,0,0,0-.53.94h-1.45a2,2,0,0,1,.45-1.22,3,3,0,0,1,1.22-.93,4.09,4.09,0,0,1,1.69-.35,3.33,3.33,0,0,1,2.29.73,2.65,2.65,0,0,1,.86,2v3.89a4.75,4.75,0,0,0,.3,1.86v.12Zm-2.4-1.1a2.61,2.61,0,0,0,1.29-.35,2.1,2.1,0,0,0,.88-.92v-1.73h-1.13c-1.77,0-2.66.52-2.66,1.55a1.34,1.34,0,0,0,.46,1.07A1.76,1.76,0,0,0,550.35,106.07Z"/><path class="cls-3" d="M556.19,109.44l-.82-.57a3.73,3.73,0,0,0,.76-2.11v-1.3h1.42v1.13a3.54,3.54,0,0,1-.39,1.58A3.73,3.73,0,0,1,556.19,109.44Z"/><path class="cls-3" d="M563.27,106l.5-.62a5.89,5.89,0,0,0,1-3.28l.13-3.37h5.44V106h1.09v3.67H570v-2.49h-5.9v2.49H562.6V106Zm1.71,0h3.88v-5.94h-2.6l-.09,2A7.06,7.06,0,0,1,565,106Z"/><path class="cls-3" d="M573,106.41a.9.9,0,0,1,.23-.62.82.82,0,0,1,.66-.25.86.86,0,0,1,.68.25.9.9,0,0,1,.23.62.85.85,0,0,1-.23.6.86.86,0,0,1-.68.25.82.82,0,0,1-.66-.25A.85.85,0,0,1,573,106.41Z"/><path class="cls-3" d="M588.47,107.17H581v-1l3.93-4.37a8.74,8.74,0,0,0,1.21-1.62,2.68,2.68,0,0,0,.33-1.28A2,2,0,0,0,586,97.4a1.88,1.88,0,0,0-1.43-.57,2.24,2.24,0,0,0-1.68.61,2.34,2.34,0,0,0-.6,1.71H580.8a3.32,3.32,0,0,1,1-2.54,3.73,3.73,0,0,1,2.71-1,3.61,3.61,0,0,1,2.5.83,2.83,2.83,0,0,1,.93,2.22q0,1.68-2.15,4l-3,3.3h5.71Z"/><path class="cls-3" d="M596.9,98.76a2.64,2.64,0,0,1-.45,1.52,3,3,0,0,1-1.22,1,3.16,3.16,0,0,1,1.41,1.12,2.77,2.77,0,0,1,.52,1.66,3,3,0,0,1-1,2.35,4.36,4.36,0,0,1-5.25,0,3,3,0,0,1-1-2.35,2.92,2.92,0,0,1,.5-1.66,3.15,3.15,0,0,1,1.4-1.13,3,3,0,0,1-1.2-1,2.67,2.67,0,0,1-.43-1.51,2.94,2.94,0,0,1,.92-2.28,3.92,3.92,0,0,1,4.85,0A3,3,0,0,1,596.9,98.76Zm-1.18,5.31a2.09,2.09,0,0,0-.61-1.56,2.14,2.14,0,0,0-1.58-.6,2,2,0,0,0-2.15,2.16,2,2,0,0,0,.57,1.52,2.19,2.19,0,0,0,1.6.56,2.22,2.22,0,0,0,1.59-.56A2,2,0,0,0,595.72,104.07Zm-2.17-7.24a1.86,1.86,0,0,0-1.38.52,2,2,0,0,0-.53,1.44,1.91,1.91,0,0,0,.52,1.4,1.85,1.85,0,0,0,1.39.54,1.81,1.81,0,0,0,1.38-.54,1.91,1.91,0,0,0,.52-1.4,2,2,0,0,0-.54-1.42A1.84,1.84,0,0,0,593.55,96.83Z"/><path class="cls-3" d="M464,126.37h-1.45v-9.63l-2.92,1.07V116.5l4.14-1.56H464Z"/><path class="cls-3" d="M471.74,125.35a2.07,2.07,0,0,0,1.35-.47,1.62,1.62,0,0,0,.64-1.17h1.37a2.56,2.56,0,0,1-.5,1.38,3.32,3.32,0,0,1-1.23,1,3.75,3.75,0,0,1-4.37-.76,4.6,4.6,0,0,1-1-3.16V122a5.1,5.1,0,0,1,.45-2.19,3.47,3.47,0,0,1,1.3-1.5,3.73,3.73,0,0,1,2-.53,3.44,3.44,0,0,1,2.37.85,3,3,0,0,1,1,2.21h-1.37a2,2,0,0,0-2-1.87,2,2,0,0,0-1.7.79,3.71,3.71,0,0,0-.61,2.3v.27a3.67,3.67,0,0,0,.6,2.25A2.06,2.06,0,0,0,471.74,125.35Z"/><path class="cls-3" d="M479.09,122.46l-.91.94v3h-1.45v-12h1.45v7.26l.77-.93,2.64-2.78h1.75l-3.29,3.53,3.68,4.92H482Z"/><path class="cls-3" d="M497.32,122.45a5.13,5.13,0,0,1-.94,3,2.7,2.7,0,0,1-2.25,1.1,1.78,1.78,0,0,1-1.88-1.32,2.85,2.85,0,0,1-1,1,2.17,2.17,0,0,1-1.13.33,1.85,1.85,0,0,1-1.68-.91,4,4,0,0,1-.42-2.51,7.07,7.07,0,0,1,.59-2.3,4.33,4.33,0,0,1,1.22-1.59,2.56,2.56,0,0,1,1.57-.58,3.58,3.58,0,0,1,1.13.17,3.93,3.93,0,0,1,1.13.66l-.41,4.33c-.1,1.2.23,1.81,1,1.81a1.65,1.65,0,0,0,1.43-.88,4.56,4.56,0,0,0,.59-2.28,6.65,6.65,0,0,0-1.13-4.63,4.65,4.65,0,0,0-3.88-1.6,5.05,5.05,0,0,0-2.79.78,5.26,5.26,0,0,0-1.92,2.25,8.54,8.54,0,0,0-.79,3.39,7.85,7.85,0,0,0,.47,3.36,4.43,4.43,0,0,0,1.71,2.18,5,5,0,0,0,2.79.75,5.78,5.78,0,0,0,1.41-.17,4.27,4.27,0,0,0,1.17-.44l.29.89a4.17,4.17,0,0,1-1.28.5,6.93,6.93,0,0,1-1.63.2,6.13,6.13,0,0,1-3.35-.88,5.34,5.34,0,0,1-2.11-2.53,8.84,8.84,0,0,1-.61-3.86,9.49,9.49,0,0,1,1-3.87,6.43,6.43,0,0,1,2.35-2.64,6.59,6.59,0,0,1,6.68-.06,5.19,5.19,0,0,1,2.07,2.52A9,9,0,0,1,497.32,122.45Zm-8,.66a3.11,3.11,0,0,0,.21,1.71,1.07,1.07,0,0,0,1,.59,1.31,1.31,0,0,0,.9-.4,2.75,2.75,0,0,0,.71-1.14v-.07l.36-3.93a2,2,0,0,0-.94-.23,1.76,1.76,0,0,0-1.51.93A5.66,5.66,0,0,0,489.3,123.11Z"/><path class="cls-3" d="M504.42,125.54a3.07,3.07,0,0,1-2.47,1,2.6,2.6,0,0,1-2.06-.79,3.42,3.42,0,0,1-.72-2.32v-5.5h1.45v5.46q0,1.92,1.56,1.92a2.16,2.16,0,0,0,2.2-1.23v-6.15h1.45v8.45h-1.38Z"/><path class="cls-3" d="M512.11,119.21a5.27,5.27,0,0,0-.71,0,1.9,1.9,0,0,0-1.93,1.21v6H508v-8.45h1.41l0,1a2.27,2.27,0,0,1,2-1.13,1.53,1.53,0,0,1,.64.11Z"/><path class="cls-3" d="M520.59,122.24a5,5,0,0,1-.89,3.11,2.83,2.83,0,0,1-2.39,1.18,2.93,2.93,0,0,1-2.47-1.14l-.07,1h-1.33v-12h1.44v4.48a2.93,2.93,0,0,1,2.42-1.09,2.84,2.84,0,0,1,2.41,1.17,5.11,5.11,0,0,1,.88,3.18Zm-1.44-.17a3.92,3.92,0,0,0-.57-2.28,1.9,1.9,0,0,0-1.64-.8,2.12,2.12,0,0,0-2.06,1.33V124A2.19,2.19,0,0,0,517,125.3a1.89,1.89,0,0,0,1.62-.8A4.15,4.15,0,0,0,519.15,122.07Z"/><path class="cls-3" d="M525.92,126.53a3.68,3.68,0,0,1-2.79-1.13,4.18,4.18,0,0,1-1.08-3v-.27a5,5,0,0,1,.48-2.24,3.76,3.76,0,0,1,1.34-1.55,3.41,3.41,0,0,1,1.87-.56,3.13,3.13,0,0,1,2.56,1.09,4.69,4.69,0,0,1,.92,3.11v.6h-5.73a3,3,0,0,0,.73,2,2.32,2.32,0,0,0,1.78.77,2.63,2.63,0,0,0,1.3-.31,3.47,3.47,0,0,0,.93-.83l.88.68A3.55,3.55,0,0,1,525.92,126.53Zm-.18-7.58a1.93,1.93,0,0,0-1.47.64,3.09,3.09,0,0,0-.73,1.78h4.23v-.11a2.8,2.8,0,0,0-.59-1.71A1.81,1.81,0,0,0,525.74,119Z"/><path class="cls-3" d="M533.73,121l1.87-3.08h1.69l-2.77,4.18,2.86,4.27H535.7l-2-3.16-2,3.16h-1.68L533,122.1l-2.77-4.18h1.68Z"/><path class="cls-3" d="M538.32,122.07a5,5,0,0,1,.91-3.14,3.15,3.15,0,0,1,4.84-.07l.07-.94h1.32v8.25a3.42,3.42,0,0,1-1,2.58,3.59,3.59,0,0,1-2.61.95,4.34,4.34,0,0,1-1.79-.39,3.09,3.09,0,0,1-1.34-1.07l.75-.87a2.82,2.82,0,0,0,2.27,1.15,2.25,2.25,0,0,0,1.65-.59,2.31,2.31,0,0,0,.59-1.68v-.72a3,3,0,0,1-2.37,1,2.88,2.88,0,0,1-2.4-1.2A5.22,5.22,0,0,1,538.32,122.07Zm1.45.17a3.77,3.77,0,0,0,.59,2.24,1.9,1.9,0,0,0,1.64.82,2.12,2.12,0,0,0,2-1.24V120.2a2.14,2.14,0,0,0-2-1.21,1.9,1.9,0,0,0-1.65.82A4.11,4.11,0,0,0,539.77,122.24Z"/><path class="cls-3" d="M551.73,119.21a5.27,5.27,0,0,0-.71,0,1.89,1.89,0,0,0-1.93,1.21v6h-1.45v-8.45h1.41l0,1a2.26,2.26,0,0,1,2-1.13,1.53,1.53,0,0,1,.64.11Z"/><path class="cls-3" d="M552.52,122.07a5.08,5.08,0,0,1,.48-2.24,3.6,3.6,0,0,1,3.35-2.07,3.55,3.55,0,0,1,2.79,1.2,4.53,4.53,0,0,1,1.07,3.18v.1a5.08,5.08,0,0,1-.47,2.21,3.6,3.6,0,0,1-1.35,1.53,3.8,3.8,0,0,1-2,.55,3.55,3.55,0,0,1-2.79-1.2,4.56,4.56,0,0,1-1.06-3.16Zm1.45.17a3.65,3.65,0,0,0,.65,2.26,2.12,2.12,0,0,0,1.75.85,2.08,2.08,0,0,0,1.75-.87,4,4,0,0,0,.65-2.41,3.63,3.63,0,0,0-.66-2.26,2.12,2.12,0,0,0-1.76-.86,2.05,2.05,0,0,0-1.72.85A3.92,3.92,0,0,0,554,122.24Z"/><path class="cls-3" d="M567.24,125.54a3.07,3.07,0,0,1-2.47,1,2.6,2.6,0,0,1-2.06-.79,3.42,3.42,0,0,1-.72-2.32v-5.5h1.45v5.46q0,1.92,1.56,1.92a2.16,2.16,0,0,0,2.2-1.23v-6.15h1.45v8.45h-1.38Z"/><path class="cls-3" d="M578,122.24a5.07,5.07,0,0,1-.88,3.11,2.84,2.84,0,0,1-2.39,1.18,3.1,3.1,0,0,1-2.42-1v4.07h-1.45v-11.7h1.32l.07.94a3,3,0,0,1,2.46-1.1,2.88,2.88,0,0,1,2.41,1.15,5.14,5.14,0,0,1,.88,3.2Zm-1.44-.17a3.69,3.69,0,0,0-.61-2.25,1.94,1.94,0,0,0-1.67-.83,2.13,2.13,0,0,0-2,1.16v4a2.13,2.13,0,0,0,2,1.16,2,2,0,0,0,1.66-.83A4.13,4.13,0,0,0,576.54,122.07Z"/><path class="cls-3" d="M579.85,125.61a.94.94,0,0,1,.22-.62.85.85,0,0,1,.67-.25.88.88,0,0,1,.68.25.9.9,0,0,1,.23.62.85.85,0,0,1-.23.6.88.88,0,0,1-.68.25.85.85,0,0,1-.67-.25A.89.89,0,0,1,579.85,125.61Z"/><path class="cls-3" d="M588.12,119.21a5.27,5.27,0,0,0-.71,0,1.9,1.9,0,0,0-1.93,1.21v6H584v-8.45h1.41l0,1a2.26,2.26,0,0,1,2-1.13,1.53,1.53,0,0,1,.64.11Z"/><path class="cls-3" d="M594.66,125.54a3.05,3.05,0,0,1-2.47,1,2.61,2.61,0,0,1-2.06-.79,3.42,3.42,0,0,1-.72-2.32v-5.5h1.45v5.46q0,1.92,1.56,1.92a2.17,2.17,0,0,0,2.21-1.23v-6.15h1.44v8.45H594.7Z"/></svg>