<?xml version="1.0" encoding="utf-8"?>
<svg id="Layer_1" data-name="Layer 1" xmlns="http://www.w3.org/2000/svg" viewBox="0 0 980 113.73">
  <defs>
    <style>
      .cls-1 {
        fill: #1A1A1A;
      }

      .cls-2 {
        fill: #C83834;
      }

    </style>
  </defs>
  <title>wave</title>
  <path class="cls-1" d="M1130,340.1c-8.38,3.57-16.46,7.67-23.44,10.13a681,681,0,0,1-76,21.74c-102.62,23.12-207.32,23.17-311,14.49-44.65-3.74-89.22-9.07-133.77-14.85-44.77-5.8-89.51-12-134.31-17.55S362,343.53,317.07,341c-44.4-2.55-89.07-3.33-133.35,2.27-11.25,1.43-22.51,2.86-33.72,4.92V400h980Z" transform="translate(-150 -286.27)" />
  <path class="cls-2" d="M596.41,350c-44.43-9.7-88.82-19.83-133.29-29.24S374.18,302.49,329.47,296c-44.22-6.42-88.78-11.1-133.23-9.37-11.32.44-22.64.89-33.93,2-4.15.4-8.24,1-12.31,1.69v42.63c2.3-.49,4.6-1,6.93-1.35,11.23-1.88,22.52-3.12,33.8-4.37,44.32-4.87,89-3.34,133.37-.06,44.87,3.32,89.64,9.07,134.36,15.32s89.43,13.23,134.15,19.77c44.5,6.51,89,12.58,133.64,17.06q22.51,2.25,45.07,3.91-21-3.07-42-6.68c-44.4-7.63-88.66-16.84-132.87-26.48" transform="translate(-150 -286.27)" />
</svg>
