<?xml version="1.0" encoding="utf-8"?>
<svg id="Layer_1" data-name="Layer 1" xmlns="http://www.w3.org/2000/svg" viewBox="0 0 980 116">
  <defs>
    <style>
      .cls-1 {
        fill: #fff;
      }

      .cls-2 {
        fill: #c7504a;
      }

    </style>
  </defs>
  <title>wave</title>
  <path class="cls-1" d="M0,51.91c8.38-3.6,16.46-7.71,23.44-10.18a677.27,677.27,0,0,1,76-21.83C202-3.32,306.73-3.37,410.38,5.35,455,9.1,499.6,14.46,544.15,20.26c44.77,5.82,89.51,12.09,134.31,17.63S768,48.46,812.93,51.05c44.4,2.56,89.07,3.34,133.35-2.28,11.25-1.43,22.51-2.87,33.72-4.94V116H0Z" />
  <path class="cls-2" d="M533.59,44C578,53.65,622.41,63.79,666.88,73.19S755.82,91.51,800.53,98c44.22,6.41,88.78,11.09,133.23,9.36,11.32-.44,22.64-.88,33.93-2,4.15-.4,8.24-1,12.31-1.69V61.08c-2.3.49-4.6,1-6.93,1.34-11.23,1.88-22.52,3.13-33.8,4.37-44.32,4.87-89,3.35-133.37.07C761,63.54,716.26,57.78,671.54,51.54S582.11,38.3,537.39,31.76c-44.5-6.51-89-12.58-133.64-17q-22.51-2.27-45.07-3.92,21,3.08,42,6.69C445.12,25.1,489.38,34.31,533.59,44" />
</svg>
