<svg id="Layer_1" data-name="Layer 1" xmlns="http://www.w3.org/2000/svg" viewBox="0 0 146 146"><defs><style>.cls-1{fill:#fff;}.cls-2{fill:#47433d;}.cls-3{fill:#c75049;}</style></defs><title>4-3</title><circle class="cls-1" cx="78.5" cy="66.48" r="30.44"/><path class="cls-2" d="M75.5,96.35a32.77,32.77,0,1,1,32.77-32.77A32.81,32.81,0,0,1,75.5,96.35Zm0-60.87a28.1,28.1,0,1,0,28.1,28.1A28.13,28.13,0,0,0,75.5,35.48Z" transform="translate(3 2.9)"/><path class="cls-1" d="M83.51,54.35H72.1A4.6,4.6,0,0,0,67.49,59h0a4.61,4.61,0,0,0,4.61,4.62h6.79a4.62,4.62,0,0,1,4.62,4.62h0a4.61,4.61,0,0,1-4.62,4.61H67.49" transform="translate(3 2.9)"/><path class="cls-2" d="M78.89,75.15H67.49V70.48h11.4a2.29,2.29,0,1,0,0-4.57H72.1a7,7,0,1,1,0-13.9H83.51v4.67H72.1a2.29,2.29,0,0,0,0,4.57h6.79a7,7,0,0,1,0,13.9Z" transform="translate(3 2.9)"/><line class="cls-1" x1="78.5" y1="75.71" x2="78.5" y2="83.11"/><rect class="cls-2" x="76.16" y="75.71" width="4.67" height="7.4"/><line class="cls-1" x1="78.5" y1="49.85" x2="78.5" y2="57.25"/><rect class="cls-2" x="76.16" y="49.85" width="4.67" height="7.4"/><path class="cls-3" d="M70,143.1a73,73,0,1,1,73-73A73.09,73.09,0,0,1,70,143.1Zm0-136a63,63,0,1,0,63,63A63.07,63.07,0,0,0,70,7.1Z" transform="translate(3 2.9)"/><path class="cls-3" d="M70,126.1a56,56,0,1,1,56-56A56.06,56.06,0,0,1,70,126.1ZM70,16.77A53.33,53.33,0,1,0,123.33,70.1,53.39,53.39,0,0,0,70,16.77Z" transform="translate(3 2.9)"/><circle class="cls-1" cx="59.78" cy="88.68" r="20.05"/><path class="cls-2" d="M56.78,108.16A22.38,22.38,0,1,1,79.16,85.78,22.41,22.41,0,0,1,56.78,108.16Zm0-40.09A17.72,17.72,0,1,0,74.5,85.78,17.72,17.72,0,0,0,56.78,68.07Z" transform="translate(3 2.9)"/><path class="cls-1" d="M62.79,78.86H54.24a3.46,3.46,0,0,0-3.46,3.46h0a3.46,3.46,0,0,0,3.46,3.46h5.09a3.46,3.46,0,0,1,3.46,3.46h0a3.45,3.45,0,0,1-3.46,3.46H50.78" transform="translate(3 2.9)"/><path class="cls-2" d="M59.33,95H50.78V90.37h8.55a1.13,1.13,0,1,0,0-2.25H54.24a5.8,5.8,0,1,1,0-11.59h8.55v4.66H54.24a1.13,1.13,0,1,0,0,2.26h5.09a5.8,5.8,0,0,1,0,11.59Z" transform="translate(3 2.9)"/><line class="cls-1" x1="59.78" y1="95.61" x2="59.78" y2="101.16"/><rect class="cls-2" x="57.45" y="95.61" width="4.67" height="5.55"/><line class="cls-1" x1="59.78" y1="76.21" x2="59.78" y2="81.76"/><rect class="cls-2" x="57.45" y="76.21" width="4.67" height="5.55"/></svg>