<svg id="Layer_1" data-name="Layer 1" xmlns="http://www.w3.org/2000/svg" viewBox="0 0 146 146"><defs><style>.cls-1{fill:#47433d;}.cls-2{fill:#c75049;}.cls-3{fill:#fff;}</style></defs><title>4-1</title><path class="cls-1" d="M63.43,67.44H55.81a13,13,0,0,1-13-13v-14a13,13,0,0,1,13-13h7.62a13,13,0,0,1,13,13v14A13,13,0,0,1,63.43,67.44ZM55.81,32.16a8.3,8.3,0,0,0-8.29,8.29v14a8.3,8.3,0,0,0,8.29,8.3h7.62a8.3,8.3,0,0,0,8.29-8.3v-14a8.3,8.3,0,0,0-8.29-8.29Z" transform="translate(3.75 2.9)"/><rect class="cls-1" x="48.94" y="47.23" width="28.87" height="4.67"/><rect class="cls-1" x="43.12" y="30.39" width="59.16" height="4.67"/><path class="cls-1" d="M90.82,107.61H86.16V79.34a7.57,7.57,0,0,0-4.28-6.79L69,66.41l2-4.21,12.84,6.14a12.26,12.26,0,0,1,6.93,11Z" transform="translate(3.75 2.9)"/><path class="cls-1" d="M82.68,67.44H72.05V62.78H82.68A8.3,8.3,0,0,0,91,54.48v-14a8.3,8.3,0,0,0-8.29-8.29H64V27.49H82.68a13,13,0,0,1,13,13v14A13,13,0,0,1,82.68,67.44Z" transform="translate(3.75 2.9)"/><rect class="cls-1" x="77.41" y="47.23" width="19.65" height="4.67"/><path class="cls-1" d="M110.07,92.14H105.4V79.34a7.57,7.57,0,0,0-4.28-6.79L88.29,66.41l2-4.21,12.84,6.14a12.26,12.26,0,0,1,6.93,11Z" transform="translate(3.75 2.9)"/><path class="cls-1" d="M33.09,94.08H28.42V79.74a12.26,12.26,0,0,1,6.93-11L48.19,62.6l2,4.21L37.37,73a7.57,7.57,0,0,0-4.28,6.79Z" transform="translate(3.75 2.9)"/><path class="cls-2" d="M69.25,143.1a73,73,0,1,1,73-73A73.08,73.08,0,0,1,69.25,143.1Zm0-136a63,63,0,1,0,63,63A63.07,63.07,0,0,0,69.25,7.1Z" transform="translate(3.75 2.9)"/><path class="cls-2" d="M69.25,126.1a56,56,0,1,1,56-56A56.06,56.06,0,0,1,69.25,126.1Zm0-109.33A53.33,53.33,0,1,0,122.58,70.1,53.39,53.39,0,0,0,69.25,16.77Z" transform="translate(3.75 2.9)"/><path class="cls-3" d="M30.75,94.08a8.67,8.67,0,0,0,8.67,8.67" transform="translate(3.75 2.9)"/><path class="cls-1" d="M39.42,105.08a11,11,0,0,1-11-11h4.67a6.34,6.34,0,0,0,6.33,6.34Z" transform="translate(3.75 2.9)"/><polygon class="cls-1" points="52.93 120.26 49.63 116.96 65.02 101.57 71.13 88.52 58.08 94.64 42.57 110.15 39.27 106.85 55.36 90.76 80.83 78.82 68.9 104.29 52.93 120.26"/><polygon class="cls-1" points="75.98 83.67 67.19 87.83 71.82 92.47 75.98 83.67"/><polygon class="cls-1" points="72.52 96.46 63.2 87.14 80.88 78.77 72.52 96.46"/><rect class="cls-1" x="55.75" y="87.68" width="4.67" height="14.47" transform="translate(-46.35 71.77) rotate(-45)"/></svg>