<svg id="Layer_1" data-name="Layer 1" xmlns="http://www.w3.org/2000/svg" viewBox="0 0 146 146"><defs><style>.cls-1{fill:#c75049;}.cls-2{fill:#47433d;}.cls-3{fill:#fff;}</style></defs><title>4-2</title><path class="cls-1" d="M70.13,143.1a73,73,0,1,1,73-73A73.09,73.09,0,0,1,70.13,143.1Zm0-136a63,63,0,1,0,63,63A63.08,63.08,0,0,0,70.13,7.1Z" transform="translate(2.87 2.9)"/><path class="cls-1" d="M70.13,126.1a56,56,0,1,1,56-56A56.07,56.07,0,0,1,70.13,126.1Zm0-109.33A53.33,53.33,0,1,0,123.47,70.1,53.39,53.39,0,0,0,70.13,16.77Z" transform="translate(2.87 2.9)"/><path class="cls-2" d="M85.48,91.12H31.77V43.54H85.48Zm-49-4.67H80.81V48.21H36.44Z" transform="translate(2.87 2.9)"/><path class="cls-2" d="M112.1,91.12H80.81V55.66H98.37A13.75,13.75,0,0,1,112.1,69.39ZM85.48,86.45h22V69.39a9.07,9.07,0,0,0-9.07-9.06H85.48Z" transform="translate(2.87 2.9)"/><rect class="cls-2" x="95.2" y="69.71" width="17.43" height="8.17"/><circle class="cls-3" cx="54.49" cy="92.9" r="7.46"/><path class="cls-2" d="M51.62,99.8a9.8,9.8,0,1,1,9.8-9.8A9.82,9.82,0,0,1,51.62,99.8Zm0-14.93A5.13,5.13,0,1,0,56.75,90,5.13,5.13,0,0,0,51.62,84.87Z" transform="translate(2.87 2.9)"/><circle class="cls-3" cx="93.47" cy="92.9" r="7.46"/><path class="cls-2" d="M90.61,99.8a9.8,9.8,0,1,1,9.8-9.8A9.82,9.82,0,0,1,90.61,99.8Zm0-14.93A5.13,5.13,0,1,0,95.74,90,5.13,5.13,0,0,0,90.61,84.87Z" transform="translate(2.87 2.9)"/><rect class="cls-2" x="51.93" y="67.45" width="17.37" height="4.4"/><polygon class="cls-2" points="63.28 80.33 60.17 77.22 67.75 69.65 60.17 62.07 63.28 58.96 73.97 69.65 63.28 80.33"/></svg>