<svg id="Layer_1" data-name="Layer 1" xmlns="http://www.w3.org/2000/svg" viewBox="0 0 96.54 96.54"><defs><style>.cls-1{fill:#47433d;}.cls-2{fill:#fff;}.cls-3{fill:#c75049;}</style></defs><title>4-4</title><path class="cls-1" d="M60,118.81A12.8,12.8,0,0,1,47.22,106V25.08h5.62V106a7.17,7.17,0,1,0,14.33,0v-71a12.79,12.79,0,0,1,25.58,0V116H87.13V35.06a7.17,7.17,0,0,0-14.34,0v71A12.8,12.8,0,0,1,60,118.81Z" transform="translate(-21.71 -22.27)"/><circle class="cls-2" cx="28.32" cy="9.58" r="6.77"/><path class="cls-3" d="M50,41.44a9.59,9.59,0,1,1,9.58-9.58A9.59,9.59,0,0,1,50,41.44ZM50,27.9a4,4,0,1,0,4,4A4,4,0,0,0,50,27.9Z" transform="translate(-21.71 -22.27)"/><circle class="cls-2" cx="68.22" cy="86.96" r="6.77"/><path class="cls-3" d="M89.94,118.81a9.59,9.59,0,1,1,9.58-9.58A9.6,9.6,0,0,1,89.94,118.81Zm0-13.54a4,4,0,1,0,4,4A4,4,0,0,0,89.94,105.27Z" transform="translate(-21.71 -22.27)"/><path class="cls-1" d="M105.46,93.31H24.53V87.69h80.93a7.17,7.17,0,0,0,0-14.34h-71a12.79,12.79,0,1,1,0-25.57h80.94V53.4H34.5a7.17,7.17,0,0,0,0,14.33h71a12.79,12.79,0,1,1,0,25.58Z" transform="translate(-21.71 -22.27)"/><circle class="cls-2" cx="86.96" cy="28.32" r="6.77"/><path class="cls-3" d="M108.67,60.17a9.59,9.59,0,1,1,9.58-9.58A9.59,9.59,0,0,1,108.67,60.17Zm0-13.54a4,4,0,1,0,4,4A4,4,0,0,0,108.67,46.63Z" transform="translate(-21.71 -22.27)"/><circle class="cls-2" cx="9.58" cy="68.22" r="6.77"/><path class="cls-3" d="M31.3,100.08a9.59,9.59,0,1,1,9.58-9.58A9.6,9.6,0,0,1,31.3,100.08Zm0-13.54a4,4,0,1,0,4,4A4,4,0,0,0,31.3,86.54Z" transform="translate(-21.71 -22.27)"/></svg>