<svg id="Layer_1" data-name="Layer 1" xmlns="http://www.w3.org/2000/svg" viewBox="0 0 93.41 96.54"><defs><style>.cls-1{fill:#47433d;}.cls-2{fill:#fff;}.cls-3{fill:#c75049;}</style></defs><title>4-5</title><path class="cls-1" d="M53.88,116.14H48.25V35.2a12.79,12.79,0,0,1,25.58,0v71H68.21v-71a7.17,7.17,0,0,0-14.33,0Z" transform="translate(-22.75 -22.41)"/><circle class="cls-2" cx="28.32" cy="86.96" r="6.77"/><path class="cls-3" d="M51.07,119a9.59,9.59,0,1,1,9.58-9.58A9.6,9.6,0,0,1,51.07,119Zm0-13.54a4,4,0,1,0,4,4A4,4,0,0,0,51.07,105.41Z" transform="translate(-22.75 -22.41)"/><circle class="cls-2" cx="48.27" cy="86.96" r="6.77"/><path class="cls-3" d="M71,119a9.59,9.59,0,1,1,9.58-9.58A9.59,9.59,0,0,1,71,119Zm0-13.54a4,4,0,1,0,4,4A4,4,0,0,0,71,105.41Z" transform="translate(-22.75 -22.41)"/><path class="cls-1" d="M104.63,93.45H35.54a12.79,12.79,0,0,1,0-25.58H76.39a7.17,7.17,0,0,0,0-14.33H25.56V47.92H76.39a12.79,12.79,0,1,1,0,25.57H35.54a7.17,7.17,0,1,0,0,14.34h69.09Z" transform="translate(-22.75 -22.41)"/><circle class="cls-2" cx="9.58" cy="28.32" r="6.77"/><path class="cls-3" d="M32.33,60.31a9.59,9.59,0,1,1,9.59-9.58A9.59,9.59,0,0,1,32.33,60.31Zm0-13.54a4,4,0,1,0,4,4A4,4,0,0,0,32.33,46.77Z" transform="translate(-22.75 -22.41)"/><path class="cls-1" d="M104.63,93.35,93.1,61.48V23.56h23.06V61.48ZM98.72,60.5l5.91,16.32,5.91-16.32V29.19H98.72Z" transform="translate(-22.75 -22.41)"/><polygon class="cls-1" points="81.88 62.67 77.93 51.64 85.83 51.64 81.88 62.67"/><polygon class="cls-1" points="81.88 71.02 73.94 48.83 89.82 48.83 81.88 71.02"/><rect class="cls-1" x="73.16" y="35.76" width="17.44" height="5.62"/></svg>