<svg id="Layer_1" data-name="Layer 1" xmlns="http://www.w3.org/2000/svg" viewBox="0 0 98.93 93.89"><defs><style>.cls-1{fill:#47433d;}.cls-2{fill:#c75049;}.cls-3{fill:#fff;}</style></defs><title>4-6</title><path class="cls-1" d="M58.56,100.27,39.83,41.57,94.61,23.42l18.73,58.69ZM46.54,45,62,93.49,106.63,78.7,91.16,30.2Z" transform="translate(-19.96 -23.42)"/><polygon class="cls-2" points="56.95 47.42 56.23 37.73 61.56 36.03 56.95 47.42"/><polygon class="cls-2" points="58.03 28.32 58.75 38.01 53.42 39.71 58.03 28.32"/><path class="cls-2" d="M77.41,76.35A15.07,15.07,0,1,1,91.78,56.7h0A15.08,15.08,0,0,1,77.41,76.35Zm0-24.79a9.72,9.72,0,1,0,9.24,6.77h0a9.74,9.74,0,0,0-9.24-6.77Z" transform="translate(-19.96 -23.42)"/><circle class="cls-3" cx="52.06" cy="83.42" r="7.79"/><path class="cls-1" d="M72,117.31a10.47,10.47,0,1,1,10-13.65h0a10.48,10.48,0,0,1-6.8,13.15A10.28,10.28,0,0,1,72,117.31Zm0-15.59a4.88,4.88,0,0,0-1.55.25,5.09,5.09,0,1,0,1.55-.25Z" transform="translate(-19.96 -23.42)"/><polygon class="cls-1" points="38.36 76.85 16.75 9.09 0.32 10.06 0 4.71 20.58 3.5 41.82 70.08 97.25 51.8 98.93 56.88 38.36 76.85"/></svg>