<svg id="Layer_1" data-name="Layer 1" xmlns="http://www.w3.org/2000/svg" viewBox="0 0 114.72 92.74"><defs><style>.cls-1{fill:#fff;}.cls-2{fill:#47433d;}.cls-3{fill:#c75049;}</style></defs><title>4-7</title><polyline class="cls-1" points="3.05 58.2 29.19 58.2 29.19 83.16 3.05 83.16"/><polygon class="cls-2" points="32 85.97 3.05 85.97 3.05 80.35 26.38 80.35 26.38 61.01 3.05 61.01 3.05 55.39 32 55.39 32 85.97"/><rect class="cls-1" x="29.19" y="58.2" width="45.21" height="24.96"/><path class="cls-2" d="M89.46,109.6H38.63V79H89.46ZM44.25,104H83.83V84.64H44.25Z" transform="translate(-12.25 -23.63)"/><polyline class="cls-1" points="9.58 33.24 51.79 33.24 51.79 58.2 9.58 58.2"/><polygon class="cls-2" points="54.6 61.01 9.58 61.01 9.58 55.39 48.98 55.39 48.98 36.05 9.58 36.05 9.58 30.43 54.6 30.43 54.6 61.01"/><rect class="cls-1" x="51.79" y="33.24" width="45.03" height="24.96"/><path class="cls-2" d="M111.88,84.64H61.23V54.06h50.65ZM66.85,79h39.41V59.68H66.85Z" transform="translate(-12.25 -23.63)"/><rect class="cls-1" x="29.19" y="8.28" width="45.21" height="24.96"/><path class="cls-2" d="M89.46,59.68H38.63V29.1H89.46ZM44.25,54.06H83.83V34.72H44.25Z" transform="translate(-12.25 -23.63)"/><circle class="cls-1" cx="51.79" cy="58.2" r="6.77"/><path class="cls-3" d="M64,91.41a9.58,9.58,0,1,1,9.59-9.58A9.59,9.59,0,0,1,64,91.41Zm0-13.54a4,4,0,1,0,4,4A4,4,0,0,0,64,77.87Z" transform="translate(-12.25 -23.63)"/><circle class="cls-1" cx="9.58" cy="58.2" r="6.77"/><path class="cls-3" d="M21.84,91.41a9.58,9.58,0,1,1,9.58-9.58A9.6,9.6,0,0,1,21.84,91.41Zm0-13.54a4,4,0,1,0,4,4A4,4,0,0,0,21.84,77.87Z" transform="translate(-12.25 -23.63)"/><circle class="cls-1" cx="9.58" cy="33.24" r="6.77"/><path class="cls-3" d="M21.84,66.45a9.58,9.58,0,1,1,9.58-9.58A9.59,9.59,0,0,1,21.84,66.45Zm0-13.54a4,4,0,1,0,4,4A4,4,0,0,0,21.84,52.91Z" transform="translate(-12.25 -23.63)"/><circle class="cls-1" cx="29.19" cy="83.16" r="6.77"/><path class="cls-3" d="M41.44,116.37A9.58,9.58,0,1,1,51,106.79,9.59,9.59,0,0,1,41.44,116.37Zm0-13.54a4,4,0,1,0,4,4A4,4,0,0,0,41.44,102.83Z" transform="translate(-12.25 -23.63)"/><path class="cls-1" d="M109.07,109.61V72.11a11.19,11.19,0,0,0-11.2-11.2h0a11.2,11.2,0,0,0-11.21,11.2v37.5" transform="translate(-12.25 -23.63)"/><path class="cls-2" d="M111.88,109.61h-5.62V72.11a8.4,8.4,0,0,0-16.79,0v37.5H83.85V72.11a14,14,0,1,1,28,0Z" transform="translate(-12.25 -23.63)"/><path class="cls-1" d="M109.07,28.07V45.39a11.21,11.21,0,1,1-22.41,0V28.07a26.3,26.3,0,1,0,22.41,0Z" transform="translate(-12.25 -23.63)"/><path class="cls-2" d="M97.87,81A29.11,29.11,0,0,1,85.46,25.52l4-1.89V45.39a8.4,8.4,0,0,0,16.79,0V23.63l4,1.89A29.11,29.11,0,0,1,97.87,81ZM83.85,33a23.49,23.49,0,1,0,28,0V45.39a14,14,0,1,1-28,0Z" transform="translate(-12.25 -23.63)"/><circle class="cls-1" cx="96.82" cy="83.16" r="6.77"/><path class="cls-3" d="M109.07,116.37a9.58,9.58,0,1,1,9.59-9.58A9.59,9.59,0,0,1,109.07,116.37Zm0-13.54a4,4,0,1,0,4,4A4,4,0,0,0,109.07,102.83Z" transform="translate(-12.25 -23.63)"/></svg>