<?xml version="1.0" encoding="utf-8"?>
<!DOCTYPE svg PUBLIC "-//W3C//DTD SVG 1.1//EN" "http://www.w3.org/Graphics/SVG/1.1/DTD/svg11.dtd">
<svg xmlns="http://www.w3.org/2000/svg" viewBox="0 0 52 45">
  <defs>
    <style>
      .cls-2 {
        fill: #4b774f;
      }

    </style>
  </defs>
  <title>LOGO</title>
  <path class="cls-2" d="M39,12.77a17.7,17.7,0,0,0-.76,28.86L39,24.49l.74,17.15A17.7,17.7,0,0,0,39,12.77Z" transform="translate(-12.92 -12.77)" />
  <path class="cls-2" d="M51.06,33.48a14.88,14.88,0,0,0-7.94,9.92,40.6,40.6,0,0,1,13.2-6.53,45.06,45.06,0,0,0-13.17,8.18A14.93,14.93,0,0,0,65.11,34,14.94,14.94,0,0,0,51.06,33.48Z" transform="translate(-12.92 -12.77)" />
  <path class="cls-2" d="M21.86,36.87a40.22,40.22,0,0,1,13,6.39A14.92,14.92,0,0,0,12.92,34,14.92,14.92,0,0,0,35,45,45,45,0,0,0,21.86,36.87Z" transform="translate(-12.92 -12.77)" />
  <path class="cls-2" d="M49.11,48.58a2.16,2.16,0,0,0-1.6.09,2.36,2.36,0,0,1-1.62.18C44,48.38,42.37,47.5,39,47.5s-5,.88-6.86,1.35l-.21,0a3.1,3.1,0,0,0,2.65,1.56c2.11.1,4.81-.17,5,1.71a8.05,8.05,0,0,1-8.83-1.91,3.49,3.49,0,0,0-3.89-.94h0A16.36,16.36,0,0,0,39,57.87a16.15,16.15,0,0,0,12.12-8.55C50.48,49.05,49.8,48.8,49.11,48.58Z" transform="translate(-12.92 -12.77)" />
</svg>
