<svg id="Layer_1" data-name="Layer 1" xmlns="http://www.w3.org/2000/svg" viewBox="0 0 145.9 145.9"><defs><style>.cls-1{fill:#c75049;}.cls-2{fill:#47433d;}.cls-3{fill:#fff;}</style></defs><title>main3</title><path class="cls-1" d="M75,148A72.95,72.95,0,1,1,148,75,73,73,0,0,1,75,148ZM75,12a63,63,0,1,0,63,63A63,63,0,0,0,75,12Z" transform="translate(-2.05 -2.05)"/><path class="cls-1" d="M75,131a56,56,0,1,1,56-56A56,56,0,0,1,75,131ZM75,21.7A53.3,53.3,0,1,0,128.3,75,53.36,53.36,0,0,0,75,21.7Z" transform="translate(-2.05 -2.05)"/><path class="cls-2" d="M75.26,119.32l-15.7-8A28.37,28.37,0,0,1,44,85.94v-43l2.41.08c.17,0,17.18.48,27.66-5.59l1.17-.67,1.17.67C86.92,43.47,103.92,43,104.09,43l2.41-.08v43A28.35,28.35,0,0,1,91,111.31ZM48.69,47.66V85.94a23.72,23.72,0,0,0,13,21.22l13.58,6.93,13.58-6.93a23.72,23.72,0,0,0,13-21.22V47.66c-5.15-.08-17.41-.8-26.58-5.58C66.1,46.86,53.83,47.58,48.69,47.66Z" transform="translate(-2.05 -2.05)"/><polygon class="cls-3" points="88.2 72.57 91.29 66.75 85.38 63.86 84.45 57.34 77.97 58.47 73.38 53.75 68.8 58.47 62.32 57.34 61.39 63.86 55.48 66.75 58.56 72.57 55.48 78.39 61.39 81.28 62.32 87.8 68.8 86.67 73.38 91.39 77.97 86.67 84.45 87.8 85.38 81.28 91.29 78.39 88.2 72.57"/><path class="cls-2" d="M75.43,95.64l-5.54-4-6.82-.06-2.15-6.46-5.49-4,2.07-6.49-2.07-6.5,5.49-4,2.15-6.47,6.82,0,5.54-4,5.54,4,6.82,0,2.15,6.47,5.49,4-2.07,6.5,2.07,6.49-5.49,4-2.15,6.46L81,91.68Zm-9-8.65,5,0,4,2.87,4-2.87,5,0L86,82.28l4-2.94-1.5-4.72L90,69.89,86,67l-1.56-4.7-5,0-4-2.88-4,2.88-5,0L64.88,67l-4,2.94,1.5,4.73-1.5,4.72,4,2.94Z" transform="translate(-2.05 -2.05)"/><polygon class="cls-2" points="73.18 80.05 64.57 72.4 67.67 68.92 72.83 73.5 78.92 66.8 82.37 69.93 73.18 80.05"/></svg>