<svg id="Layer_1" data-name="Layer 1" xmlns="http://www.w3.org/2000/svg" viewBox="0 0 145.9 145.9"><defs><style>.cls-1{fill:#c75049;}.cls-2{fill:#47433d;}</style></defs><title>main2</title><path class="cls-1" d="M75,148A72.95,72.95,0,1,1,148,75,73,73,0,0,1,75,148ZM75,12a63,63,0,1,0,63,63A63,63,0,0,0,75,12Z" transform="translate(-2.05 -2.05)"/><path class="cls-1" d="M75,131a56,56,0,1,1,56-56A56,56,0,0,1,75,131ZM75,21.7A53.3,53.3,0,1,0,128.3,75,53.36,53.36,0,0,0,75,21.7Z" transform="translate(-2.05 -2.05)"/><path class="cls-2" d="M68.62,73.9H61A13,13,0,0,1,48.06,61v-14A13,13,0,0,1,61,34h7.61a13,13,0,0,1,12.95,13V61A13,13,0,0,1,68.62,73.9ZM61,38.64a8.29,8.29,0,0,0-8.29,8.28V61A8.29,8.29,0,0,0,61,69.23h7.61A8.29,8.29,0,0,0,76.91,61v-14a8.29,8.29,0,0,0-8.29-8.28Z" transform="translate(-2.05 -2.05)"/><rect class="cls-2" x="42.73" y="48.75" width="40.07" height="4.66"/><path class="cls-2" d="M96,114H91.33V85.79A7.57,7.57,0,0,0,87.05,79L74.22,72.87l2-4.21L89.07,74.8a12.22,12.22,0,0,1,6.92,11Z" transform="translate(-2.05 -2.05)"/><path class="cls-2" d="M87.85,73.9H77.23V69.23H87.85A8.29,8.29,0,0,0,96.14,61v-14a8.29,8.29,0,0,0-8.29-8.28H69.22V34H87.85a13,13,0,0,1,13,13V61A13,13,0,0,1,87.85,73.9Z" transform="translate(-2.05 -2.05)"/><rect class="cls-2" x="82.4" y="48.75" width="19.63" height="4.66"/><path class="cls-2" d="M115.23,98.58h-4.67V85.79A7.56,7.56,0,0,0,106.29,79L93.46,72.87l2-4.21L108.3,74.8a12.23,12.23,0,0,1,6.93,11Z" transform="translate(-2.05 -2.05)"/><path class="cls-2" d="M38.29,99H33.63V86.19a12.23,12.23,0,0,1,6.93-11l12.83-6.14,2,4.21L42.57,79.4a7.57,7.57,0,0,0-4.28,6.79Z" transform="translate(-2.05 -2.05)"/><path class="cls-2" d="M71.51,85.12H58.12l-3.4-15.89H74.91Zm-9.62-4.67h5.85l1.4-6.55H60.49Z" transform="translate(-2.05 -2.05)"/><path class="cls-2" d="M64.81,116.25,53.47,107,58,80.45H71.59L76.16,107Zm-6.28-11.17,6.28,5.14,6.29-5.14-3.44-20H62Z" transform="translate(-2.05 -2.05)"/></svg>