<svg id="Layer_1" data-name="Layer 1" xmlns="http://www.w3.org/2000/svg" viewBox="0 0 145.9 145.9"><defs><style>.cls-1{fill:#c75049;}.cls-2{fill:#fff;}.cls-3{fill:#47433d;}</style></defs><title>main1</title><path class="cls-1" d="M75,148A72.95,72.95,0,1,1,148,75,73,73,0,0,1,75,148ZM75,12a63,63,0,1,0,63,63A63,63,0,0,0,75,12Z" transform="translate(-2.05 -2.05)"/><path class="cls-1" d="M75,131a56,56,0,1,1,56-56A56,56,0,0,1,75,131ZM75,21.7A53.3,53.3,0,1,0,128.3,75,53.36,53.36,0,0,0,75,21.7Z" transform="translate(-2.05 -2.05)"/><circle class="cls-2" cx="40.52" cy="72.57" r="13.49"/><path class="cls-3" d="M42.57,90.44A15.82,15.82,0,1,1,58.39,74.62,15.84,15.84,0,0,1,42.57,90.44Zm0-27A11.16,11.16,0,1,0,53.73,74.62,11.18,11.18,0,0,0,42.57,63.46Z" transform="translate(-2.05 -2.05)"/><polygon class="cls-3" points="40.39 79.22 33.15 72.78 36.25 69.3 40.04 72.67 44.62 67.63 48.07 70.77 40.39 79.22"/><circle class="cls-2" cx="73.61" cy="72.57" r="13.49"/><path class="cls-3" d="M75.66,90.44A15.82,15.82,0,1,1,91.48,74.62,15.84,15.84,0,0,1,75.66,90.44Zm0-27A11.16,11.16,0,1,0,86.81,74.62,11.17,11.17,0,0,0,75.66,63.46Z" transform="translate(-2.05 -2.05)"/><polygon class="cls-3" points="73.48 79.22 66.23 72.78 69.33 69.3 73.13 72.67 77.71 67.63 81.16 70.77 73.48 79.22"/><circle class="cls-2" cx="106.7" cy="72.57" r="13.49"/><path class="cls-3" d="M108.74,90.44a15.82,15.82,0,1,1,15.82-15.82A15.84,15.84,0,0,1,108.74,90.44Zm0-27A11.16,11.16,0,1,0,119.9,74.62,11.17,11.17,0,0,0,108.74,63.46Z" transform="translate(-2.05 -2.05)"/><polygon class="cls-3" points="106.56 79.22 99.32 72.78 102.42 69.3 106.21 72.67 110.79 67.63 114.25 70.77 106.56 79.22"/><path class="cls-3" d="M78.26,61.07H73.6a14.33,14.33,0,0,0-28.65,0H40.29a19,19,0,1,1,38,0Z" transform="translate(-2.05 -2.05)"/><path class="cls-3" d="M92.58,107.38a19,19,0,0,1-19-19h4.66a14.33,14.33,0,0,0,28.65,0h4.66A19,19,0,0,1,92.58,107.38Z" transform="translate(-2.05 -2.05)"/></svg>