<svg id="Layer_1" data-name="Layer 1" xmlns="http://www.w3.org/2000/svg" viewBox="0 0 127.38 118.23"><defs><style>.cls-1{fill:#47433d;}.cls-2{fill:#c75049;}</style></defs><title>3</title><rect class="cls-1" x="63.69" y="71.84" width="16.44" height="7"/><path class="cls-1" d="M119.3,104.88H101.91a19.18,19.18,0,0,1,0-38.35H119.3ZM101.91,73.53a12.18,12.18,0,0,0,0,24.35H112.3V73.53Z" transform="translate(-6.11 -10.36)"/><path class="cls-1" d="M130,97.45H115.8a3.5,3.5,0,0,1,0-7H130a3.5,3.5,0,0,1,0,7Z" transform="translate(-6.11 -10.36)"/><path class="cls-1" d="M130,80.69H115.8a3.5,3.5,0,0,1,0-7H130a3.5,3.5,0,0,1,0,7Z" transform="translate(-6.11 -10.36)"/><path class="cls-2" d="M89.49,56.75H66.3V33.55a23.2,23.2,0,1,1,23.19,23.2Zm-16.19-7H89.49A16.2,16.2,0,1,0,73.3,33.55Z" transform="translate(-6.11 -10.36)"/><path class="cls-2" d="M50.11,128.59h0a23.19,23.19,0,1,1,0-46.38H73.3V105.4A23.21,23.21,0,0,1,50.11,128.59Zm0-39.38A16.19,16.19,0,1,0,66.3,105.4V89.21Z" transform="translate(-6.11 -10.36)"/><rect class="cls-2" x="60.19" y="42.89" width="7" height="32.46"/><rect class="cls-2" x="47.25" y="39.39" width="16.44" height="7"/><path class="cls-2" d="M37.69,72.42H20.3V34.07H37.69a19.18,19.18,0,0,1,0,38.35Zm-10.39-7H37.69a12.18,12.18,0,0,0,0-24.35H27.3Z" transform="translate(-6.11 -10.36)"/><path class="cls-2" d="M23.8,48.5H9.61a3.5,3.5,0,0,1,0-7H23.8a3.5,3.5,0,0,1,0,7Z" transform="translate(-6.11 -10.36)"/><path class="cls-2" d="M23.8,65.26H9.61a3.5,3.5,0,1,1,0-7H23.8a3.5,3.5,0,0,1,0,7Z" transform="translate(-6.11 -10.36)"/><circle class="cls-2" cx="31.75" cy="42.89" r="3.15"/><circle class="cls-1" cx="95.62" cy="75.34" r="3.15"/></svg>