<svg id="Layer_1" data-name="Layer 1" xmlns="http://www.w3.org/2000/svg" xmlns:xlink="http://www.w3.org/1999/xlink" viewBox="0 0 101.52 117"><defs><style>.cls-1{fill:none;}.cls-2{fill:#e6e6e6;}.cls-3{fill:#f3f3f2;}.cls-4{fill:#fff;}.cls-5{fill:#47433d;}.cls-6{fill:#c75049;}.cls-7{fill:url(#New_Pattern_Swatch_2);}</style><pattern id="New_Pattern_Swatch_2" data-name="New Pattern Swatch 2" width="325" height="20" patternTransform="translate(355.35 -36.65) scale(0.93)" patternUnits="userSpaceOnUse" viewBox="0 0 325 20"><rect class="cls-1" width="325" height="20"/><rect class="cls-2" y="10" width="88" height="10"/><rect class="cls-2" x="108" y="10" width="89" height="10"/><rect class="cls-2" x="217" y="10" width="88" height="10"/><rect class="cls-3" x="88" y="10" width="20" height="10"/><rect class="cls-3" x="197" y="10" width="20" height="10"/><rect class="cls-3" x="305" y="10" width="20" height="10"/><rect class="cls-3" width="88" height="10"/><rect class="cls-3" x="108" width="89" height="10"/><rect class="cls-3" x="217" width="88" height="10"/><rect class="cls-4" x="88" width="20" height="10"/><rect class="cls-4" x="197" width="20" height="10"/><rect class="cls-4" x="305" width="20" height="10"/></pattern></defs><title>4</title><rect class="cls-4" x="18.38" y="3.5" width="79.64" height="95.84"/><path class="cls-5" d="M120.2,114.24H33.56V11.4H120.2Zm-79.64-7H113.2V18.4H40.56Z" transform="translate(-18.68 -11.4)"/><polygon class="cls-4" points="3.5 17.67 3.5 86.81 30.19 113.5 83.14 113.5 83.14 17.67 3.5 17.67"/><path class="cls-6" d="M105.32,128.41H47.42L18.68,99.66V25.57h86.64Zm-55-7h48V32.57H25.68V96.76Z" transform="translate(-18.68 -11.4)"/><rect class="cls-6" x="20.79" y="33.26" width="44.01" height="7"/><rect class="cls-6" x="20.79" y="48.87" width="44.01" height="7"/><rect class="cls-6" x="20.79" y="64.49" width="44.01" height="7"/><path class="cls-6" d="M73.13,115.58A12.92,12.92,0,1,1,86,102.66,12.93,12.93,0,0,1,73.13,115.58Zm0-18.83A5.92,5.92,0,1,0,79,102.66,5.92,5.92,0,0,0,73.13,96.75Z" transform="translate(-18.68 -11.4)"/><polygon class="cls-7" points="30.19 86.81 3.5 86.81 30.19 113.5 30.19 86.81"/><path class="cls-6" d="M48.87,128.41a3.49,3.49,0,0,1-2.47-1L19.7,100.69a3.5,3.5,0,0,1,2.48-6H48.87a3.5,3.5,0,0,1,3.5,3.5v26.7a3.51,3.51,0,0,1-3.5,3.5Zm-18.24-26.7,14.74,14.75V101.71Z" transform="translate(-18.68 -11.4)"/></svg>