<svg id="Layer_1" data-name="Layer 1" xmlns="http://www.w3.org/2000/svg" viewBox="0 0 136.16 121.55"><defs><style>.cls-1{fill:#fff;}.cls-2{fill:#c75049;}.cls-3{fill:#47433d;}</style></defs><title>2</title><path class="cls-1" d="M125.75,79.55c0-23.17-24-41.95-53.5-41.95a65.75,65.75,0,0,0-22.71,4c-13-5.22-26.38-3-26.38-3L31,52.87a41.56,41.56,0,0,0-7.23,9L12,64.49a7.25,7.25,0,0,0-5.85,7.77L7.8,90.49a11.31,11.31,0,0,0,4.07,7.29A106.85,106.85,0,0,0,38.14,114a7.94,7.94,0,0,0,3.31,8.38h0a8,8,0,0,0,11-2.17l.72-1.07a79,79,0,0,0,19,2.4,66.77,66.77,0,0,0,17.08-2.2l.24.41A8,8,0,0,0,104,113.29C117.2,105.65,125.75,93.39,125.75,79.55Z" transform="translate(-2.64 -5.64)"/><path class="cls-2" d="M96.48,127.19a11.52,11.52,0,0,1-8.65-3.91,75.9,75.9,0,0,1-33.12-.23,11.45,11.45,0,0,1-20.26-6.91A109,109,0,0,1,9.53,100.39,14.72,14.72,0,0,1,4.32,90.8L2.69,72.57A10.77,10.77,0,0,1,11.2,61.09l10.32-2.31a45.24,45.24,0,0,1,5.12-6.53L17.73,35.92l4.85-.81a58.37,58.37,0,0,1,27,2.72A69,69,0,0,1,72.25,34.1c31.43,0,57,20.39,57,45.45,0,13.8-7.94,26.91-21.36,35.49a11.53,11.53,0,0,1-5.7,10.62A11.38,11.38,0,0,1,96.48,127.19Zm-5.45-12L92.6,118a4.46,4.46,0,0,0,8.1-3.6l-.87-2.69,2.45-1.41c12.69-7.37,20-18.56,20-30.72,0-21.2-22.43-38.45-50-38.45a62.2,62.2,0,0,0-21.5,3.74l-1.26.47-1.25-.5a49.57,49.57,0,0,0-19.43-3.2l6.51,11.94-2,1.85a38.92,38.92,0,0,0-6.64,8.26L26,65l-13.17,3a3.74,3.74,0,0,0-3.13,4l1.63,18.23a7.85,7.85,0,0,0,2.86,4.95,104.5,104.5,0,0,0,25.38,15.62l2.67,1.16-.65,2.83a4.43,4.43,0,0,0,1.85,4.7,4.48,4.48,0,0,0,6.19-1.22l2.08-3.1,2.38.59c11.87,2.94,23.54,3.08,34.39.21Z" transform="translate(-2.64 -5.64)"/><path class="cls-2" d="M123.77,69.56l-.88,0a3.5,3.5,0,1,1,.4-7,8.09,8.09,0,0,0,8.52-7.61,3.5,3.5,0,0,1,7,.4,15.09,15.09,0,0,1-15,14.22Z" transform="translate(-2.64 -5.64)"/><path class="cls-3" d="M55,53.1l-1.91-6.73C72,41,90.6,46.15,91.38,46.37L89.47,53.1C89.3,53.06,72,48.29,55,53.1Z" transform="translate(-2.64 -5.64)"/><circle class="cls-1" cx="69.6" cy="22.65" r="19.15"/><path class="cls-3" d="M72.25,50.94A22.65,22.65,0,1,1,94.9,28.29,22.68,22.68,0,0,1,72.25,50.94Zm0-38.3A15.65,15.65,0,1,0,87.9,28.29,15.68,15.68,0,0,0,72.25,12.64Z" transform="translate(-2.64 -5.64)"/><path class="cls-3" d="M60.28,85.5a9.14,9.14,0,0,1-6.62,2.78A9.77,9.77,0,0,1,45.91,85Q43,81.65,43,76a14,14,0,0,1,1.57-6.59,11.49,11.49,0,0,1,4.37-4.66,12.16,12.16,0,0,1,6.32-1.67,11.55,11.55,0,0,1,6.42,1.81A11.8,11.8,0,0,1,66,70.08a18.49,18.49,0,0,1,1.58,7.75v2.68q0,9.13-4.53,14.34t-12.87,5.57l-1.78,0v-6l1.61,0Q59.5,93.95,60.28,85.5Zm-4.84-2.76a5.09,5.09,0,0,0,3-.9,6.13,6.13,0,0,0,1.92-2.18v-3A9.92,9.92,0,0,0,59,71a4.34,4.34,0,0,0-3.76-2,4.21,4.21,0,0,0-3.58,2,8.46,8.46,0,0,0-1.41,5,8.25,8.25,0,0,0,1.37,4.9A4.44,4.44,0,0,0,55.44,82.74Z" transform="translate(-2.64 -5.64)"/><path class="cls-3" d="M94.8,85q0,7.57-3.14,11.58t-9.18,4c-4,0-7-1.32-9.12-3.94s-3.19-6.39-3.24-11.29V78.66Q70.12,71,73.29,67t9.14-4q6,0,9.13,3.93T94.8,78.28Zm-7.25-7.39c0-3-.42-5.23-1.24-6.61a4.2,4.2,0,0,0-3.88-2.07,4.11,4.11,0,0,0-3.77,2q-1.22,2-1.29,6.16v8.88c0,3,.4,5.2,1.21,6.64a4.14,4.14,0,0,0,3.9,2.17,4.07,4.07,0,0,0,3.84-2.08,13.6,13.6,0,0,0,1.23-6.38Z" transform="translate(-2.64 -5.64)"/></svg>