<svg id="Layer_1" data-name="Layer 1" xmlns="http://www.w3.org/2000/svg" viewBox="0 0 116.07 108.16"><defs><style>.cls-1{fill:#47433d;}.cls-2{fill:#fff;stroke:#fff;stroke-miterlimit:10;}.cls-3{fill:#c75049;}</style></defs><title>1</title><path class="cls-1" d="M63.23,43.84C40.44,43.84,22,57.29,22,73.88c0,9.78,6.42,18.47,16.36,24a27.17,27.17,0,0,1-9.29,15,45,45,0,0,0,21.85-10.23,55.49,55.49,0,0,0,12.34,1.37c22.79,0,41.26-13.46,41.26-30.05s-18.47-30-41.26-30m0-9c12.91,0,25.15,3.73,34.47,10.52,10,7.31,15.79,17.7,15.79,28.52S107.73,95.1,97.7,102.4c-9.32,6.79-21.56,10.53-34.47,10.53a65.28,65.28,0,0,1-9.92-.76C47.94,116.1,36.62,121,17.47,121a3.4,3.4,0,0,1-1.88-6.23c5.4-3.59,9.1-7,11.72-13.5C18.21,94.07,13,84.23,13,73.88c0-10.82,5.75-21.21,15.78-28.52,9.32-6.79,21.57-10.52,34.48-10.52Z" transform="translate(-12.97 -12.86)"/><path class="cls-2" d="M38.33,97.83C28.39,92.35,22,83.66,22,73.88c0-16.59,18.47-30,41.26-30s41.26,13.45,41.26,30S86,103.93,63.23,103.93a55.49,55.49,0,0,1-12.34-1.37A45,45,0,0,1,29,112.79,27.17,27.17,0,0,0,38.33,97.83Z" transform="translate(-12.97 -12.86)"/><path class="cls-3" d="M77.66,21.86c22.79,0,41.26,13.45,41.26,30,0,9.78-6.42,18.47-16.36,24a27.05,27.05,0,0,0,9.29,15C103.11,89.19,95.49,85.54,90,80.58A55.4,55.4,0,0,1,77.66,82C54.87,82,36.4,68.5,36.4,51.9s18.47-30,41.26-30m0-9c-12.91,0-25.16,3.74-34.48,10.52-10,7.31-15.78,17.7-15.78,28.52s5.75,21.22,15.78,28.53C52.5,87.21,64.75,91,77.66,91a65.47,65.47,0,0,0,9.92-.75c5.66,4.14,18,9.41,39.09,8.8a2.45,2.45,0,0,0,1.21-4.52c-6.83-4.27-11.28-7.72-14.3-15.17,9.09-7.21,14.34-17.05,14.34-27.41,0-10.82-5.76-21.21-15.79-28.52-9.32-6.78-21.56-10.52-34.47-10.52Z" transform="translate(-12.97 -12.86)"/><path class="cls-2" d="M102.56,75.86c9.94-5.49,16.36-14.18,16.36-24,0-16.59-18.47-30-41.26-30S36.4,35.31,36.4,51.9,54.87,82,77.66,82A55.4,55.4,0,0,0,90,80.58c5.5,5,13.12,8.61,21.86,10.23A27.05,27.05,0,0,1,102.56,75.86Z" transform="translate(-12.97 -12.86)"/><circle class="cls-3" cx="48.14" cy="39.78" r="4.94"/><circle class="cls-3" cx="64.54" cy="39.78" r="4.94"/><circle class="cls-3" cx="80.94" cy="39.78" r="4.94"/></svg>