<svg id="Layer_1" data-name="Layer 1" xmlns="http://www.w3.org/2000/svg" viewBox="0 0 107.13 132.3"><defs><style>.cls-1{fill:#fff;}.cls-2{fill:#47433d;}.cls-3{fill:#c75049;}</style></defs><title>6</title><polygon class="cls-1" points="77.53 127.19 53.69 117.9 29.84 127.19 29.84 87.08 77.53 87.08 77.53 127.19"/><path class="cls-2" d="M42.78,135.63V86.91H97.47v48.72L70.13,125Zm27.35-18.16,20.34,7.92V93.91H49.78v31.48Z" transform="translate(-16.44 -3.33)"/><path class="cls-1" d="M114.39,59.22c0-5.22,7-11.48,5.45-16.19-1.58-4.89-11-5.84-13.92-9.9s-1-13.31-5.12-16.3S88.61,18.57,83.72,17C79,15.46,75.22,6.83,70,6.83S61,15.46,56.28,17c-4.89,1.58-13-3.12-17.08-.16S37.07,29,34.08,33.13s-12.34,5-13.92,9.9c-1.53,4.71,5.45,11,5.45,16.19s-7,11.48-5.45,16.19c1.58,4.89,11,5.84,13.92,9.9s1,13.31,5.12,16.3,12.19-1.74,17.08-.16C61,103,64.78,111.61,70,111.61s9-8.63,13.72-10.16c4.89-1.58,13,3.12,17.08.16s2.13-12.19,5.12-16.3,12.34-5,13.92-9.9C121.37,70.7,114.39,64.44,114.39,59.22Z" transform="translate(-16.44 -3.33)"/><path class="cls-3" d="M70,115.11c-4.44,0-7.59-3.42-10.37-6.44-1.51-1.64-3.22-3.49-4.43-3.89s-3.91.07-6.17.52c-4,.78-8.43,1.66-11.89-.86s-4-7.1-4.51-11.12c-.27-2.27-.58-4.84-1.38-5.95s-3.11-2.14-5.17-3.09c-3.7-1.7-7.9-3.62-9.25-7.78s.9-8,2.84-11.45c1.14-2,2.44-4.36,2.44-5.83s-1.3-3.79-2.44-5.83c-1.94-3.48-4.15-7.43-2.84-11.45s5.55-6.08,9.25-7.78c2.06-.95,4.39-2,5.17-3.09s1.11-3.68,1.38-5.95c.47-4,1-8.57,4.51-11.12s7.94-1.64,11.89-.86c2.26.45,4.83.95,6.17.52s2.92-2.25,4.43-3.89c2.78-3,5.93-6.44,10.37-6.44s7.59,3.42,10.38,6.44c1.5,1.64,3.21,3.49,4.42,3.89s3.91-.07,6.17-.52c4-.78,8.42-1.66,11.89.86s4,7.1,4.51,11.12c.27,2.27.58,4.84,1.38,5.95s3.11,2.14,5.17,3.09c3.7,1.7,7.9,3.62,9.25,7.78s-.9,8-2.84,11.45c-1.14,2-2.44,4.36-2.44,5.83s1.3,3.79,2.44,5.83c1.94,3.48,4.15,7.43,2.84,11.45s-5.55,6.08-9.25,7.78c-2.06,1-4.39,2-5.17,3.09s-1.11,3.68-1.38,5.95c-.47,4-1,8.58-4.51,11.12s-7.94,1.64-11.89.86c-2.26-.45-4.83-1-6.17-.52s-2.92,2.25-4.42,3.89C77.59,111.69,74.44,115.11,70,115.11ZM53.85,97.62a11.26,11.26,0,0,1,3.51.51c3,1,5.22,3.42,7.42,5.8,1.71,1.86,3.85,4.18,5.22,4.18s3.51-2.32,5.22-4.18c2.2-2.38,4.46-4.84,7.42-5.81s6.44-.33,9.69.31c2.29.45,5.42,1.07,6.41.35s1.39-3.81,1.68-6.28c.39-3.28.79-6.66,2.67-9.25s4.94-4,7.91-5.33c2.28-1,5.11-2.34,5.51-3.59s-1.17-3.86-2.29-5.86c-1.64-2.93-3.33-6-3.33-9.25s1.69-6.32,3.33-9.25c1.12-2,2.66-4.75,2.29-5.86s-3.23-2.55-5.51-3.59c-3-1.37-6-2.78-7.91-5.33s-2.28-6-2.67-9.25c-.29-2.47-.66-5.53-1.68-6.28s-4.13-.1-6.41.35c-3.26.64-6.62,1.3-9.69.31s-5.22-3.43-7.42-5.81c-1.71-1.86-3.85-4.18-5.22-4.18s-3.51,2.32-5.22,4.18c-2.2,2.38-4.46,4.84-7.42,5.81s-6.44.33-9.69-.31c-2.29-.45-5.42-1.07-6.41-.35s-1.39,3.82-1.68,6.28c-.39,3.28-.79,6.66-2.67,9.25S32,39.15,29,40.52c-2.28,1-5.11,2.34-5.51,3.59S24.66,48,25.78,50c1.64,2.93,3.33,6,3.33,9.25s-1.69,6.32-3.33,9.25c-1.12,2-2.65,4.75-2.29,5.86s3.23,2.55,5.51,3.59c3,1.37,6,2.78,7.91,5.33s2.28,6,2.67,9.25c.29,2.47.66,5.53,1.68,6.28s4.13.1,6.41-.35A32.94,32.94,0,0,1,53.85,97.62Z" transform="translate(-16.44 -3.33)"/><circle class="cls-1" cx="53.56" cy="55.89" r="33.19"/><path class="cls-3" d="M70,95.91a36.69,36.69,0,1,1,36.69-36.69A36.73,36.73,0,0,1,70,95.91Zm0-66.38A29.69,29.69,0,1,0,99.69,59.22,29.73,29.73,0,0,0,70,29.53Z" transform="translate(-16.44 -3.33)"/><path class="cls-2" d="M64.64,56.49h3.52a5,5,0,0,0,3.73-1.26,4.58,4.58,0,0,0,1.21-3.34,4.08,4.08,0,0,0-1.2-3.13,4.68,4.68,0,0,0-3.3-1.12,4.88,4.88,0,0,0-3.18,1,3.35,3.35,0,0,0-1.28,2.71H57.53a8.09,8.09,0,0,1,1.41-4.67,9.31,9.31,0,0,1,3.93-3.24,13.08,13.08,0,0,1,5.57-1.17c3.52,0,6.28.85,8.28,2.53a8.64,8.64,0,0,1,3,7A7,7,0,0,1,78.32,56a9.1,9.1,0,0,1-3.66,3,8.27,8.27,0,0,1,4.19,3,8.14,8.14,0,0,1,1.39,4.76A8.77,8.77,0,0,1,77,73.85a13,13,0,0,1-8.56,2.67,12.28,12.28,0,0,1-8.15-2.63,8.56,8.56,0,0,1-3.17-7h6.61A3.87,3.87,0,0,0,65.13,70,5.86,5.86,0,0,0,72.29,70a4.31,4.31,0,0,0,1.34-3.31q0-5-5.49-5h-3.5Z" transform="translate(-16.44 -3.33)"/></svg>