<svg id="Layer_1" data-name="Layer 1" xmlns="http://www.w3.org/2000/svg" viewBox="0 0 108.6 120.89"><defs><style>.cls-1{fill:#fff;}.cls-2{fill:#c75049;}.cls-3{fill:#47433d;}</style></defs><title>5</title><rect class="cls-1" x="36.98" y="30.78" width="40.41" height="34.59" transform="translate(33.22 -34.78) rotate(45)"/><path class="cls-2" d="M59.23,79.55,25.71,46,55.13,16.61,88.65,50.14ZM35.61,46,59.23,69.65,78.75,50.14,55.13,26.51Z" transform="translate(-17.52 -8.43)"/><path class="cls-1" d="M61.36,78.66h60.89a8.1,8.1,0,0,1,8.1,8.1v0a8.1,8.1,0,0,1-8.1,8.1H61.36a0,0,0,0,1,0,0V78.66a0,0,0,0,1,0,0Z" transform="translate(71.9 -50.8) rotate(45)"/><path class="cls-2" d="M114.52,117a11.56,11.56,0,0,1-8.2-3.39L60.79,68.1l16.4-16.41,45.54,45.53a11.6,11.6,0,0,1-8.21,19.8Zm-3.25-8.34a4.6,4.6,0,1,0,6.51-6.51L77.19,61.59l-6.5,6.51Z" transform="translate(-17.52 -8.43)"/><path class="cls-1" d="M19.07,58H59.47a0,0,0,0,1,0,0V69.87A4.15,4.15,0,0,1,55.32,74H23.22a4.15,4.15,0,0,1-4.15-4.15V58a0,0,0,0,1,0,0Z" transform="translate(40.64 -16.87) rotate(45)"/><path class="cls-2" d="M47.88,87.74a7.6,7.6,0,0,1-5.41-2.24h0L19.77,62.79a7.63,7.63,0,0,1,0-10.82L30.66,41.08,64.18,74.6,53.29,85.5A7.64,7.64,0,0,1,47.88,87.74ZM30.66,51l-5.94,5.94a.64.64,0,0,0,0,.92L47.42,80.55a.65.65,0,0,0,.46.19.68.68,0,0,0,.46-.19l5.95-6Z" transform="translate(-17.52 -8.43)"/><path class="cls-1" d="M13.47,99.47h35a5,5,0,0,1,5,5v12.89a0,0,0,0,1,0,0H8.44a0,0,0,0,1,0,0V104.5A5,5,0,0,1,13.47,99.47Z"/><path class="cls-3" d="M74.53,129.31H22.46V112.93A8.54,8.54,0,0,1,31,104.4H66a8.54,8.54,0,0,1,8.53,8.53Zm-45.07-7H67.53v-9.38A1.53,1.53,0,0,0,66,111.4H31a1.53,1.53,0,0,0-1.53,1.53Z" transform="translate(-17.52 -8.43)"/><path class="cls-1" d="M59,22.14h32.1a4.15,4.15,0,0,1,4.15,4.15V38.2a0,0,0,0,1,0,0H54.89a0,0,0,0,1,0,0V26.29A4.15,4.15,0,0,1,59,22.14Z" transform="translate(25.8 -52.69) rotate(45)"/><path class="cls-2" d="M83.7,55.08,50.18,21.56,61.07,10.67a7.65,7.65,0,0,1,10.82,0l22.7,22.7a7.63,7.63,0,0,1,0,10.82ZM60.08,21.56,83.7,45.19l6-5.95a.68.68,0,0,0,.19-.46.65.65,0,0,0-.19-.46L66.94,15.62a.64.64,0,0,0-.92,0Z" transform="translate(-17.52 -8.43)"/><rect class="cls-3" x="8.44" y="113.89" width="69.9" height="7"/></svg>