<svg id="Layer_1" data-name="Layer 1" xmlns="http://www.w3.org/2000/svg" viewBox="0 0 50 50"><defs><style>.cls-1{fill:#c75049;}.cls-2{fill:#b0afb1;}</style></defs><title>ic11</title><path class="cls-1" d="M86.36,56.06a25.17,25.17,0,0,0-9.15-9.15,24.85,24.85,0,0,0-12.5-3.35V53.82a14.75,14.75,0,0,1,0,29.49V93.56a24.85,24.85,0,0,0,12.5-3.35,25.17,25.17,0,0,0,9.15-9.15,25,25,0,0,0,0-25Z" transform="translate(-39.71 -43.56)"/><path class="cls-2" d="M57.34,55.79a14.73,14.73,0,0,1,7.37-2V43.56a24.88,24.88,0,0,0-12.5,3.35,25.24,25.24,0,0,0-9.15,9.15,25,25,0,0,0,0,25,25.24,25.24,0,0,0,9.15,9.15,24.88,24.88,0,0,0,12.5,3.35V83.31a14.75,14.75,0,0,1-7.37-27.52Z" transform="translate(-39.71 -43.56)"/></svg>