<svg id="Layer_1" data-name="Layer 1" xmlns="http://www.w3.org/2000/svg" viewBox="0 0 50 50"><defs><style>.cls-1{fill:#c75049;}</style></defs><title>ic12</title><path class="cls-1" d="M86.36,56.24a25.17,25.17,0,0,0-9.15-9.15,25,25,0,0,0-25,0,25.24,25.24,0,0,0-9.15,9.15,25,25,0,0,0,0,25,25.24,25.24,0,0,0,9.15,9.15A25,25,0,0,0,86.36,56.24ZM72.08,81.51a14.77,14.77,0,0,1-14.74,0A14.73,14.73,0,0,1,50,68.74a14.7,14.7,0,0,1,2-7.37A14.77,14.77,0,0,1,64.71,54a14.75,14.75,0,0,1,7.37,27.52Z" transform="translate(-39.71 -43.74)"/></svg>