<svg id="Layer_1" data-name="Layer 1" xmlns="http://www.w3.org/2000/svg" viewBox="0 0 50 50"><defs><style>.cls-1{fill:#c75049;}.cls-2{fill:#b0afb1;}</style></defs><title>ic10</title><path class="cls-1" d="M86.36,57a25,25,0,0,0-21.65-12.5V54.74A14.77,14.77,0,0,1,79.46,69.49H89.71A24.85,24.85,0,0,0,86.36,57Z" transform="translate(-39.71 -44.49)"/><path class="cls-2" d="M79.46,69.49A14.74,14.74,0,1,1,64.71,54.74V44.49a24.88,24.88,0,0,0-12.5,3.35A25,25,0,1,0,86.36,82a24.88,24.88,0,0,0,3.35-12.5Z" transform="translate(-39.71 -44.49)"/></svg>