<svg id="Layer_1" data-name="Layer 1" xmlns="http://www.w3.org/2000/svg" viewBox="0 0 50 50"><defs><style>.cls-1{fill:#c75049;}.cls-2{fill:#b0afb1;}</style></defs><title>ic9</title><path class="cls-1" d="M72.08,56.65l5.13-8.88a24.85,24.85,0,0,0-12.5-3.35V54.67A14.61,14.61,0,0,1,72.08,56.65Z" transform="translate(-39.71 -44.42)"/><path class="cls-2" d="M86.36,56.92a25.09,25.09,0,0,0-9.15-9.15l-5.13,8.88a14.71,14.71,0,1,1-7.37-2V44.42a24.88,24.88,0,0,0-12.5,3.35A25,25,0,1,0,86.36,81.92a25,25,0,0,0,0-25Z" transform="translate(-39.71 -44.42)"/></svg>