<svg id="Layer_1" data-name="Layer 1" xmlns="http://www.w3.org/2000/svg" viewBox="0 0 74.87 76.1"><defs><style>.cls-1{fill:#c75049;}.cls-2{fill:#47433d;}</style></defs><title>ic5</title><rect class="cls-1" x="6.22" y="63.81" width="8.53" height="10.03"/><rect class="cls-1" x="60" y="63.81" width="8.53" height="10.03"/><rect class="cls-1" x="33.17" y="63.81" width="8.53" height="10.03"/><path class="cls-2" d="M34.22,64.18l-2.58-30.3,30.3-2.58,2.58,30.3ZM36.51,38l1.82,21.32,21.32-1.82L57.83,36.17Z" transform="translate(-27.13 -31.3)"/><path class="cls-2" d="M92.46,64.94H62.05V34.53H92.46Zm-25.9-4.5H88V39H66.56Z" transform="translate(-27.13 -31.3)"/><path class="cls-2" d="M66.56,90.85H36.15V60.44H66.56ZM40.65,86.34h21.4V64.94H40.65Z" transform="translate(-27.13 -31.3)"/><path class="cls-2" d="M92.46,90.85H62.05V60.44H92.46Zm-25.9-4.51H88V64.94H66.56Z" transform="translate(-27.13 -31.3)"/><path class="cls-1" d="M99.75,97.36H29.38a2.25,2.25,0,1,1,0-4.5H99.75a2.25,2.25,0,0,1,0,4.5Z" transform="translate(-27.13 -31.3)"/><path class="cls-1" d="M99.75,107.4H29.38a2.26,2.26,0,0,1,0-4.51H99.75a2.26,2.26,0,0,1,0,4.51Z" transform="translate(-27.13 -31.3)"/></svg>