<svg id="Layer_1" data-name="Layer 1" xmlns="http://www.w3.org/2000/svg" viewBox="0 0 66.6 85.65"><defs><style>.cls-1{fill:#47433d;}.cls-2{fill:#c75049;}</style></defs><title>ic8</title><path class="cls-1" d="M67.33,83.15H40.06V55.88H67.33ZM44.56,78.64H62.82V60.38H44.56Z" transform="translate(-31.77 -26.34)"/><path class="cls-1" d="M90.09,83.15H62.82V55.88H90.09ZM67.33,78.64H85.59V60.38H67.33Z" transform="translate(-31.77 -26.34)"/><path class="cls-1" d="M95.34,60.38H34.94l30.2-34ZM45,55.88H85.32L65.14,33.13Z" transform="translate(-31.77 -26.34)"/><path class="cls-2" d="M98.38,112H80.09v-2.25a15,15,0,1,0-30,0V112H31.77V78.64H98.38Zm-13.91-4.51h9.4V83.15H36.28v24.33h9.4a19.53,19.53,0,0,1,38.79,0Z" transform="translate(-31.77 -26.34)"/></svg>