<svg id="Layer_1" data-name="Layer 1" xmlns="http://www.w3.org/2000/svg" viewBox="0 0 55.26 73.35"><defs><style>.cls-1{fill:#47433d;}.cls-2{fill:#fff;}.cls-3{fill:#c75049;}</style></defs><title>ic7</title><path class="cls-1" d="M79.27,105.48H50.63a13.32,13.32,0,0,1-13.31-13.3V47.64H92.59V92.18A13.33,13.33,0,0,1,79.27,105.48ZM41.83,52.15v40a8.81,8.81,0,0,0,8.8,8.8H79.27a8.82,8.82,0,0,0,8.81-8.8v-40Z" transform="translate(-37.32 -32.14)"/><circle class="cls-2" cx="16.55" cy="28.98" r="4.62"/><path class="cls-3" d="M53.87,67.67a6.55,6.55,0,1,1,6.55-6.55A6.56,6.56,0,0,1,53.87,67.67Zm0-9.24a2.69,2.69,0,1,0,2.69,2.69A2.7,2.7,0,0,0,53.87,58.43Z" transform="translate(-37.32 -32.14)"/><circle class="cls-2" cx="37.92" cy="28.98" r="4.62"/><path class="cls-3" d="M75.24,67.67a6.55,6.55,0,1,1,6.55-6.55A6.56,6.56,0,0,1,75.24,67.67Zm0-9.24a2.69,2.69,0,1,0,2.69,2.69A2.7,2.7,0,0,0,75.24,58.43Z" transform="translate(-37.32 -32.14)"/><path class="cls-1" d="M75.24,61.44A2.25,2.25,0,0,1,73,59.19V45.07a8.44,8.44,0,0,0-16.87,0V59.19a2.26,2.26,0,0,1-4.51,0V45.07a12.94,12.94,0,0,1,25.88,0V59.19A2.25,2.25,0,0,1,75.24,61.44Z" transform="translate(-37.32 -32.14)"/></svg>