<svg id="Layer_1" data-name="Layer 1" xmlns="http://www.w3.org/2000/svg" viewBox="0 0 146 146"><defs><style>.cls-1{fill:#48443e;}.cls-2{fill:#d14a43;}</style></defs><title>3</title><polygon class="cls-1" points="57.82 52.85 87.49 52.85 72.66 67.36 57.82 52.85"/><polygon class="cls-1" points="89.95 102.89 55.35 102.89 72.66 85.97 89.95 102.89"/><path class="cls-2" d="M-65.39,112.9a73.07,73.07,0,0,1-73-73,73.08,73.08,0,0,1,73-73,73.09,73.09,0,0,1,73,73A73.08,73.08,0,0,1-65.39,112.9Zm0-136a63.08,63.08,0,0,0-63,63,63.07,63.07,0,0,0,63,63,63.08,63.08,0,0,0,63-63A63.08,63.08,0,0,0-65.39-23.1Z" transform="translate(138.39 33.1)"/><path class="cls-2" d="M-65.39,95.9a56.06,56.06,0,0,1-56-56,56.07,56.07,0,0,1,56-56,56.07,56.07,0,0,1,56,56A56.07,56.07,0,0,1-65.39,95.9Zm0-109.33A53.4,53.4,0,0,0-118.73,39.9,53.4,53.4,0,0,0-65.39,93.24,53.4,53.4,0,0,0-12.06,39.9,53.4,53.4,0,0,0-65.39-13.43Z" transform="translate(138.39 33.1)"/><path class="cls-1" d="M-84.89,71.92h-4.67V60A8.54,8.54,0,0,1-87,53.89l11.15-11.15A3.89,3.89,0,0,0-74.74,40a3.91,3.91,0,0,0-1.15-2.78L-87,26A8.51,8.51,0,0,1-89.56,20V8h4.67V20a3.91,3.91,0,0,0,1.15,2.78l11.15,11.15A8.54,8.54,0,0,1-70.08,40,8.53,8.53,0,0,1-72.59,46L-83.74,57.19A3.93,3.93,0,0,0-84.89,60Z" transform="translate(138.39 33.1)"/><path class="cls-1" d="M-42.17,71.92h-4.67V60A3.93,3.93,0,0,0-48,57.19L-59.14,46A8.53,8.53,0,0,1-61.65,40a8.54,8.54,0,0,1,2.51-6.08L-48,22.74A3.87,3.87,0,0,0-46.84,20V8h4.67V20A8.51,8.51,0,0,1-44.69,26L-55.84,37.19A3.91,3.91,0,0,0-57,40a3.89,3.89,0,0,0,1.15,2.77l11.15,11.15A8.54,8.54,0,0,1-42.17,60Z" transform="translate(138.39 33.1)"/><rect class="cls-1" x="45.54" y="102.68" width="54.78" height="4.67"/><rect class="cls-1" x="45.54" y="38.78" width="54.78" height="4.67"/></svg>