<svg id="Layer_1" data-name="Layer 1" xmlns="http://www.w3.org/2000/svg" viewBox="0 0 146 146"><defs><style>.cls-1{fill:#47433d;}.cls-2{fill:#c75049;}</style></defs><title>1</title><path class="cls-1" d="M99.27,140.26V130c-5.9-.1-12-1.9-15.6-4.5l2.4-6.8a27.76,27.76,0,0,0,14.7,4.4c7.2,0,12.1-4.2,12.1-10,0-5.6-4-9.1-11.5-12.1-10.4-4.1-16.8-8.8-16.8-17.6,0-8.4,6-14.9,15.4-16.4V56.76h6.3v9.9a26.06,26.06,0,0,1,13.2,3.6L117,77a24.55,24.55,0,0,0-12.8-3.5c-7.9,0-10.8,4.6-10.8,8.7,0,5.3,3.8,7.9,12.6,11.6,10.5,4.3,15.8,9.6,15.8,18.6,0,8-5.6,15.6-16.1,17.3v10.6Z" transform="translate(-29.97 -24.96)"/><path class="cls-2" d="M103,171a73,73,0,1,1,73-73A73,73,0,0,1,103,171Zm0-136a63,63,0,1,0,63,63A63.12,63.12,0,0,0,103,35Z" transform="translate(-29.97 -24.96)"/><path class="cls-2" d="M103,154a56,56,0,1,1,56-56A56,56,0,0,1,103,154Zm0-109.3A53.3,53.3,0,1,0,156.27,98,53.35,53.35,0,0,0,103,44.66Z" transform="translate(-29.97 -24.96)"/></svg>