<svg id="Layer_1" data-name="Layer 1" xmlns="http://www.w3.org/2000/svg" viewBox="0 0 146 146"><defs><style>.cls-1{fill:#d14a43;}.cls-2{fill:#48443e;}</style></defs><title>2</title><path class="cls-1" d="M73,146a73,73,0,1,1,73-73A73.09,73.09,0,0,1,73,146ZM73,10a63,63,0,1,0,63,63A63.07,63.07,0,0,0,73,10Z" transform="translate(0 0)"/><path class="cls-1" d="M73,129a56,56,0,1,1,56-56A56.06,56.06,0,0,1,73,129ZM73,19.67A53.33,53.33,0,1,0,126.33,73,53.39,53.39,0,0,0,73,19.67Z" transform="translate(0 0)"/><path class="cls-2" d="M92.81,112.65,80.88,100.72A33.51,33.51,0,0,1,38.42,56.19L39.77,53,62.85,76.09A24,24,0,0,0,76.07,62.87L53,39.79l3.18-1.35A33.51,33.51,0,0,1,100.7,80.91l11.93,11.92-3.3,3.3L95.2,82l.62-1.45a28.85,28.85,0,0,0-34.48-39l20.1,20.1L81,63A28.55,28.55,0,0,1,63,81l-1.37.46L41.53,61.37a28.85,28.85,0,0,0,39,34.47L82,95.22l14.12,14.13Z" transform="translate(0 0)"/></svg>