<svg id="Layer_1" data-name="Layer 1" xmlns="http://www.w3.org/2000/svg" viewBox="0 0 149.95 113.61"><defs><style>.cls-1{fill:#d14a43;}.cls-2{fill:#fff;}.cls-3{fill:#48443e;}</style></defs><title>4</title><polygon class="cls-1" points="125 45.64 115.76 15.84 33.08 15.84 23.84 45.64 17.15 43.57 27.92 8.84 120.92 8.84 131.69 43.57 125 45.64"/><rect class="cls-1" x="48.02" y="106.61" width="52.8" height="7"/><rect class="cls-1" x="70.92" y="18.53" width="7" height="91.58"/><circle class="cls-2" cx="74.42" cy="12.34" r="8.84"/><path class="cls-1" d="M71.83,40.26A12.35,12.35,0,1,1,84.17,27.92,12.36,12.36,0,0,1,71.83,40.26Zm0-17.69a5.35,5.35,0,1,0,5.34,5.35A5.35,5.35,0,0,0,71.83,22.57Z" transform="translate(2.59 -15.57)"/><rect class="cls-1" x="29.41" y="27.16" width="7" height="33.78" transform="translate(-8.98 -3.86) rotate(-17.22)"/><rect class="cls-1" x="93.87" y="40.55" width="33.78" height="7" transform="translate(38.48 121.22) rotate(-72.78)"/><polygon class="cls-2" points="143.34 68.26 145.93 59.29 138.57 53.56 135.39 44.8 126.07 44.48 118.34 39.26 110.61 44.48 101.3 44.8 98.11 53.56 90.76 59.29 93.34 68.26 90.76 77.22 98.11 82.95 101.3 91.72 110.61 92.04 118.34 97.25 126.07 92.04 135.39 91.72 138.57 82.95 145.93 77.22 143.34 68.26"/><path class="cls-3" d="M115.75,117.05l-8.85-6-10.68-.37-3.64-10L84.15,94.1l3-10.27-3-10.27L92.58,67l3.64-10,10.68-.36,8.85-6,8.86,6,10.67.36,3.65,10,8.43,6.56-3,10.27,3,10.27-8.43,6.57-3.65,10-10.67.37Zm-14.56-13.18,8,.28,6.6,4.46,6.61-4.46,8-.28L133,96.38l6.29-4.89-2.21-7.66,2.21-7.66L133,71.28l-2.71-7.49-8-.28-6.61-4.45-6.6,4.45-8,.28-2.72,7.49-6.28,4.89,2.21,7.66-2.21,7.66,6.28,4.89Z" transform="translate(2.59 -15.57)"/><polygon class="cls-1" points="117.94 80.46 103.44 67.56 108.09 62.33 117.42 70.63 128.33 58.62 133.51 63.33 117.94 80.46"/><circle class="cls-2" cx="30.5" cy="68.26" r="27"/><path class="cls-3" d="M27.91,114.33a30.5,30.5,0,1,1,30.5-30.5A30.53,30.53,0,0,1,27.91,114.33Zm0-54a23.5,23.5,0,1,0,23.5,23.5A23.52,23.52,0,0,0,27.91,60.33Z" transform="translate(2.59 -15.57)"/><path class="cls-2" d="M18.37,94.82H32a5.49,5.49,0,0,0,5.5-5.49h0a5.5,5.5,0,0,0-5.5-5.5H23.87a5.49,5.49,0,0,1-5.5-5.49h0a5.5,5.5,0,0,1,5.5-5.5H37.45" transform="translate(2.59 -15.57)"/><path class="cls-1" d="M32,98.32H18.37v-7H32a2,2,0,1,0,0-4H23.87a9,9,0,1,1,0-18H37.45v7H23.87a2,2,0,1,0,0,4H32a9,9,0,1,1,0,18Z" transform="translate(2.59 -15.57)"/><line class="cls-2" x1="30.5" y1="57.27" x2="30.5" y2="48.46"/><rect class="cls-1" x="27" y="48.46" width="7" height="8.81"/><line class="cls-2" x1="30.5" y1="88.06" x2="30.5" y2="79.25"/><rect class="cls-1" x="27" y="79.25" width="7" height="8.81"/></svg>