<svg id="Layer_1" data-name="Layer 1" xmlns="http://www.w3.org/2000/svg" viewBox="0 0 200.27 107.42"><defs><style>.cls-1{fill:#d14a43;}.cls-2{fill:#fff;}.cls-3{fill:#48443e;}</style></defs><title>5</title><path class="cls-1" d="M168.57,115H154.38a3.5,3.5,0,0,1,0-7h14.19a3.5,3.5,0,0,1,0,7Z" transform="translate(28.21 -19.13)"/><path class="cls-1" d="M168.57,98.22H154.38a3.5,3.5,0,0,1,0-7h14.19a3.5,3.5,0,0,1,0,7Z" transform="translate(28.21 -19.13)"/><path class="cls-1" d="M30.56,106.74H5A11.89,11.89,0,0,1-6.88,94.86V84.07h7V94.86A4.89,4.89,0,0,0,5,99.74H30.56Z" transform="translate(28.21 -19.13)"/><path class="cls-2" d="M18,50.05A21.34,21.34,0,0,0-5.86,28.85,21.36,21.36,0,0,0-24.53,47.18a21.32,21.32,0,0,0,6.8,18.64,11.53,11.53,0,0,1,3.84,8.51v.31A10.51,10.51,0,0,0-3.38,85.16h0A10.51,10.51,0,0,0,7.13,74.64v-.3A11.7,11.7,0,0,1,11,65.75,21.24,21.24,0,0,0,18,50.05Z" transform="translate(28.21 -19.13)"/><path class="cls-3" d="M-3.38,88.66a14,14,0,0,1-14-14v-.31a8,8,0,0,0-2.69-5.92A25,25,0,0,1-28,46.73,25,25,0,0,1-6.25,25.37a25,25,0,0,1,19.41,6.15,24.87,24.87,0,0,1,8.29,18.53,24.89,24.89,0,0,1-8,18.28,8.14,8.14,0,0,0-2.78,6v.3A14,14,0,0,1-3.38,88.66Zm0-56.45a18.79,18.79,0,0,0-2.11.12,17.91,17.91,0,0,0-15.59,15.3,17.71,17.71,0,0,0,5.69,15.6,15.07,15.07,0,0,1,5,11.1v.31a7,7,0,0,0,7,7,7,7,0,0,0,7-7v-.3a15.28,15.28,0,0,1,5-11.17,17.83,17.83,0,0,0,5.78-13.12A17.89,17.89,0,0,0,8.5,36.74,17.63,17.63,0,0,0-3.36,32.21Z" transform="translate(28.21 -19.13)"/><rect class="cls-1" x="-9.34" y="48.01" width="5" height="23.37" transform="translate(10.23 -18.48) rotate(-17.22)"/><rect class="cls-1" x="-11.61" y="57.2" width="23.37" height="5" transform="matrix(0.3, -0.96, 0.96, 0.3, -28.76, 22.97)"/><path class="cls-3" d="M14.31,55.14h21a0,0,0,0,1,0,0v.37A10.51,10.51,0,0,1,24.83,66h0A10.51,10.51,0,0,1,14.31,55.51v-.37a0,0,0,0,1,0,0Z"/><path class="cls-3" d="M-3.38,88.66a14,14,0,0,1-14-14V70.78h28v3.86A14,14,0,0,1-3.38,88.66ZM-9.66,77.78a7,7,0,0,0,6.28,3.88A7,7,0,0,0,2.9,77.78Z" transform="translate(28.21 -19.13)"/><rect class="cls-1" x="136.59" y="80.61" width="16.44" height="7"/><path class="cls-3" d="M157.88,122.42H140.49a19.18,19.18,0,1,1,0-38.35h17.39ZM140.49,91.07a12.18,12.18,0,1,0,0,24.35h10.39V91.07Z" transform="translate(28.21 -19.13)"/><circle class="cls-3" cx="168.52" cy="84.11" r="3.15"/><path class="cls-1" d="M93.42,56.25c-3.6,0-5.42-2.28-6.75-3.94s-1.74-2.06-2.84-2.06-1.62.53-2.84,2.06-3.14,3.94-6.74,3.94S68.83,54,67.5,52.31s-1.74-2.06-2.83-2.06-1.62.53-2.84,2.06-3.15,3.94-6.75,3.94S49.67,54,48.34,52.31s-1.74-2.06-2.84-2.06v-5c3.6,0,5.42,2.27,6.75,3.94s1.74,2.06,2.83,2.06,1.62-.54,2.84-2.06,3.15-3.94,6.75-3.94,5.41,2.27,6.74,3.94,1.74,2.06,2.84,2.06,1.62-.54,2.84-2.06,3.15-3.94,6.74-3.94,5.42,2.27,6.75,3.94,1.75,2.06,2.84,2.06Z" transform="translate(28.21 -19.13)"/><path class="cls-3" d="M111.88,126.55H27.06V19.13h84.82Zm-77.82-7h70.82V26.13H34.06Z" transform="translate(28.21 -19.13)"/><path class="cls-3" d="M96.92,67.5H42V34h54.9ZM49,60.5h40.9V41H49Z" transform="translate(28.21 -19.13)"/><circle class="cls-1" cx="79.87" cy="66.03" r="6.16"/><circle class="cls-1" cx="98.47" cy="66.03" r="6.16"/><circle class="cls-1" cx="117.07" cy="66.03" r="6.16"/><circle class="cls-1" cx="79.87" cy="84.39" r="6.16"/><circle class="cls-1" cx="98.47" cy="84.39" r="6.16"/><circle class="cls-1" cx="117.07" cy="84.39" r="6.16"/></svg>