<?xml version="1.0" encoding="utf-8"?>
<!DOCTYPE svg PUBLIC "-//W3C//DTD SVG 1.1//EN" "http://www.w3.org/Graphics/SVG/1.1/DTD/svg11.dtd">
<svg xmlns="http://www.w3.org/2000/svg" viewBox="0 0 283.56 60.01">
  <defs>
    <style>
      .cls-1 {
        fill: rgba(58, 58, 58, 1);
      }

      .cls-2 {
        fill: rgba(224, 153, 41, 1);
      }

    </style>
  </defs>
  <title>Слой 1-2 (3)</title>
  <g id="Слой_2" data-name="Слой 2">
    <g id="Слой_1-2" data-name="Слой 1">
      <g id="Слой_1-2-2" data-name="Слой 1-2">
        <path class="cls-1" d="M35.53,2.69a6.32,6.32,0,0,1,1.37.15,7.33,7.33,0,0,1,3.33,1.57,4,4,0,0,1,1,2.94,18,18,0,0,1-.35,3.18c-.23,1.25-.52,2.75-.88,4.51s-.78,3.8-1.26,6.12-1,5-1.57,8c1.23-2.4,2.54-4.88,3.94-7.42s2.86-5.06,4.36-7.53,3-4.9,4.59-7.27S53.16,2.39,54.69.4a.18.18,0,0,1,.15-.07,13.21,13.21,0,0,1,5,1.56,3.09,3.09,0,0,1,1.37,2.72A7.49,7.49,0,0,1,61,6.43c-.18.67-.42,1.43-.73,2.3q-1.3,3.9-2.91,8.83t-3,10.14Q52.9,32.89,51.93,38a50.56,50.56,0,0,0-1,9.26,20.09,20.09,0,0,0,.35,3.86,6,6,0,0,0,1.34,2.94c.2.21.3.36.3.46s-.25.21-.76.31L50.59,55c-.51,0-1,.08-1.6.08a4.42,4.42,0,0,1-4.36-2.53,14.62,14.62,0,0,1-1.23-6.42,37.85,37.85,0,0,1,.42-5.43c.28-1.94.61-3.91,1-5.89s.88-4,1.41-5.93,1.07-3.8,1.61-5.5,1-3.25,1.49-4.63.81-2.5,1.07-3.37q-3.75,5.73-7.07,12.05t-6.24,12.5l-.53,1.34A4.75,4.75,0,0,1,36,42.39a2.09,2.09,0,0,1-1.45.38,6,6,0,0,1-3.14-.8,2.93,2.93,0,0,1-1.3-2.71,35.66,35.66,0,0,1,.54-5.36c.35-2.24.76-4.58,1.22-7s.88-4.73,1.26-6.89a35.53,35.53,0,0,0,.54-5.24v-.15q-4.36,10.17-9.18,20.11A175.13,175.13,0,0,1,13.73,53.85,22,22,0,0,1,12.16,56a15.62,15.62,0,0,1-1.95,2,11.72,11.72,0,0,1-2.3,1.45,6,6,0,0,1-2.52.6,6.35,6.35,0,0,1-3.1-1A5.37,5.37,0,0,1,0,56.76c-.1-.15,0-.27.19-.34a1.47,1.47,0,0,0,.49-.27,17.43,17.43,0,0,0,5.51-4.28,72.1,72.1,0,0,0,6.08-7.65q3.11-4.44,6.16-9.6t5.74-10.1q2.67-4.95,4.85-9.14c1.46-2.8,2.59-5,3.41-6.65A25.56,25.56,0,0,0,27.69,10,21.23,21.23,0,0,0,23,12.4a19.9,19.9,0,0,0-3.9,3.37A12.69,12.69,0,0,0,16.56,20c-.1.1-.18.13-.23.08a4.5,4.5,0,0,1-1.84-1.95,6.89,6.89,0,0,1-.84-3.41,7.51,7.51,0,0,1,2.26-5.5,17.55,17.55,0,0,1,5.47-3.75,28.42,28.42,0,0,1,6.73-2.1,32.69,32.69,0,0,1,6-.65Z" />
        <path class="cls-1" d="M79.77,28.77A44.15,44.15,0,0,0,78,33.55q-.84,2.64-1.41,5.31A22.06,22.06,0,0,0,76,43.3c0,1.38.28,2.06.85,2.06a2.57,2.57,0,0,0,1.64-.8,16,16,0,0,0,1.72-1.87c.56-.72,1.08-1.44,1.57-2.18a15.6,15.6,0,0,0,1-1.65l.08-.15a2,2,0,0,1,.84-.84,1.92,1.92,0,0,1,.84-.23,1.54,1.54,0,0,1,1,.34,1,1,0,0,1,.42.73,2.5,2.5,0,0,1-.26.8A12.6,12.6,0,0,1,85,40.7c-.26.41-.5.8-.73,1.19s-.4.65-.5.8a22,22,0,0,1-1.76,2.9,19.79,19.79,0,0,1-2.33,2.76,18.18,18.18,0,0,1-2.56,2.06,4.6,4.6,0,0,1-2.45.84,4,4,0,0,1-2.37-.65A4.59,4.59,0,0,1,71,48.92a7.36,7.36,0,0,1-.73-2.33A18,18,0,0,1,70,44.06a18.77,18.77,0,0,1,.23-3c-.56.86-1.25,1.88-2.07,3a25.73,25.73,0,0,1-2.75,3.33,20.11,20.11,0,0,1-3.21,2.68,6.23,6.23,0,0,1-3.44,1.11,3.24,3.24,0,0,1-2.18-.69,4.9,4.9,0,0,1-1.27-1.76,8.82,8.82,0,0,1-.61-2.29,16.56,16.56,0,0,1-.15-2.22,23.15,23.15,0,0,1,1.07-6.35,33.37,33.37,0,0,1,2.94-7A23.12,23.12,0,0,1,63,25.14a7.66,7.66,0,0,1,5.32-2.34,5.72,5.72,0,0,1,3.36,1.07,4.64,4.64,0,0,1,1.92,2.91A5.51,5.51,0,0,1,75.14,24a3.28,3.28,0,0,1,2.15-.81,4.4,4.4,0,0,1,2.48.77,5.6,5.6,0,0,1,1.8,1.76.34.34,0,0,1-.08.23A8.83,8.83,0,0,0,79.77,28.77ZM69.56,35.54c-.46-.18-.64-.35-.54-.5a6.87,6.87,0,0,0,.5-1.11c.18-.48.37-1,.58-1.61a16.38,16.38,0,0,0,.49-1.79,8.11,8.11,0,0,0,.19-1.69,4,4,0,0,0-.3-1.45,1.12,1.12,0,0,0-1.15-.76,1.42,1.42,0,0,0-1,.38A12.38,12.38,0,0,0,66,29.72a25.12,25.12,0,0,0-2.17,3.94A30.19,30.19,0,0,0,62.22,38a14.11,14.11,0,0,0-.61,3.71,4.93,4.93,0,0,0,.22,1.57,1.17,1.17,0,0,0,.85.8,3.34,3.34,0,0,0,2-.8,16.42,16.42,0,0,0,2-1.91,27.86,27.86,0,0,0,1.8-2.26l1.34-1.91a9.48,9.48,0,0,1,.61-1.38A3.3,3.3,0,0,1,69.56,35.54Z" />
        <path class="cls-1" d="M97,33.78c.25-1.1.51-2.18.76-3.25a2.36,2.36,0,0,1,.12-.54,2.85,2.85,0,0,0,.11-.76c0-.31-.1-.46-.3-.46-.36,0-.9.47-1.61,1.41a36.62,36.62,0,0,0-2.37,3.64c-.87,1.48-1.74,3.09-2.6,4.85s-1.66,3.46-2.37,5.09-1.3,3.1-1.76,4.4a7.38,7.38,0,0,0-.61,2.71c0,.26-.26.38-.77.38A4.81,4.81,0,0,1,84.28,51a4.67,4.67,0,0,1-1.53-.92,5.21,5.21,0,0,1-1.22-1.76,6.86,6.86,0,0,1-.5-2.79,5.34,5.34,0,0,1,0-.8,4.54,4.54,0,0,1,.12-.88,21.19,21.19,0,0,1,.61-2.76c.3-1.12.66-2.34,1.07-3.67.25-.92.56-1.87.92-2.87s.68-2,1-3.06.57-2.06.8-3.06a12.54,12.54,0,0,0,.35-2.79,2.66,2.66,0,0,0-.31-1.15q-.15-.15,0-.15A6.26,6.26,0,0,1,87.76,23a6.65,6.65,0,0,1,2.6-.54,3.53,3.53,0,0,1,2.22.69,2.53,2.53,0,0,1,.84,2.29A10.15,10.15,0,0,1,92.81,28c-.36,1-.69,2-1,3l-.6,2c.61-1,1.28-2.11,2-3.28a26.25,26.25,0,0,1,2.45-3.29,12.92,12.92,0,0,1,2.94-2.53,6.39,6.39,0,0,1,3.45-1c2.24,0,3.36,1.09,3.36,3.29a10.22,10.22,0,0,1-.27,2.33c-.18.79-.34,1.52-.49,2.18l-1.15,4.13q1.14-2.3,2.48-4.47a28.87,28.87,0,0,1,2.8-3.87,13.87,13.87,0,0,1,3.06-2.71,6,6,0,0,1,3.36-1,4.67,4.67,0,0,1,2.72.68,3,3,0,0,1,1,2.6,9.27,9.27,0,0,1-.3,2.34c-.21.79-.39,1.51-.54,2.18-.31,1.17-.65,2.44-1,3.82l-1.11,4c-.36,1.3-.65,2.48-.88,3.55a12.63,12.63,0,0,0-.34,2.53,2.22,2.22,0,0,0,.07.57c0,.18.2.27.46.27a2.79,2.79,0,0,0,1.68-.88,22.19,22.19,0,0,0,2-2c.66-.75,1.31-1.46,1.87-2.18a10.77,10.77,0,0,0,1.07-1.53,2.2,2.2,0,0,1,1.84-1.07,1.51,1.51,0,0,1,1,.31.84.84,0,0,1,.38.68.3.3,0,0,1-.08.23c-.61,1.2-1.27,2.38-2,3.52a33.46,33.46,0,0,1-2.91,4,20.46,20.46,0,0,1-3.51,3.32,7,7,0,0,1-3.79,1.46L111.45,51a4.57,4.57,0,0,1-2.64-2.6,10.29,10.29,0,0,1-.72-3.75,10.53,10.53,0,0,1,.07-1.26,9.56,9.56,0,0,1,.23-1.49,14.11,14.11,0,0,1,.42-1.84c.22-.92.5-2,.81-3.1s.6-2.32.88-3.52.49-2.2.65-3a2.46,2.46,0,0,0,.15-.53,4.11,4.11,0,0,0,.08-.77c0-.3-.08-.46-.23-.46a1,1,0,0,0-.58.31,6.34,6.34,0,0,0-.68.69,4.36,4.36,0,0,0-.58.76,3.29,3.29,0,0,1-.38.54,56.52,56.52,0,0,0-4.4,8c-1.3,2.86-2.46,5.66-3.48,8.42L100.46,49a9.47,9.47,0,0,0-.46,1.68c0,.31-.13.46-.23.46a.27.27,0,0,1-.23-.08,7.69,7.69,0,0,1-3.67-1.83,5.25,5.25,0,0,1-1.22-3.83,18.33,18.33,0,0,1,.49-4.24c.33-1.4.7-2.77,1.11-4.09C96.51,36,96.76,34.87,97,33.78Z" />
        <path class="cls-1" d="M146.23,28.77a47.29,47.29,0,0,0-1.79,4.78A53.35,53.35,0,0,0,143,38.86a22,22,0,0,0-.57,4.44c0,1.38.28,2.06.84,2.06a2.52,2.52,0,0,0,1.64-.8,16,16,0,0,0,1.72-1.87c.56-.72,1.09-1.44,1.57-2.18a17.57,17.57,0,0,0,1-1.65l.07-.15a2.26,2.26,0,0,1,.84-.84,1.92,1.92,0,0,1,.84-.23,1.65,1.65,0,0,1,1,.34,1,1,0,0,1,.42.73,2.3,2.3,0,0,1-.27.8,12.6,12.6,0,0,1-.65,1.19c-.26.41-.5.8-.73,1.19s-.39.65-.49.8a26,26,0,0,1-1.76,2.9,19.86,19.86,0,0,1-2.34,2.76,17.63,17.63,0,0,1-2.56,2.06,4.6,4.6,0,0,1-2.45.84,4,4,0,0,1-2.37-.65,4.7,4.7,0,0,1-1.45-1.68,7.36,7.36,0,0,1-.73-2.33,18,18,0,0,1-.19-2.53,18.77,18.77,0,0,1,.23-3c-.56.86-1.25,1.88-2.06,3a26.66,26.66,0,0,1-2.76,3.33,20.11,20.11,0,0,1-3.21,2.68,6.23,6.23,0,0,1-3.44,1.11,3.29,3.29,0,0,1-2.18-.69,4.79,4.79,0,0,1-1.26-1.76,8.35,8.35,0,0,1-.61-2.29,16.57,16.57,0,0,1-.16-2.22A23.15,23.15,0,0,1,122,37.87a34.11,34.11,0,0,1,3-7,22.85,22.85,0,0,1,4.36-5.69,7.62,7.62,0,0,1,5.31-2.34A5.72,5.72,0,0,1,138,23.91a4.54,4.54,0,0,1,2,2.87A5.54,5.54,0,0,1,141.61,24a3.24,3.24,0,0,1,2.14-.81,4.4,4.4,0,0,1,2.48.77A5.52,5.52,0,0,1,148,25.71a.33.33,0,0,1-.07.23A9,9,0,0,0,146.23,28.77ZM136,35.54c-.46-.18-.64-.35-.53-.5a6.87,6.87,0,0,0,.5-1.11l.57-1.61a16.44,16.44,0,0,0,.5-1.79,8.84,8.84,0,0,0,.19-1.69,4,4,0,0,0-.31-1.45,1.12,1.12,0,0,0-1.15-.76,1.47,1.47,0,0,0-1,.38,12,12,0,0,0-2.37,2.71,25.17,25.17,0,0,0-2.18,3.94A30.32,30.32,0,0,0,128.68,38a14.11,14.11,0,0,0-.61,3.71,4.94,4.94,0,0,0,.23,1.57,1.14,1.14,0,0,0,.84.8,3.34,3.34,0,0,0,2-.8,16.42,16.42,0,0,0,2-1.91,22.86,22.86,0,0,0,1.8-2.26l1.34-1.91a9.48,9.48,0,0,1,.61-1.38A3.51,3.51,0,0,1,136,35.54Z" />
        <path class="cls-1" d="M154.84,44.68a3.36,3.36,0,0,1,2.75-1.3,3.13,3.13,0,0,1,2.49,1.11,3.89,3.89,0,0,1,.95,2.63A4.34,4.34,0,0,1,160,50a3.42,3.42,0,0,1-2.75,1.3,3.12,3.12,0,0,1-2.49-1.11,3.91,3.91,0,0,1-.95-2.63A4.25,4.25,0,0,1,154.84,44.68Z" />
        <path class="cls-1" d="M190.75,1.39A11.06,11.06,0,0,1,194.61,5a14.82,14.82,0,0,1,2.07,5.13,29.44,29.44,0,0,1,.61,6,41.88,41.88,0,0,1-.65,7.15,62.5,62.5,0,0,1-1.8,7.38,61.51,61.51,0,0,1-3,7.11,43.12,43.12,0,0,1-4.55,7.31,27.65,27.65,0,0,1-6,5.73,12.42,12.42,0,0,1-7.3,2.34,8.18,8.18,0,0,1-4.9-1.38A10.29,10.29,0,0,1,166,48.22a15.61,15.61,0,0,1-1.57-4.78,32.34,32.34,0,0,1-.42-5,43.72,43.72,0,0,1,1.27-10.32,46.05,46.05,0,0,1,3.32-9.49,11.5,11.5,0,0,1-.23-1.14,9,9,0,0,1-.07-1.15,12.57,12.57,0,0,1,1.41-5.54,20.6,20.6,0,0,1,8.95-9.14A13.73,13.73,0,0,1,184.82,0,11.78,11.78,0,0,1,190.75,1.39Zm0,8.56a9.53,9.53,0,0,0-.92-2.9,4.89,4.89,0,0,0-1.64-1.88,4.42,4.42,0,0,0-2.45-.65,5.84,5.84,0,0,0-2.22.5,12.42,12.42,0,0,0-2.45,1.34,14,14,0,0,0-2.29,2A10.07,10.07,0,0,0,177,10.72a3.87,3.87,0,0,1,1.3-.23,4.06,4.06,0,0,1,4,3.82,8.39,8.39,0,0,0-3.87,3.44A31,31,0,0,0,175.3,24a45.8,45.8,0,0,0-2.1,7.45,37.7,37.7,0,0,0-.77,7.27,18.23,18.23,0,0,0,.11,2.33,10.9,10.9,0,0,0,.54,2.57,6.35,6.35,0,0,0,1.19,2.1,2.7,2.7,0,0,0,2.14.88,5.15,5.15,0,0,0,3.4-1.57,19.07,19.07,0,0,0,3.33-4.21,48.36,48.36,0,0,0,3.06-6,63.94,63.94,0,0,0,2.52-7.07,62,62,0,0,0,1.68-7.35,41.19,41.19,0,0,0,.62-6.73A23.24,23.24,0,0,0,190.75,10Z" />
        <path class="cls-1" d="M204.17,34.43l2.14-3.52a31.41,31.41,0,0,1,2.76-3.82A16,16,0,0,1,212.35,24a6.4,6.4,0,0,1,3.75-1.23,3.75,3.75,0,0,1,2.6.77,3.28,3.28,0,0,1,.84,2.52,10,10,0,0,1-.3,2.3c-.21.81-.38,1.55-.54,2.21-.3,1.18-.65,2.45-1,3.83s-.74,2.71-1.07,4S216,40.9,215.79,42a12.58,12.58,0,0,0-.35,2.45,5.42,5.42,0,0,0,0,.57q0,.27.42.27a3,3,0,0,0,1.72-.88,26.09,26.09,0,0,0,2.07-2c.69-.74,1.31-1.46,1.87-2.18.38-.47.74-1,1.07-1.45a2.26,2.26,0,0,1,.84-.84,2,2,0,0,1,.92-.23,1.69,1.69,0,0,1,1,.26.79.79,0,0,1,.38.65.48.48,0,0,1-.08.31c-.59,1.2-1.24,2.38-2,3.52a33.38,33.38,0,0,1-2.9,4,21,21,0,0,1-3.52,3.33,6.9,6.9,0,0,1-3.79,1.45L212.12,51a4.24,4.24,0,0,1-2.63-2.6,10.09,10.09,0,0,1-.73-3.67,12.44,12.44,0,0,1,.08-1.37,14.3,14.3,0,0,1,.23-1.46,13.55,13.55,0,0,1,.42-1.87c.23-.94.49-2,.8-3.14s.6-2.3.88-3.48.5-2.16.65-3a3,3,0,0,0,.15-.57,4.53,4.53,0,0,0,.08-.73c0-.31-.08-.46-.23-.46-.36,0-.89.47-1.61,1.42a36.48,36.48,0,0,0-2.37,3.63q-1.31,2.22-2.64,4.86c-.89,1.75-1.69,3.45-2.41,5.08s-1.28,3.1-1.72,4.4a10.1,10.1,0,0,0-.65,2.72c0,.25-.23.38-.69.38a3.64,3.64,0,0,1-1.3-.31,4.44,4.44,0,0,1-1.49-1,5.89,5.89,0,0,1-1.22-2,8.44,8.44,0,0,1-.5-3.1,15.78,15.78,0,0,1,.35-3.29c.22-1.07.49-2.11.8-3.13s.55-1.9.88-3,.64-2.1.92-3.17.52-2.13.72-3.17a15.2,15.2,0,0,0,.31-3,2.53,2.53,0,0,0-.31-1.15v-.12A5.93,5.93,0,0,1,201,23.38a6.94,6.94,0,0,1,2.59-.5,3.53,3.53,0,0,1,2.22.69,2.45,2.45,0,0,1,.84,2.22,7.63,7.63,0,0,1-.57,2.52,28.06,28.06,0,0,0-1,3.06Z" />
        <path class="cls-1" d="M246.73,28.77A44.71,44.71,0,0,0,245,33.55a53.21,53.21,0,0,0-1.42,5.31A22,22,0,0,0,243,43.3c0,1.38.28,2.06.84,2.06a2.52,2.52,0,0,0,1.64-.8,16,16,0,0,0,1.72-1.87c.56-.72,1.09-1.44,1.57-2.18a17.57,17.57,0,0,0,1-1.65l.08-.15a2.12,2.12,0,0,1,.84-.84,1.92,1.92,0,0,1,.84-.23,1.54,1.54,0,0,1,1,.34,1,1,0,0,1,.43.73,2.3,2.3,0,0,1-.27.8A12.6,12.6,0,0,1,252,40.7c-.26.41-.5.8-.73,1.19s-.39.65-.5.8a21.89,21.89,0,0,1-1.75,2.9,19.86,19.86,0,0,1-2.34,2.76,17.63,17.63,0,0,1-2.56,2.06,4.6,4.6,0,0,1-2.45.84,4,4,0,0,1-2.37-.65,4.6,4.6,0,0,1-1.45-1.68,7.36,7.36,0,0,1-.73-2.33,16.58,16.58,0,0,1-.19-2.53,18.77,18.77,0,0,1,.23-3c-.56.86-1.25,1.88-2.06,3a26.66,26.66,0,0,1-2.76,3.33,20.11,20.11,0,0,1-3.21,2.68,6.23,6.23,0,0,1-3.44,1.11,3.24,3.24,0,0,1-2.18-.69,4.79,4.79,0,0,1-1.26-1.76,8.74,8.74,0,0,1-.62-2.29,16.56,16.56,0,0,1-.15-2.22,23.15,23.15,0,0,1,1.07-6.35,33.94,33.94,0,0,1,2.95-7,22.62,22.62,0,0,1,4.36-5.69,7.62,7.62,0,0,1,5.31-2.34,5.72,5.72,0,0,1,3.37,1.07,4.58,4.58,0,0,1,1.91,2.91A5.52,5.52,0,0,1,242.11,24a3.24,3.24,0,0,1,2.14-.81,4.4,4.4,0,0,1,2.48.77,5.6,5.6,0,0,1,1.8,1.76.34.34,0,0,1-.08.23A8.83,8.83,0,0,0,246.73,28.77Zm-10.21,6.77c-.46-.18-.64-.35-.53-.5a7.81,7.81,0,0,0,.49-1.11c.18-.48.37-1,.58-1.61a14.4,14.4,0,0,0,.49-1.79,8.86,8.86,0,0,0,.2-1.69,4,4,0,0,0-.31-1.45,1.12,1.12,0,0,0-1.15-.76,1.42,1.42,0,0,0-1,.38,12,12,0,0,0-2.37,2.71,24.38,24.38,0,0,0-2.18,3.94A30.45,30.45,0,0,0,229.18,38a14.11,14.11,0,0,0-.61,3.71,4.43,4.43,0,0,0,.23,1.57,1.14,1.14,0,0,0,.84.8,3.34,3.34,0,0,0,2-.8,16.42,16.42,0,0,0,2-1.91,27.86,27.86,0,0,0,1.8-2.26l1.34-1.91a9.48,9.48,0,0,1,.61-1.38A3.71,3.71,0,0,1,236.52,35.54Z" />
        <path class="cls-1" d="M259.54,28.31c-.35,1-.69,2-1,3.06-.1.36-.34,1.1-.73,2.22S257,36,256.63,37.33s-.78,2.73-1.11,4.06a13.68,13.68,0,0,0-.5,3.06c0,.61.13.91.38.91a2.54,2.54,0,0,0,1.65-.8,16.87,16.87,0,0,0,1.72-1.87c.56-.72,1.08-1.44,1.57-2.18a15.6,15.6,0,0,0,1-1.65,2.26,2.26,0,0,1,.84-.84,2,2,0,0,1,.92-.23,1.63,1.63,0,0,1,1,.27.78.78,0,0,1,.39.65,2.3,2.3,0,0,1-.27.8c-.18.39-.38.78-.61,1.19s-.46.8-.69,1.19-.4.65-.5.8c-.56,1-1.17,2-1.83,2.9a22.44,22.44,0,0,1-2.3,2.76,16.08,16.08,0,0,1-2.52,2.06,4.6,4.6,0,0,1-2.45.84,3.94,3.94,0,0,1-2.22-.61,5.06,5.06,0,0,1-1.49-1.53,7.1,7.1,0,0,1-.84-2.06,10,10,0,0,1-.27-2.3,12.44,12.44,0,0,1,.08-1.37,14.3,14.3,0,0,1,.23-1.46,28.53,28.53,0,0,1,1-4c.43-1.4.86-2.82,1.26-4.25s.78-2.79,1.11-4.09a14.2,14.2,0,0,0,.5-3.48,2.28,2.28,0,0,0-.38-1.22l.07-.16a6.26,6.26,0,0,1,2.15-1.37,6.44,6.44,0,0,1,2.52-.54,3.73,3.73,0,0,1,2.26.69,2.49,2.49,0,0,1,.88,2.3A10.89,10.89,0,0,1,259.54,28.31Zm-3.13-8.72a2.77,2.77,0,0,1-1.91-1.45,5,5,0,0,1-.62-2.37,4.63,4.63,0,0,1,.27-1.57,5.4,5.4,0,0,1,.77-1.49,4.3,4.3,0,0,1,1.18-1.15,2.6,2.6,0,0,1,1.53-.46l.46.08a2.46,2.46,0,0,1,1.84,1.26,4.69,4.69,0,0,1,.69,2.48,6.49,6.49,0,0,1-.16,1.15l-.15.61a5.07,5.07,0,0,1-1.42,2.14,3.05,3.05,0,0,1-2,.85Z" />
        <path class="cls-1" d="M270.86,51a4.25,4.25,0,0,1-2.56-2.6,10.52,10.52,0,0,1-.73-3.67,12.44,12.44,0,0,1,.08-1.37,8,8,0,0,1,.23-1.46A30.59,30.59,0,0,1,269,37.68q.84-2.73,1.68-5.62c.16-.56.4-1.41.73-2.53a11.32,11.32,0,0,0,.5-3.21,3.77,3.77,0,0,0-.42-1.84,1.79,1.79,0,0,0-1.57-.84,64.82,64.82,0,0,1-2.22,8.42,46.25,46.25,0,0,1-3.59,8,1.24,1.24,0,0,1-1,.46A1.55,1.55,0,0,1,262,40a1.35,1.35,0,0,1-.46-1,.85.85,0,0,1,.08-.39,46,46,0,0,0,3.21-7.34A35.59,35.59,0,0,0,266.66,23v-.54a4.46,4.46,0,0,1-1.92-1.57,3.76,3.76,0,0,1-.61-2,4.4,4.4,0,0,1,1.34-3.13,4.17,4.17,0,0,1,3.1-1.38,1.6,1.6,0,0,1,1.64,1.15,7.63,7.63,0,0,1,.42,2.68c0,.49,0,1-.07,1.49a13.8,13.8,0,0,1-.23,1.41h.46a12.68,12.68,0,0,1,2.6.27,8.42,8.42,0,0,1,2.41.88,5.12,5.12,0,0,1,1.79,1.61,4.29,4.29,0,0,1,.69,2.52,16.44,16.44,0,0,1-.69,4.05c-.46,1.69-1,3.43-1.49,5.24s-1,3.52-1.49,5.13a14.39,14.39,0,0,0-.69,3.63c0,.66.16,1,.46,1a2.54,2.54,0,0,0,1.65-.8,16.87,16.87,0,0,0,1.72-1.87c.56-.72,1.08-1.44,1.56-2.18a17.57,17.57,0,0,0,1-1.65,2,2,0,0,1,.88-.84,2.11,2.11,0,0,1,.95-.23,1.7,1.7,0,0,1,1,.27.79.79,0,0,1,.42.65,2.3,2.3,0,0,1-.27.8,11.47,11.47,0,0,1-.65,1.19c-.25.41-.48.8-.69,1.19a9.16,9.16,0,0,1-.46.8c-.56,1-1.17,2-1.83,2.9a19.79,19.79,0,0,1-2.33,2.76,18.27,18.27,0,0,1-2.57,2.06,4.56,4.56,0,0,1-2.44.84Z" />
        <path class="cls-2" d="M71.67,6h2.61V16.25H71.67V12.33H68.8v3.92H66.19V6H68.8V9.81h2.87Z" />
        <path class="cls-2" d="M79.84,9.11a3.61,3.61,0,0,1,2.61,1,3.42,3.42,0,0,1,1,2.61,3.4,3.4,0,0,1-1,2.61,3.66,3.66,0,0,1-2.61,1H75.93V6h2.61V9.11Zm0,4.64a1,1,0,0,0,.75-.3,1.06,1.06,0,0,0,.3-.78,1.17,1.17,0,0,0-.3-.78,1,1,0,0,0-.75-.3h-1.3v2.16Z" />
        <path class="cls-2" d="M93.5,5.83a5.27,5.27,0,0,1,3.76,1.53,5.12,5.12,0,0,1,1.55,3.78,5.11,5.11,0,0,1-1.56,3.78,5.26,5.26,0,0,1-3.79,1.54,5.11,5.11,0,0,1-3.34-1.18,5.19,5.19,0,0,1-1.8-3H87v4H84.41V6H87V9.75h1.3a5.06,5.06,0,0,1,1.83-2.83A5.26,5.26,0,0,1,93.5,5.83Zm-2,7.3a2.75,2.75,0,0,0,3.89,0,2.79,2.79,0,0,0,.82-2,2.76,2.76,0,0,0-5.51,0A2.61,2.61,0,0,0,91.55,13.13Z" />
        <path class="cls-2" d="M105,16.46a5.12,5.12,0,0,1-3.81-1.52,5.24,5.24,0,0,1-1.52-3.8,5.22,5.22,0,0,1,5.13-5.31h.2a5.1,5.1,0,0,1,2.61.66,4.67,4.67,0,0,1,1.85,1.76l-2.26,1.3a2.2,2.2,0,0,0-.86-.85,2.68,2.68,0,0,0-1.3-.31,2.61,2.61,0,0,0-2,.77,2.7,2.7,0,0,0-.76,2,2.74,2.74,0,0,0,.76,2,2.57,2.57,0,0,0,2,.75,2.68,2.68,0,0,0,1.3-.31,2,2,0,0,0,.86-.86l2.26,1.3a4.86,4.86,0,0,1-1.89,1.82A5.36,5.36,0,0,1,105,16.46Z" />
        <path class="cls-2" d="M120.75,6V16.25h-2.61v-5.5l-2.48,4.1h-.26l-2.48-4.08v5.48h-2.61V6h2.61l2.61,4.36L118.14,6Z" />
        <path class="cls-2" d="M125,13.79h3.92v2.46h-6.53V6h6.53V8.48H125V9.89h3.51v2.4H125Z" />
        <path class="cls-2" d="M135.75,16.25V11.12l-3.58,5.13h-2V6h2.61v5.13L136.41,6h2V16.25Zm-3.91-11v-2h4.71v2Z" />
        <path class="cls-2" d="M148.41,16.25h-2.87l-2.92-4.57v4.57H140V6h2.61v4.3L145.4,6h2.91l-3.24,5Z" />
        <path class="cls-2" d="M151.77,13.79h3.91v2.46h-6.52V6h6.52V8.48h-3.91V9.89h3.51v2.4h-3.51Z" />
        <path class="cls-2" d="M160.91,6a3.58,3.58,0,0,1,2.61,1,3.41,3.41,0,0,1,1.06,2.61,3.39,3.39,0,0,1-1.06,2.61,3.52,3.52,0,0,1-2.61,1h-1.3v3.07H157V6Zm0,4.67a.91.91,0,0,0,.73-.31,1.08,1.08,0,0,0,.3-.78,1,1,0,0,0-.3-.78,1,1,0,0,0-.73-.3h-1.3v2.17Z" />
      </g>
    </g>
  </g>
</svg>
