<svg xmlns="http://www.w3.org/2000/svg" viewBox="0 0 452.16 208.54"><defs><style>.cls-1,.cls-4{fill:none;stroke-miterlimit:10;}.cls-1{stroke:#3a3a38;}.cls-2{fill:#3a3a38;}.cls-3{fill:#eca10c;}.cls-4{stroke:#eca10c;stroke-width:5px;stroke-dasharray:12;}</style></defs><title>Ресурс 2</title><g id="Слой_2" data-name="Слой 2"><g id="Слой_1-2" data-name="Слой 1"><rect class="cls-1" x="72.11" y="10.18" width="55.98" height="26.91" transform="translate(-1.55 39.31) rotate(-22.05)"/><path class="cls-2" d="M88.2,18l1.54,3.81-4.45,1.8,5.47,13.51-4,1.6-5.47-13.5L76.88,27l-1.54-3.81Z"/><path class="cls-2" d="M99.33,13.51l4-1.6,7,17.31-4,1.6L103.56,24l-5.44,2.2L100.91,33l-4,1.6-7-17.31,4-1.6,2.69,6.62,5.44-2.2Z"/><path class="cls-2" d="M115.68,22.61l6.93-2.81,1.54,3.81L113.27,28l-7-17.31L117,6.35l1.55,3.81-6.8,2.75,1.16,2.87,6.18-2.5L120.63,17l-6.19,2.5Z"/><path class="cls-3" d="M118.39,28.56h7v27.7h-7V45.61H110.6V56.26h-7.08V28.56h7.08V38.81h7.79Z"/><path class="cls-3" d="M140.59,36.87a9.79,9.79,0,0,1,7,2.73,9.22,9.22,0,0,1,2.85,7,9.23,9.23,0,0,1-2.85,7,9.79,9.79,0,0,1-7,2.73H129.83V28.56h7.08v8.31Zm0,12.62a2.74,2.74,0,0,0,2-.81,2.87,2.87,0,0,0,.81-2.12,2.91,2.91,0,0,0-.81-2.13,2.68,2.68,0,0,0-2-.83h-3.68v5.89Z"/><path class="cls-3" d="M177.7,28A14.11,14.11,0,0,1,188,32.14a13.89,13.89,0,0,1,4.21,10.27A13.9,13.9,0,0,1,188,52.66a14.1,14.1,0,0,1-10.29,4.19,14,14,0,0,1-14-11.43h-3.4V56.26h-7.08V28.56h7.08V38.61h3.6A14,14,0,0,1,177.7,28Zm-5.34,19.84a7.48,7.48,0,0,0,12.82-5.4,7.48,7.48,0,1,0-15,0A7.29,7.29,0,0,0,172.36,47.81Z"/><path class="cls-3" d="M208.88,56.85a14.05,14.05,0,0,1-14.44-14.44,14.45,14.45,0,0,1,21.4-12.66,13.3,13.3,0,0,1,5,4.78l-6.14,3.53a5.65,5.65,0,0,0-2.35-2.32A7.82,7.82,0,0,0,203.52,37a7.43,7.43,0,0,0-2,5.44,7.44,7.44,0,0,0,2,5.44,7.79,7.79,0,0,0,8.86,1.22,5.55,5.55,0,0,0,2.35-2.35l6.14,3.56a13.09,13.09,0,0,1-5,4.81A14.22,14.22,0,0,1,208.88,56.85Z"/><path class="cls-3" d="M251.65,28.56v27.7h-7V41.34l-6.73,11.12h-.71l-6.69-11.08V56.26H223.4V28.56h7.08l7.05,11.83,7.08-11.83Z"/><path class="cls-3" d="M263.12,49.61h10.73v6.65H256V28.56h17.61v6.61H263.12V39h9.54v6.52h-9.54Z"/><path class="cls-3" d="M292.48,56.26V42.33l-9.77,13.93h-5.5V28.56h7.08V42.49l9.77-13.93h5.46v27.7ZM282,26.42V20.88h12.78v5.54Z"/><path class="cls-3" d="M326.86,56.26H319L311,43.87V56.26h-7.08V28.56H311V40.19l7.55-11.63h7.92L317.68,42Z"/><path class="cls-3" d="M336,49.61h10.73v6.65H328.88V28.56h17.61v6.61H336V39h9.54v6.52H336Z"/><path class="cls-3" d="M360.81,28.56a9.77,9.77,0,0,1,7,2.73,9.22,9.22,0,0,1,2.85,7,9.23,9.23,0,0,1-2.85,7,9.77,9.77,0,0,1-7,2.73h-3.68v8.31h-7.08V28.56Zm0,12.66a2.7,2.7,0,0,0,2-.83,2.94,2.94,0,0,0,.81-2.14,2.85,2.85,0,0,0-.81-2.11,2.72,2.72,0,0,0-2-.81h-3.68v5.89Z"/><path class="cls-2" d="M61.61,64.18a9.14,9.14,0,0,1,1.88.08,9.92,9.92,0,0,1,4.65,1.82A5.46,5.46,0,0,1,69.71,70a24.13,24.13,0,0,1-.18,4.33q-.28,2.58-.77,6.19t-1.14,8.4q-.66,4.78-1.38,11,2.15-5,4.64-10.41t5.21-10.6q2.7-5.23,5.54-10.26t5.66-9.28a.26.26,0,0,1,.2-.12c3.35.32,5.67.88,7,1.65a4.21,4.21,0,0,1,2.12,3.55,9.7,9.7,0,0,1-.19,2.51c-.18.92-.44,2-.77,3.17Q94.21,75.49,92.5,82.3t-3.15,14q-1.44,7.17-2.26,14.2a69.19,69.19,0,0,0-.43,12.62,27.35,27.35,0,0,0,.82,5.19,8.4,8.4,0,0,0,2.08,3.87c.3.25.45.45.46.59s-.33.3-1,.48l-2.16.36c-.68.11-1.41.2-2.16.25-2.84.2-4.88-.81-6.14-3a20,20,0,0,1-2.25-8.59,49.68,49.68,0,0,1,.07-7.39c.19-2.64.48-5.33.85-8.06s.82-5.45,1.37-8.16,1.09-5.24,1.66-7.6,1.1-4.5,1.59-6.41S82.71,81.19,83,80q-4.55,8.12-8.46,17t-7.29,17.51l-.6,1.86a6.12,6.12,0,0,1-.62,1.55,2.78,2.78,0,0,1-1.93.65,7.91,7.91,0,0,1-4.32-.79,4,4,0,0,1-2-3.56,48.66,48.66,0,0,1,.23-7.3c.27-3.07.61-6.24,1-9.53s.74-6.45,1-9.49a48,48,0,0,0,.23-7.14V80.5q-5,14.18-10.56,28.09a238.38,238.38,0,0,1-12.83,26.88,31.3,31.3,0,0,1-1.93,3,18.29,18.29,0,0,1-2.46,2.82,14.54,14.54,0,0,1-3,2.18,7.89,7.89,0,0,1-3.36,1,8.41,8.41,0,0,1-4.28-1,7.28,7.28,0,0,1-3.27-2.85c-.15-.2-.07-.36.23-.48a1.82,1.82,0,0,0,.65-.41,23.47,23.47,0,0,0,7.06-6.31A95.83,95.83,0,0,0,34,122.55q3.78-6.28,7.45-13.56t6.83-14.2Q51.48,87.86,54,82t4-9.32a35.06,35.06,0,0,0-6.35,2.2,30,30,0,0,0-6.1,3.64,28.23,28.23,0,0,0-5,4.92,17.62,17.62,0,0,0-3.08,5.93q-.2.22-.3.12A6,6,0,0,1,34.56,87a9.24,9.24,0,0,1-1.45-4.53,10.24,10.24,0,0,1,2.55-7.66,24.26,24.26,0,0,1,7.05-5.58,39.23,39.23,0,0,1,8.92-3.47,46.8,46.8,0,0,1,8.12-1.44Z"/><path class="cls-2" d="M123.92,95.39a64.53,64.53,0,0,0-2,6.64c-.59,2.44-1.07,4.88-1.42,7.33a30.67,30.67,0,0,0-.37,6.06c.13,1.86.57,2.77,1.33,2.72a3.49,3.49,0,0,0,2.16-1.24,21.06,21.06,0,0,0,2.15-2.7c.7-1,1.33-2,1.92-3.1s1-1.82,1.25-2.32l.09-.21a3,3,0,0,1,1.06-1.22,2.74,2.74,0,0,1,1.12-.39,2.17,2.17,0,0,1,1.43.37,1.29,1.29,0,0,1,.63,1,3,3,0,0,1-.29,1.11,15,15,0,0,1-.76,1.66c-.31.58-.6,1.14-.88,1.68s-.47.91-.6,1.13a31.53,31.53,0,0,1-2.11,4.1,25.53,25.53,0,0,1-2.9,3.94,23.46,23.46,0,0,1-3.28,3,6.17,6.17,0,0,1-3.24,1.37,5.44,5.44,0,0,1-3.27-.66,6.47,6.47,0,0,1-2.12-2.14,9.82,9.82,0,0,1-1.2-3.1,23.09,23.09,0,0,1-.49-3.39,24,24,0,0,1,0-4.17q-1,1.84-2.52,4.33a33.47,33.47,0,0,1-3.42,4.76,26.52,26.52,0,0,1-4.1,3.93,8.35,8.35,0,0,1-4.55,1.81,4.38,4.38,0,0,1-3-.72,6.45,6.45,0,0,1-1.87-2.27,11.32,11.32,0,0,1-1-3.05,24.68,24.68,0,0,1-.41-3A31.28,31.28,0,0,1,92.1,110a46.24,46.24,0,0,1,3.33-9.8A31.78,31.78,0,0,1,100.81,92a10.46,10.46,0,0,1,7-3.65,7.8,7.8,0,0,1,4.65,1.14,6.19,6.19,0,0,1,2.86,3.76,7.68,7.68,0,0,1,1.92-3.93A4.54,4.54,0,0,1,120,88.07a6.19,6.19,0,0,1,3.44.8,7.72,7.72,0,0,1,2.59,2.22.37.37,0,0,1-.08.31A12.14,12.14,0,0,0,123.92,95.39ZM110.73,105.5c-.64-.2-.9-.4-.77-.62a9.74,9.74,0,0,0,.57-1.55l.63-2.23a20.38,20.38,0,0,0,.5-2.47,10.82,10.82,0,0,0,.1-2.3,5.31,5.31,0,0,0-.54-1.94,1.56,1.56,0,0,0-1.63-.93,2.07,2.07,0,0,0-1.31.61,17,17,0,0,0-3,3.9,34.7,34.7,0,0,0-2.58,5.53,42.89,42.89,0,0,0-1.73,6,19.14,19.14,0,0,0-.48,5.07,6.52,6.52,0,0,0,.46,2.11,1.54,1.54,0,0,0,1.21,1,4.47,4.47,0,0,0,2.67-1.27,21.09,21.09,0,0,0,2.57-2.78,34.3,34.3,0,0,0,2.22-3.22l1.63-2.71a13.91,13.91,0,0,1,.7-1.92A4.71,4.71,0,0,1,110.73,105.5Z"/><path class="cls-2" d="M147.74,100.58c.24-1.51.48-3,.73-4.47a3.13,3.13,0,0,1,.11-.74,3.35,3.35,0,0,0,.08-1c0-.42-.18-.61-.46-.6q-.72.06-2,2.07a48.85,48.85,0,0,0-2.87,5.14q-1.56,3.12-3.07,6.81t-2.74,7.11q-1.23,3.4-2,6.11a10.23,10.23,0,0,0-.57,3.74c0,.34-.31.54-1,.58a5.78,5.78,0,0,1-1.84-.23,6,6,0,0,1-2.16-1.11,7,7,0,0,1-1.82-2.26,9.53,9.53,0,0,1-.93-3.74c0-.34,0-.71,0-1.09s0-.78.07-1.2a34.15,34.15,0,0,1,.58-3.78q.47-2.32,1.11-5.07c.26-1.27.58-2.59,1-4s.75-2.79,1.07-4.23.58-2.85.8-4.22a16.84,16.84,0,0,0,.21-3.81,3.57,3.57,0,0,0-.52-1.53c-.15-.12-.15-.19,0-.2a8.8,8.8,0,0,1,2.78-2.06,9.05,9.05,0,0,1,3.47-1,4.83,4.83,0,0,1,3.06.73,3.41,3.41,0,0,1,1.35,3,13.66,13.66,0,0,1-.59,3.48c-.39,1.41-.75,2.79-1.07,4.13l-.64,2.85c.74-1.44,1.55-3,2.44-4.64a36.6,36.6,0,0,1,3-4.68A17.93,17.93,0,0,1,149,87a8.74,8.74,0,0,1,4.57-1.66q4.56-.31,4.86,4.14a14.3,14.3,0,0,1-.15,3.18c-.16,1.09-.32,2.09-.47,3l-1.17,5.7c.9-2.15,1.88-4.24,3-6.29A40.69,40.69,0,0,1,163,89.6a19,19,0,0,1,3.89-4,8.31,8.31,0,0,1,4.46-1.71,6.26,6.26,0,0,1,3.74.68c.9.57,1.41,1.71,1.53,3.44a12.78,12.78,0,0,1-.2,3.18c-.2,1.09-.37,2.09-.52,3-.31,1.62-.65,3.38-1,5.28s-.77,3.74-1.13,5.53-.65,3.43-.87,4.9a18,18,0,0,0-.23,3.45,2.7,2.7,0,0,0,.16.77c.08.24.3.34.65.32a3.78,3.78,0,0,0,2.19-1.35,37.7,37.7,0,0,0,2.56-2.88q1.29-1.59,2.34-3.12a14.17,14.17,0,0,0,1.3-2.17,3,3,0,0,1,2.39-1.62,2.12,2.12,0,0,1,1.38.32,1.21,1.21,0,0,1,.58.9.38.38,0,0,1-.09.31,51.94,51.94,0,0,1-2.31,4.95,44.43,44.43,0,0,1-3.56,5.7,28,28,0,0,1-4.46,4.83,9.3,9.3,0,0,1-5,2.32l-1.88-.18a6.11,6.11,0,0,1-3.82-3.28,13.71,13.71,0,0,1-1.33-5,13.89,13.89,0,0,1,0-1.71c0-.59.08-1.27.17-2,0-.42.18-1.26.4-2.53s.49-2.68.8-4.26.6-3.2.87-4.85.46-3,.6-4.15a3,3,0,0,0,.15-.74,5.18,5.18,0,0,0,0-1q0-.61-.36-.6a1.35,1.35,0,0,0-.74.47,10.61,10.61,0,0,0-.87,1,7.21,7.21,0,0,0-.71,1.09,3.53,3.53,0,0,1-.47.76,76.5,76.5,0,0,0-5.21,11.18q-2.25,6-3.94,11.71c-.22.78-.44,1.56-.67,2.33a14,14,0,0,0-.46,2.32c-.05.42-.14.64-.27.65a.4.4,0,0,1-.32-.09,10.49,10.49,0,0,1-5.14-2.14q-1.77-1.55-2-5.06a25.06,25.06,0,0,1,.28-5.8c.32-1.92.69-3.81,1.12-5.64C147.25,103.58,147.49,102.09,147.74,100.58Z"/><path class="cls-2" d="M213.9,89.24a63.79,63.79,0,0,0-2,6.64,74.6,74.6,0,0,0-1.42,7.33,29.21,29.21,0,0,0-.37,6.06c.13,1.86.57,2.77,1.33,2.71a3.4,3.4,0,0,0,2.15-1.24,20.15,20.15,0,0,0,2.16-2.69c.69-1,1.33-2,1.92-3.1s1-1.82,1.24-2.32l.09-.21a3,3,0,0,1,1.07-1.22,2.48,2.48,0,0,1,1.11-.39,2.16,2.16,0,0,1,1.43.37,1.31,1.31,0,0,1,.64.95,3.27,3.27,0,0,1-.29,1.11,15.11,15.11,0,0,1-.77,1.66c-.31.58-.6,1.14-.87,1.67l-.6,1.14a32.83,32.83,0,0,1-2.11,4.1,26.08,26.08,0,0,1-2.91,3.94,22.4,22.4,0,0,1-3.28,3,6.15,6.15,0,0,1-3.23,1.37,5.44,5.44,0,0,1-3.27-.66,6.23,6.23,0,0,1-2.12-2.15,9.86,9.86,0,0,1-1.2-3.09,23,23,0,0,1-.49-3.4,24.94,24.94,0,0,1,0-4.16c-.68,1.23-1.51,2.67-2.51,4.33a35.76,35.76,0,0,1-3.42,4.76,26,26,0,0,1-4.1,3.92,8.37,8.37,0,0,1-4.56,1.82,4.36,4.36,0,0,1-3-.73,6.33,6.33,0,0,1-1.87-2.26,11.44,11.44,0,0,1-1-3,25.12,25.12,0,0,1-.42-3,31.3,31.3,0,0,1,.87-8.69,45.69,45.69,0,0,1,3.33-9.8,31.76,31.76,0,0,1,5.37-8.12,10.44,10.44,0,0,1,7-3.65,7.85,7.85,0,0,1,4.66,1.14,6.17,6.17,0,0,1,2.86,3.76,7.64,7.64,0,0,1,1.91-3.93A4.53,4.53,0,0,1,210,81.91a6.08,6.08,0,0,1,3.43.81,7.75,7.75,0,0,1,2.6,2.21.44.44,0,0,1-.08.32A12.14,12.14,0,0,0,213.9,89.24ZM200.7,99.35c-.63-.2-.89-.41-.77-.62a8.37,8.37,0,0,0,.57-1.55c.2-.67.41-1.41.63-2.23a20.57,20.57,0,0,0,.51-2.48,11.42,11.42,0,0,0,.1-2.29,5.15,5.15,0,0,0-.55-1.94,1.54,1.54,0,0,0-1.62-.93,2.07,2.07,0,0,0-1.31.61,16.86,16.86,0,0,0-3,3.89,34.84,34.84,0,0,0-2.59,5.54,43.1,43.1,0,0,0-1.72,6,18.83,18.83,0,0,0-.48,5.08,6.41,6.41,0,0,0,.45,2.1,1.56,1.56,0,0,0,1.22,1,4.52,4.52,0,0,0,2.67-1.27,21.69,21.69,0,0,0,2.56-2.78,32.63,32.63,0,0,0,2.23-3.22c.65-1.08,1.19-2,1.63-2.71a12.61,12.61,0,0,1,.7-1.92A4.75,4.75,0,0,1,200.7,99.35Z"/><path class="cls-2" d="M227,110a4.61,4.61,0,0,1,3.61-2,4.25,4.25,0,0,1,3.47,1.27,5.27,5.27,0,0,1,1.53,3.48,5.91,5.91,0,0,1-1.18,3.93,4.65,4.65,0,0,1-3.61,2,4.27,4.27,0,0,1-3.47-1.27,5.35,5.35,0,0,1-1.54-3.49A5.92,5.92,0,0,1,227,110Z"/><path class="cls-2" d="M271.63,48.05a15.21,15.21,0,0,1,5.56,4.51,20.11,20.11,0,0,1,3.27,6.75,40.17,40.17,0,0,1,1.39,8.12,56.2,56.2,0,0,1-.22,9.74,79.67,79.67,0,0,1-1.75,10.16,80,80,0,0,1-3.38,9.91A57.21,57.21,0,0,1,271,107.55a37.37,37.37,0,0,1-7.54,8.31,17,17,0,0,1-9.67,3.84,11.16,11.16,0,0,1-6.76-1.41,13.83,13.83,0,0,1-4.47-4.53,21.09,21.09,0,0,1-2.56-6.33,42.82,42.82,0,0,1-1-6.8,60.35,60.35,0,0,1,.75-14.09,61.91,61.91,0,0,1,3.63-13.15,13.69,13.69,0,0,1-.42-1.53,11.62,11.62,0,0,1-.21-1.55,17,17,0,0,1,1.4-7.63,28,28,0,0,1,4.54-7.44,27.52,27.52,0,0,1,6.73-5.76,18.57,18.57,0,0,1,8.09-2.74A16,16,0,0,1,271.63,48.05Zm.79,11.6a12.84,12.84,0,0,0-1.51-3.85,6.66,6.66,0,0,0-2.4-2.38,5.9,5.9,0,0,0-3.37-.66,8.13,8.13,0,0,0-3,.88,17.27,17.27,0,0,0-3.19,2,21.28,21.28,0,0,0-2.93,2.85A14.27,14.27,0,0,0,253.91,62a5.29,5.29,0,0,1,1.73-.43,5.51,5.51,0,0,1,5.74,4.8,11.52,11.52,0,0,0-4.91,5,41.14,41.14,0,0,0-3.67,8.73,62,62,0,0,0-2.15,10.29,52.08,52.08,0,0,0-.37,9.91c.06.9.19,2,.38,3.14a13.74,13.74,0,0,0,1,3.42,8.27,8.27,0,0,0,1.8,2.74,3.6,3.6,0,0,0,3,1,7,7,0,0,0,4.46-2.43,25.91,25.91,0,0,0,4.12-6,66.67,66.67,0,0,0,3.58-8.46,85.31,85.31,0,0,0,2.76-9.81,87.16,87.16,0,0,0,1.6-10.1,56.26,56.26,0,0,0,.2-9.16A30.89,30.89,0,0,0,272.42,59.65Z"/><path class="cls-2" d="M292.86,91.54q1.09-2.16,2.57-5a44,44,0,0,1,3.37-5.43A23.15,23.15,0,0,1,303,76.7a8.75,8.75,0,0,1,5-2,5.18,5.18,0,0,1,3.6.79,4.47,4.47,0,0,1,1.37,3.34,13.81,13.81,0,0,1-.2,3.14c-.21,1.12-.38,2.14-.52,3-.31,1.62-.66,3.37-1.05,5.27s-.75,3.75-1.08,5.54-.6,3.42-.81,4.89a17.54,17.54,0,0,0-.24,3.34,5.86,5.86,0,0,0,.11.78c.05.24.25.34.59.32a4,4,0,0,0,2.25-1.35,33.77,33.77,0,0,0,2.61-2.88c.87-1.07,1.64-2.11,2.34-3.13a22.82,22.82,0,0,0,1.31-2.06,3,3,0,0,1,1.07-1.22,2.67,2.67,0,0,1,1.22-.4,2.44,2.44,0,0,1,1.37.27,1.08,1.08,0,0,1,.58.85.63.63,0,0,1-.08.42,51,51,0,0,1-2.32,4.94,42.8,42.8,0,0,1-3.56,5.71,28,28,0,0,1-4.45,4.83,9.3,9.3,0,0,1-5,2.32l-1.89-.19a5.72,5.72,0,0,1-3.81-3.27,13.7,13.7,0,0,1-1.32-4.91,14.56,14.56,0,0,1,0-1.87c0-.62.08-1.28.18-2q.06-.63.39-2.58c.23-1.3.49-2.74.8-4.32s.6-3.18.87-4.79.47-3,.6-4.1a3.6,3.6,0,0,0,.16-.79,5.77,5.77,0,0,0,0-1c0-.42-.14-.62-.35-.6-.48,0-1.17.72-2,2.06a52.86,52.86,0,0,0-2.88,5.14c-1,2.08-2.08,4.35-3.12,6.82s-2,4.83-2.79,7.11-1.46,4.31-1.92,6.11a13.87,13.87,0,0,0-.63,3.74c0,.34-.28.53-.9.58a5,5,0,0,1-1.79-.3,5.82,5.82,0,0,1-2.11-1.26,7.76,7.76,0,0,1-1.84-2.57,11.43,11.43,0,0,1-1-4.15,21,21,0,0,1,.16-4.49c.21-1.47.48-2.91.8-4.32s.56-2.62.91-4.06.67-2.91.95-4.39.51-2.93.69-4.36a21.26,21.26,0,0,0,.15-4,3.51,3.51,0,0,0-.53-1.53l0-.31a8.27,8.27,0,0,1,2.78-2,9.77,9.77,0,0,1,3.47-.91,4.9,4.9,0,0,1,3.07.72,3.29,3.29,0,0,1,1.34,2.93,10.37,10.37,0,0,1-.54,3.47c-.42,1.41-.79,2.83-1.11,4.23Z"/><path class="cls-2" d="M350,79.94a63.06,63.06,0,0,0-2,6.64c-.59,2.43-1.07,4.87-1.42,7.32a30,30,0,0,0-.37,6.06c.13,1.87.57,2.77,1.33,2.72a3.49,3.49,0,0,0,2.16-1.24,21.06,21.06,0,0,0,2.15-2.7c.69-1,1.33-2,1.92-3.09s1-1.82,1.25-2.32l.09-.22a2.92,2.92,0,0,1,1.06-1.21,2.47,2.47,0,0,1,1.12-.39,2.07,2.07,0,0,1,1.42.37,1.29,1.29,0,0,1,.64.94,3,3,0,0,1-.29,1.11,13.56,13.56,0,0,1-.77,1.67l-.87,1.67c-.28.54-.48.92-.6,1.13a31.5,31.5,0,0,1-2.11,4.1,26.12,26.12,0,0,1-2.9,4,23.46,23.46,0,0,1-3.28,3,6.15,6.15,0,0,1-3.24,1.36,5.44,5.44,0,0,1-3.27-.66,6.29,6.29,0,0,1-2.12-2.14,9.86,9.86,0,0,1-1.2-3.09,23.22,23.22,0,0,1-.49-3.4,23.83,23.83,0,0,1,0-4.16c-.68,1.22-1.52,2.67-2.52,4.33a34.64,34.64,0,0,1-3.42,4.76,26,26,0,0,1-4.1,3.92,8.37,8.37,0,0,1-4.55,1.82,4.44,4.44,0,0,1-3-.73,6.41,6.41,0,0,1-1.87-2.26,11.44,11.44,0,0,1-1-3,25,25,0,0,1-.41-3,31.31,31.31,0,0,1,.86-8.7,46.16,46.16,0,0,1,3.33-9.79,31.61,31.61,0,0,1,5.38-8.12,10.37,10.37,0,0,1,7-3.65,7.74,7.74,0,0,1,4.65,1.14,6.17,6.17,0,0,1,2.86,3.75,7.6,7.6,0,0,1,1.92-3.92,4.48,4.48,0,0,1,2.82-1.29,6.14,6.14,0,0,1,3.44.81,7.59,7.59,0,0,1,2.59,2.21A.44.44,0,0,1,352,76,12.14,12.14,0,0,0,350,79.94ZM336.76,90.05c-.64-.2-.9-.41-.77-.63a9.56,9.56,0,0,0,.57-1.54c.19-.67.4-1.42.62-2.23a18.8,18.8,0,0,0,.51-2.48,10.79,10.79,0,0,0,.1-2.3,5.1,5.1,0,0,0-.55-1.93,1.52,1.52,0,0,0-1.62-.93,2,2,0,0,0-1.31.61,16.7,16.7,0,0,0-3,3.89,34.41,34.41,0,0,0-2.58,5.54A41.83,41.83,0,0,0,327,94a18.83,18.83,0,0,0-.48,5.08,6.41,6.41,0,0,0,.45,2.1,1.58,1.58,0,0,0,1.22,1A4.58,4.58,0,0,0,330.9,101a21.69,21.69,0,0,0,2.56-2.78A33.85,33.85,0,0,0,335.69,95l1.63-2.71a14.34,14.34,0,0,1,.7-1.93A4.13,4.13,0,0,1,336.76,90.05Z"/><path class="cls-2" d="M367.25,78.13c-.39,1.42-.74,2.83-1.06,4.24-.11.49-.36,1.51-.78,3.07s-.83,3.28-1.25,5.18-.81,3.76-1.13,5.59a18.12,18.12,0,0,0-.39,4.19q.09,1.25.6,1.2a3.4,3.4,0,0,0,2.15-1.24,19.53,19.53,0,0,0,2.16-2.69c.69-1,1.33-2,1.92-3.1s1-1.82,1.25-2.32A3,3,0,0,1,371.78,91a2.82,2.82,0,0,1,1.22-.39,2.27,2.27,0,0,1,1.37.27,1.08,1.08,0,0,1,.58.84,3.51,3.51,0,0,1-.29,1.12c-.21.53-.45,1.08-.72,1.66s-.55,1.13-.82,1.67l-.6,1.13a46,46,0,0,1-2.22,4.1,27.42,27.42,0,0,1-2.85,3.94,21.11,21.11,0,0,1-3.22,3,6.21,6.21,0,0,1-3.24,1.37,5.36,5.36,0,0,1-3.06-.62,6.82,6.82,0,0,1-2.16-1.94,9.19,9.19,0,0,1-1.33-2.72,13.59,13.59,0,0,1-.57-3.08,16.63,16.63,0,0,1,0-1.87c0-.62.09-1.29.18-2a39.69,39.69,0,0,1,.92-5.52c.46-1.94.89-3.89,1.32-5.86s.79-3.86,1.12-5.65a19.43,19.43,0,0,0,.35-4.75,3.1,3.1,0,0,0-.63-1.62l.09-.22A8.65,8.65,0,0,1,360,71.87a9.1,9.1,0,0,1,3.37-1,5.14,5.14,0,0,1,3.12.72,3.38,3.38,0,0,1,1.4,3A14.22,14.22,0,0,1,367.25,78.13ZM362.2,66.62a3.78,3.78,0,0,1-2.72-1.79,6.74,6.74,0,0,1-1.05-3.16,6.4,6.4,0,0,1,.22-2.14,7.57,7.57,0,0,1,.89-2.09,6.49,6.49,0,0,1,1.5-1.67,3.72,3.72,0,0,1,2-.76l.63.06a3.38,3.38,0,0,1,2.6,1.54,6.23,6.23,0,0,1,1.16,3.3,8.23,8.23,0,0,1-.1,1.57l-.15.84a6.73,6.73,0,0,1-1.71,3,4.15,4.15,0,0,1-2.67,1.33Z"/><path class="cls-2" d="M384.68,107.84a5.77,5.77,0,0,1-3.71-3.29,14.08,14.08,0,0,1-1.32-4.9,16.67,16.67,0,0,1,0-1.87c0-.63.09-1.29.18-2a40.83,40.83,0,0,1,1.06-5.85c.59-2.5,1.17-5.08,1.75-7.76.16-.77.41-1.94.75-3.49a15.31,15.31,0,0,0,.38-4.39,5.13,5.13,0,0,0-.74-2.45,2.42,2.42,0,0,0-2.2-1,86.36,86.36,0,0,1-2.22,11.59,63.1,63.1,0,0,1-4.13,11.11,1.72,1.72,0,0,1-1.31.71,2.08,2.08,0,0,1-1.49-.47,1.79,1.79,0,0,1-.71-1.36,1.2,1.2,0,0,1,.06-.52,60.63,60.63,0,0,0,3.67-10.24,48.21,48.21,0,0,0,1.72-11.45l-.05-.73a6,6,0,0,1-2.74-1.94,5.06,5.06,0,0,1-1-2.69,5.94,5.94,0,0,1,1.52-4.37,5.68,5.68,0,0,1,4.07-2.15,2.18,2.18,0,0,1,2.33,1.4,10.65,10.65,0,0,1,.82,3.58c0,.69.05,1.37,0,2a17.47,17.47,0,0,1-.18,1.94l.62,0a17.64,17.64,0,0,1,3.55.13,11.6,11.6,0,0,1,3.34,1,7.15,7.15,0,0,1,2.58,2,6,6,0,0,1,1.17,3.35,22.13,22.13,0,0,1-.56,5.56q-.7,3.48-1.53,7.23t-1.55,7.07a19.68,19.68,0,0,0-.59,5c.06.9.29,1.34.71,1.31a3.45,3.45,0,0,0,2.15-1.24,22,22,0,0,0,2.16-2.7c.69-1,1.33-2,1.92-3.09s1-1.82,1.24-2.33a2.91,2.91,0,0,1,1.12-1.22,3,3,0,0,1,1.27-.39,2.29,2.29,0,0,1,1.32.27,1.08,1.08,0,0,1,.63.84,3.16,3.16,0,0,1-.29,1.11,15.22,15.22,0,0,1-.77,1.67c-.31.57-.58,1.13-.82,1.67s-.43.91-.55,1.13a42.56,42.56,0,0,1-2.22,4.1,25.53,25.53,0,0,1-2.9,3.94,22,22,0,0,1-3.28,3,6.16,6.16,0,0,1-3.23,1.36Z"/><path class="cls-3" d="M442.45,97l-19.06-2.83a11.39,11.39,0,0,0-12.93,9.58l-2.83,19.06a11.39,11.39,0,0,0,9.58,12.93l19.07,2.83A11.38,11.38,0,0,0,449.2,129L452,109.93A11.38,11.38,0,0,0,442.45,97Zm-14.31,30.74a11.49,11.49,0,1,1,13.06-9.68A11.5,11.5,0,0,1,428.14,127.74Zm14.62-18.33a3.39,3.39,0,1,1,3.86-2.86A3.4,3.4,0,0,1,442.76,109.41Z"/><path class="cls-3" d="M431.16,107.44a9,9,0,1,0,7.6,10.26A9,9,0,0,0,431.16,107.44Z"/><path class="cls-3" d="M443.4,105.13a.94.94,0,1,0,.78,1.06A.94.94,0,0,0,443.4,105.13Z"/><path class="cls-4" d="M29.06,68.44a53.55,53.55,0,0,0-14,12c-13.83,16.92-15.84,41.52-8,60,3.54,8.34,9.82,17.18,27,29,32.32,22.24,65.44,29,84,32a377.73,377.73,0,0,0,129-2c59-11.22,101.62-33.88,124-46,13.36-7.23,24.23-13.95,32-19"/></g></g></svg>