<?xml version="1.0" encoding="utf-8"?>
<svg xmlns="http://www.w3.org/2000/svg" viewBox="0 0 67 71">
  <defs>
    <style>
      .cls-1 {
        fill: #C83834;
      }

      .cls-2 {
        fill: #1A1A1A;
      }

    </style>
  </defs>
  <title>logo</title>
  <path class="cls-1" d="M33.55,29.64,24.23,64.81A24.86,24.86,0,0,1,13.59,44.38a27.85,27.85,0,0,1,7-18.59c3.29-3.6,12.86-14.49,12.86-14.49a33.49,33.49,0,0,0-11.5,62.21l-1.16,4.36,16.36,0L49.91,29.66Z" transform="translate(-5 -6.8)" />
  <path class="cls-2" d="M53.88,14.67,55.7,6.8H43.08L29.45,23.23l22.15,0A24.89,24.89,0,0,1,45,68.43l-2.5,9.22a33.48,33.48,0,0,0,11.39-63" transform="translate(-5 -6.8)" />
</svg>
