<svg version="1" xmlns="http://www.w3.org/2000/svg" width="757.333" height="757.333" viewBox="0 0 568.000000 568.000000"><path d="M312 10.5c-4.7 5.7-8.8 10.5-9.2 10.5-.5 0-.8.5-.8 1.1 0 .7-.6 1.7-1.3 2.3-.8.6-4.3 4.7-7.8 9.1-3.5 4.4-6.9 8.4-7.5 9-.6.5-3 3.5-5.5 6.5-2.4 3-5.4 6.6-6.6 8-1.1 1.4-7.9 9.5-14.9 18-7.1 8.5-13.3 16-13.9 16.6-.5.6-2.3 2.8-4 4.9-1.6 2.1-3.5 4.3-4 4.9-4.4 4.7-24.4 29.6-23.8 29.7.5.1 40.2.2 88.3.4 48.1.2 88.5.6 89.8 1 1.2.4 2.2 1.1 2.2 1.6s.7.9 1.5.9 1.5.4 1.5.8 1.3 1.5 2.8 2.4c8 4.7 23.5 18.7 34.9 31.4 6.3 7 18.3 23.1 18.3 24.5 0 .4.6 1.4 1.3 2.1 2.7 3 15.7 28.6 15.7 31.1 0 .7.4 1.7.8 2.3 1.4 1.5 6.2 17.3 8.8 28.9 3.3 14.6 4.3 25.7 3.9 46-.1 11-.5 20.9-.8 22-.3 1.1-.8 4.2-1.1 6.9-.4 2.7-.9 5.3-1.1 5.7-.3.4-.7 2.4-1.1 4.5-1.5 9.5-7.5 27.5-13.5 40.2-1.6 3.5-2.9 6.7-2.9 7.2 0 .6-.4 1-1 1-.5 0-1 .6-1 1.3 0 1.6-9.3 17.1-11.5 19.3-.8.9-1.5 1.9-1.5 2.4 0 2.8-26.5 31.8-35.6 39-16.1 12.8-31.8 22.4-47.5 29.1-8.9 3.8-23.9 9.1-25.7 9.2-1.9 0-2.6 1.9-7.2 19.2-2.2 8.2-4.7 17.2-5.5 20-1.7 5.8-8.6 32.5-8.9 34-.1 1.3 3.4 1 14.3-1.1 4.7-.9 9.7-1.8 11.1-2.1 8.8-1.6 26.4-6.9 38.8-11.7 10.2-3.9 27.4-11.7 28.2-12.7.3-.3 2.5-1.7 5-2.9 9.3-4.7 33.5-20.9 36-24 .3-.4 1.2-1.1 2.1-1.6 2.3-1.3 16.1-13.7 23.2-20.9 7.7-7.8 19.1-21.3 25-29.5 2.6-3.6 5.2-7.1 5.8-7.8.6-.7 1.6-2.3 2.2-3.5.7-1.2 2.2-3.6 3.5-5.4 1.2-1.7 2.2-3.4 2.2-3.8 0-.4.8-1.9 1.9-3.3 3-4.2 12.1-22.7 16.6-33.7 3.6-8.6 11-31.4 12-36.6.3-1.3.7-3.5 1-4.9.6-2.6 1.2-5.7 2-10 .3-1.4.7-3.4.9-4.6.2-1.2.7-4.5 1.1-7.4.4-2.9.9-6.2 1.2-7.4.3-1.2.7-12.9.8-26.1.3-24-.6-35.4-3.9-52.5-.8-4.1-1.7-8.6-2-10-2.9-16.3-14.5-47.7-24.4-66-8.3-15.4-22.1-36.5-28.5-43.4-1.3-1.3-3.4-3.9-4.7-5.7-3.7-4.9-22.7-23.8-29.5-29.4-3.3-2.8-6.2-5.3-6.5-5.6-.3-.3-4.3-3.4-9-6.7-4.7-3.4-8.9-6.5-9.5-6.9-1.4-1.1-17.2-10.6-22.3-13.3-2.8-1.6-4.1-2.9-3.8-3.9.4-1.4 2.2-9 11.1-47.6C419.8 8 421 2.8 421.2 2 421.5.7 415.3.5 371 .2L320.5 0 312 10.5z"/><path d="M240.9 36.4c-.2.2-2.4.7-4.9 1-2.5.3-6.5 1-9 1.7-2.5.6-4.9 1.2-5.5 1.3-.5.1-2.6.6-4.5 1s-7.8 2.2-13 3.9c-5.2 1.7-9.9 3.2-10.5 3.3-4 .9-31.6 13.4-34.1 15.5-.8.6-1.4.8-1.4.5 0-.4-1.2.1-2.8 1.1-4.6 3.1-6.6 4.3-8.2 5-3.9 1.7-26.9 17.8-32.6 22.8C95.3 110.1 86.5 119 75.5 133c-3.3 4.1-6.2 7.7-6.5 8-.3.3-.9 1.2-1.5 2.1-.5.8-4.1 6.2-8 12-8 12-18.5 32.2-23.9 45.9-3.7 9.1-10.1 28.7-11 33.3-.2 1.2-1.1 5.1-2 8.7-1.6 6.8-1.9 8.5-3.5 19-3.2 20.8-3.5 59.7-.6 74 .3 1.4.8 4.5 1.1 7 .3 2.5.9 6.1 1.4 8 .5 1.9 1.1 5.2 1.4 7.4.4 2.1.9 4.3 1.2 4.8.3.5.8 2.4 1.1 4.1 1.5 10.1 11.7 36.9 20.5 54.2 3.4 6.6 6.6 13 7.2 14.2.6 1.3 1.4 2.3 1.9 2.3.4 0 .7.4.7.9 0 1.5 11 17.6 19 28 7.4 9.5 28.6 31.5 37.5 38.8 7.7 6.4 14.4 11.4 21 15.8 3.3 2.2 6.2 4.2 6.5 4.5 1.1 1.1 11.2 7 12 7 .5 0-.3 4.2-1.7 9.3-1.4 5-2.6 9.9-2.8 10.8-.2.8-1 4-1.9 6.9-.9 3-1.6 6-1.6 6.7 0 1.1 12 1.3 65.5 1.3 64.8 0 65.5 0 65.6-2 .2-2.2.3-2.7 1.1-5 .9-2.4 5.9-22.4 5.8-23-.1-.3.3-1.7.9-3.2.5-1.4 2.6-8.9 4.6-16.5 2-7.6 4.8-18.1 6.2-23.3 4.5-17.1 9.4-35.5 9.8-37 .2-.8 1.3-5.1 2.5-9.5s2.3-8.7 2.5-9.5c.2-.8 1.3-5.1 2.5-9.5 4.5-17 6.1-23.1 6.5-24.9.3-1 .9-3.3 1.4-5 .6-1.7 1.2-4.2 1.5-5.6.3-1.4 1.7-6.8 3.1-12 1.5-5.2 2.8-10.4 3-11.5.2-1.1 1.5-6.1 2.9-11 3.5-12.1 10.5-38.4 11.2-41.5.2-1.4.7-3.3 1-4.2.3-.9.7-2.5.9-3.5.2-1 1.5-5.9 2.9-10.8 1.3-5 3.8-14.4 5.6-21 4.6-17.6 6.8-25.9 9.6-36.3 1.4-5.1 2.7-10 2.9-11 .2-.9 2.7-10.3 5.5-20.7 2.8-10.5 5.3-19.9 5.5-21 .2-1.1.7-3 1.1-4.3l.6-2.2h-14.3c-7.9-.1-37.3-.1-65.3-.1l-51-.1-1.7 5.5c-1 3-2 6.8-2.3 8.4-.3 1.5-3.2 12.9-6.6 25.3-3.4 12.4-6.2 23.2-6.4 24-.2.8-.9 3.5-1.6 6-.7 2.5-1.4 5.2-1.5 6-.2.8-.4 1.5-.5 1.5-.1 0-.3.7-.5 1.5-.4 1.7-2.3 9.6-3.1 12.5-.3 1.1-.7 2.7-.9 3.5-.2.8-.4 1.5-.5 1.5-.2 0-.5 1.2-1.3 5-.3 1.1-1.7 6.4-3.2 11.8-1.4 5.3-2.8 10.5-3 11.5-.3.9-1.6 6-3 11.2-1.4 5.2-2.8 10.6-3.1 12-.3 1.4-2 7.9-3.9 14.5-1.8 6.6-4.5 16.5-5.9 22-1.3 5.5-3.2 12.7-4.1 16-3.6 12.9-7.6 28.1-8.1 30.5-.2 1.4-.9 3.6-1.3 5-1 2.5-2.1 7-2.8 10.3-.4 2.1-4.8 18.5-6.3 23.2-.5 1.6-1.2 4.7-1.6 6.8-.3 2.1-1.3 4.1-2 4.4-1.2.4-10.4-6.1-11.2-8-.2-.4-.7-.7-1.2-.7s-2.1-1.2-3.7-2.8c-1.6-1.5-5.6-5.3-8.8-8.4-9.5-9.1-27.5-31.1-27.5-33.7 0-.6-.4-1.1-1-1.1-.5 0-1-.5-1-1.1 0-.6-.8-2.3-1.9-3.7-4.5-6.4-13.6-26-17.5-37.7-4.4-13.4-6-19.1-7-25.5-.3-1.9-.8-4.6-1.1-6-.3-1.4-.8-5.2-1.1-8.5-.4-3.3-.8-6.3-1-6.7-.6-.9-.5-33.2 0-37.3.2-1.7.7-6.2 1.1-10 .4-3.9.9-7.3 1.1-7.6.2-.4.6-2.7.9-5 .7-5.5 2.7-13.5 6.7-26.4 3.3-10.8 14.6-37.5 15.8-37.5.4 0 1.1-1.1 1.4-2.4.6-2.4 17.2-27.8 21.1-32.4 1.1-1.3 3.2-3.7 4.8-5.4 1.5-1.8 2.7-3.5 2.7-4 0-.4.7-.8 1.5-.8s1.5-.4 1.5-.8c0-1.1 3.9-5.5 20-23.2 1.4-1.5 5-5.5 8-9s6.6-7.5 8-9c1.4-1.5 5-5.6 8-9 3-3.4 6.4-7.2 7.5-8.5 1.1-1.2 4.5-5.1 7.5-8.5 3-3.5 6-6.8 6.5-7.4 2.5-2.7 15.4-17.4 17.6-20 1.3-1.5 4-4.5 5.9-6.6 3.4-3.6 6-6.7 8.9-10.3 1.1-1.4.3-2.6-1-1.3z"/></svg>