<svg id="Layer_1" data-name="Layer 1" xmlns="http://www.w3.org/2000/svg" viewBox="0 0 146 146"><defs><style>.cls-1{fill:#d14a43;}.cls-2{fill:#48443e;}.cls-3{fill:#fff;}</style></defs><title>1-2</title><path class="cls-1" d="M69,142.48a73,73,0,1,1,73-73A73.09,73.09,0,0,1,69,142.48Zm0-136a63,63,0,1,0,63,63A63.07,63.07,0,0,0,69,6.48Z" transform="translate(4 3.52)"/><path class="cls-1" d="M69,125.48a56,56,0,1,1,56-56A56.06,56.06,0,0,1,69,125.48ZM69,16.15a53.33,53.33,0,1,0,53.33,53.33A53.39,53.39,0,0,0,69,16.15Z" transform="translate(4 3.52)"/><path class="cls-2" d="M63.19,65H55.57a13,13,0,0,1-13-13V38a13,13,0,0,1,13-13h7.62a13,13,0,0,1,13,13v14A13,13,0,0,1,63.19,65ZM55.57,29.72A8.3,8.3,0,0,0,47.28,38v14a8.3,8.3,0,0,0,8.29,8.29h7.62a8.3,8.3,0,0,0,8.29-8.29V38a8.3,8.3,0,0,0-8.29-8.3Z" transform="translate(4 3.52)"/><rect class="cls-2" x="43.33" y="45.42" width="40.1" height="4.67"/><path class="cls-2" d="M90.58,105.18H85.91V76.91a7.56,7.56,0,0,0-4.28-6.79L68.8,64l2-4.21,12.84,6.14a12.25,12.25,0,0,1,6.93,11Z" transform="translate(4 3.52)"/><path class="cls-2" d="M82.43,65H71.81V60.34H82.43a8.3,8.3,0,0,0,8.29-8.29V38a8.3,8.3,0,0,0-8.29-8.3H63.79V25.06H82.43a13,13,0,0,1,13,13v14A13,13,0,0,1,82.43,65Z" transform="translate(4 3.52)"/><rect class="cls-2" x="83.02" y="45.42" width="19.65" height="4.67"/><path class="cls-2" d="M109.82,89.71h-4.66V76.91a7.56,7.56,0,0,0-4.28-6.79L88,64l2-4.21,12.84,6.14a12.25,12.25,0,0,1,6.93,11Z" transform="translate(4 3.52)"/><path class="cls-2" d="M32.84,91.65H28.18V77.31a12.25,12.25,0,0,1,6.93-11L48,60.17l2,4.21L37.12,70.52a7.56,7.56,0,0,0-4.28,6.79Z" transform="translate(4 3.52)"/><path class="cls-2" d="M47.2,113.26,43.9,110l11-11a3.95,3.95,0,1,0-5.59-5.58L37.88,104.81l-3.3-3.3L46,90.1a8.62,8.62,0,0,1,12.19,12.18Z" transform="translate(4 3.52)"/><path class="cls-3" d="M74,83.18,67.12,90a6.28,6.28,0,0,1-8.89-8.88l6.87-6.87A14.74,14.74,0,1,0,74,83.18Z" transform="translate(4 3.52)"/><path class="cls-2" d="M60.11,105.22A17.06,17.06,0,1,1,65.89,72.1l3.46,1.24-9.47,9.47a4,4,0,0,0,0,5.58,4,4,0,0,0,5.59,0l9.46-9.47,1.25,3.47a17.06,17.06,0,0,1-16.07,22.83Zm0-29.45a12.4,12.4,0,1,0,0,24.79A12.4,12.4,0,0,0,72.51,88l-3.74,3.74A8.61,8.61,0,1,1,56.59,79.51l3.74-3.74Z" transform="translate(4 3.52)"/><path class="cls-3" d="M30.51,91.65a8.67,8.67,0,0,0,8.67,8.67" transform="translate(4 3.52)"/><path class="cls-2" d="M39.18,102.65a11,11,0,0,1-11-11h4.66A6.34,6.34,0,0,0,39.18,98Z" transform="translate(4 3.52)"/></svg>