<svg id="Layer_1" data-name="Layer 1" xmlns="http://www.w3.org/2000/svg" viewBox="0 0 146 146"><defs><style>.cls-1{fill:#d14a43;}.cls-2{fill:#48443e;}.cls-3{fill:#fff;}</style></defs><title>1-1</title><path class="cls-1" d="M69,142.48a73,73,0,1,1,73-73A73.09,73.09,0,0,1,69,142.48Zm0-136a63,63,0,1,0,63,63A63.07,63.07,0,0,0,69,6.48Z" transform="translate(4 3.52)"/><path class="cls-1" d="M69,125.48a56,56,0,1,1,56-56A56.06,56.06,0,0,1,69,125.48ZM69,16.15a53.33,53.33,0,1,0,53.33,53.33A53.39,53.39,0,0,0,69,16.15Z" transform="translate(4 3.52)"/><path class="cls-2" d="M63.19,64.16H55.57a13,13,0,0,1-13-13v-14a13,13,0,0,1,13-13h7.62a13,13,0,0,1,13,13v14A13,13,0,0,1,63.19,64.16ZM55.57,28.87a8.3,8.3,0,0,0-8.29,8.3v14a8.3,8.3,0,0,0,8.29,8.29h7.62a8.3,8.3,0,0,0,8.29-8.29v-14a8.3,8.3,0,0,0-8.29-8.3Z" transform="translate(4 3.52)"/><rect class="cls-2" x="43.33" y="44.57" width="40.1" height="4.67"/><path class="cls-2" d="M90.58,104.33H85.91V76.06a7.56,7.56,0,0,0-4.28-6.79L68.8,63.13l2-4.21,12.84,6.14a12.25,12.25,0,0,1,6.93,11Z" transform="translate(4 3.52)"/><path class="cls-2" d="M82.43,64.16H71.81V59.49H82.43a8.3,8.3,0,0,0,8.29-8.29v-14a8.3,8.3,0,0,0-8.29-8.3H63.79V24.21H82.43a13,13,0,0,1,13,13v14A13,13,0,0,1,82.43,64.16Z" transform="translate(4 3.52)"/><rect class="cls-2" x="83.02" y="44.57" width="19.65" height="4.67"/><path class="cls-2" d="M109.82,88.86h-4.66V76.06a7.56,7.56,0,0,0-4.28-6.79L88,63.13l2-4.21,12.84,6.14a12.25,12.25,0,0,1,6.93,11Z" transform="translate(4 3.52)"/><path class="cls-2" d="M32.84,90.8H28.18V76.46a12.25,12.25,0,0,1,6.93-11L48,59.32l2,4.21L37.12,69.67a7.56,7.56,0,0,0-4.28,6.79Z" transform="translate(4 3.52)"/><path class="cls-3" d="M30.51,90.8a8.67,8.67,0,0,0,8.67,8.67" transform="translate(4 3.52)"/><path class="cls-2" d="M39.18,101.8a11,11,0,0,1-11-11h4.66a6.34,6.34,0,0,0,6.34,6.33Z" transform="translate(4 3.52)"/><polygon class="cls-2" points="52.93 117.59 49.63 114.29 65.02 98.9 71.13 85.85 58.09 91.97 42.57 107.48 39.27 104.18 55.36 88.09 80.83 76.16 68.9 101.62 52.93 117.59"/><polygon class="cls-2" points="75.98 81 67.19 85.16 71.82 89.8 75.98 81"/><polygon class="cls-2" points="72.52 93.79 63.2 84.47 80.88 76.11 72.52 93.79"/><rect class="cls-2" x="55.51" y="84.39" width="4.67" height="14.47" transform="translate(-43.85 71.26) rotate(-45)"/></svg>