<svg id="Layer_1" data-name="Layer 1" xmlns="http://www.w3.org/2000/svg" viewBox="0 0 93.36 97.74"><defs><style>.cls-1{fill:#fff;}.cls-2{fill:#d14a43;}.cls-3{fill:#48443e;}</style></defs><title>1-7</title><path class="cls-1" d="M109.74,69.78c0-4.84,7-10.74,5.62-15.1-1.47-4.53-10.68-5.15-13.42-8.92S101.4,33,97.6,30.24,86,32.37,81.5,30.9c-4.36-1.42-7.79-10-12.63-10s-8.27,8.57-12.63,10c-4.53,1.47-12.33-3.4-16.1-.66S38.57,42,35.8,45.76s-11.95,4.39-13.42,8.92C21,59,28,64.94,28,69.78s-7,10.74-5.62,15.11S33.06,90,35.8,93.8s.54,12.75,4.34,15.52,11.57-2.13,16.1-.66c4.36,1.42,7.79,10,12.63,10s8.27-8.57,12.63-10c4.53-1.47,12.33,3.4,16.1.66s1.57-11.71,4.34-15.52,12-4.39,13.42-8.92C116.78,80.52,109.74,74.62,109.74,69.78Z" transform="translate(-22.19 -20.91)"/><circle class="cls-1" cx="46.68" cy="48.87" r="30.77"/><path class="cls-2" d="M68.87,104.05a34.27,34.27,0,1,1,34.27-34.27A34.3,34.3,0,0,1,68.87,104.05Zm0-61.54A27.27,27.27,0,1,0,96.14,69.78,27.3,27.3,0,0,0,68.87,42.51Z" transform="translate(-22.19 -20.91)"/><path class="cls-3" d="M59.42,70.22l1.79-15.69h17.3v5.11H66.23l-.76,6.63a9.76,9.76,0,0,1,4.64-1.16A8.89,8.89,0,0,1,77,67.84q2.51,2.75,2.51,7.66a11.19,11.19,0,0,1-1.27,5.35,8.87,8.87,0,0,1-3.61,3.67,11.28,11.28,0,0,1-5.56,1.3,11.93,11.93,0,0,1-5.19-1.13,9.27,9.27,0,0,1-3.79-3.19,8.76,8.76,0,0,1-1.47-4.69H64.7a4.53,4.53,0,0,0,1.35,3,4.24,4.24,0,0,0,3,1.07,3.77,3.77,0,0,0,3.2-1.49,6.93,6.93,0,0,0,1.13-4.23,5.7,5.7,0,0,0-1.3-4,4.74,4.74,0,0,0-3.66-1.4,5.25,5.25,0,0,0-3.54,1.15l-.6.55Z" transform="translate(-22.19 -20.91)"/></svg>