<svg id="Layer_1" data-name="Layer 1" xmlns="http://www.w3.org/2000/svg" viewBox="0 0 96.85 99.72"><defs><style>.cls-1{fill:#d14a43;}.cls-2{fill:#48443e;}.cls-3{fill:#fff;}</style></defs><title>1-3</title><path class="cls-1" d="M74.47,101.8a50.8,50.8,0,0,1-18.16-3.32l2.2-5.76a45,45,0,0,0,53.2-16.88l5.11,3.45A51.06,51.06,0,0,1,74.47,101.8Z" transform="translate(-19.97 -19.44)"/><path class="cls-2" d="M32.61,118.11,20,83.15V24.81H45.26V83.15Zm-6.48-36L32.61,100,39.1,82.07V31h-13Z" transform="translate(-19.97 -19.44)"/><polygon class="cls-2" points="12.65 89.61 16.98 77.5 8.32 77.5 12.65 89.61"/><polygon class="cls-2" points="12.65 98.76 3.94 74.42 21.36 74.42 12.65 98.76"/><rect class="cls-2" x="3.08" y="60.09" width="19.13" height="6.17"/><rect class="cls-1" x="20.87" y="75.23" width="83.39" height="6.17" transform="translate(-50.33 96.46) rotate(-73.4)"/><rect class="cls-1" x="91.83" y="95.11" width="6.17" height="23.66" transform="translate(-46.56 12.13) rotate(-16.6)"/><rect class="cls-1" x="78.81" y="37.28" width="6.17" height="51.95" transform="translate(-34.62 6.59) rotate(-16.6)"/><circle class="cls-3" cx="54.51" cy="31.3" r="12.38"/><path class="cls-1" d="M74.47,66.2A15.47,15.47,0,1,1,89.93,50.74,15.48,15.48,0,0,1,74.47,66.2Zm0-24.76a9.3,9.3,0,1,0,9.3,9.3A9.31,9.31,0,0,0,74.47,41.44Z" transform="translate(-19.97 -19.44)"/><rect class="cls-1" x="51.42" width="6.17" height="18.92"/></svg>