<svg id="Layer_1" data-name="Layer 1" xmlns="http://www.w3.org/2000/svg" viewBox="0 0 107.62 99.38"><defs><style>.cls-1{fill:#d14a43;}.cls-2{fill:#fff;}.cls-3{fill:#48443e;}</style></defs><title>1-5</title><path class="cls-1" d="M93.41,119.82A13.08,13.08,0,0,1,84.14,116l-24-24L78.69,73.46l24,24a13.11,13.11,0,0,1-9.27,22.37ZM68.88,92l19.63,19.63a6.94,6.94,0,0,0,9.81-9.81L78.69,82.18Z" transform="translate(-14.2 -20.53)"/><path class="cls-1" d="M62.34,97.26A3.08,3.08,0,0,1,60.16,92L78.69,73.46a3.08,3.08,0,1,1,4.36,4.36L64.52,96.36A3.09,3.09,0,0,1,62.34,97.26Z" transform="translate(-14.2 -20.53)"/><path class="cls-1" d="M69.42,91.45,38.71,60.74l-8.78-3.33L14.2,41.67,28.37,27.5,44.1,43.23,47.44,52,78.15,82.73ZM33.35,52.11l8.79,3.33-3.33-8.78L28.37,36.22l-5.45,5.45Z" transform="translate(-14.2 -20.53)"/><rect class="cls-2" x="48.95" y="40.2" width="20.05" height="86.35" rx="10.02" transform="translate(62.03 -37.82) rotate(45)"/><path class="cls-3" d="M35.53,119.92a13.1,13.1,0,0,1-9.26-22.37L73.15,50.66a13.11,13.11,0,0,1,18.54,0h0a13.13,13.13,0,0,1,0,18.54L44.8,116.09A13.07,13.07,0,0,1,35.53,119.92ZM82.42,53a6.91,6.91,0,0,0-4.91,2L30.63,101.91a6.94,6.94,0,0,0,9.81,9.81L87.33,64.84a7,7,0,0,0,0-9.82h0A6.91,6.91,0,0,0,82.42,53Z" transform="translate(-14.2 -20.53)"/><path class="cls-2" d="M117.36,39.16l-11,11A10,10,0,1,1,92.23,35.94l11-10.95a23.52,23.52,0,1,0,14.17,14.17Z" transform="translate(-14.2 -20.53)"/><path class="cls-3" d="M95.23,73.71a26.6,26.6,0,1,1,9-51.63l4.58,1.65L94.41,38.12a6.94,6.94,0,1,0,9.82,9.82l14.39-14.4,1.65,4.58a26.59,26.59,0,0,1-25,35.59Zm0-47a20.43,20.43,0,1,0,20.3,18.61l-7,7A13.11,13.11,0,1,1,90.05,33.76l7-7A17.4,17.4,0,0,0,95.28,26.7Z" transform="translate(-14.2 -20.53)"/></svg>