<svg id="Layer_1" data-name="Layer 1" xmlns="http://www.w3.org/2000/svg" viewBox="0 0 89.02 107.89"><defs><style>.cls-1{fill:#48443e;}.cls-2{fill:#d14a43;}.cls-3{fill:#fff;}</style></defs><title>1-4</title><path class="cls-1" d="M108.26,104.5H28.08V34.27h80.18Zm-74-6.16H102.1V40.43H34.24Z" transform="translate(-23.9 -16)"/><polygon class="cls-2" points="38.28 67.29 41.89 52.12 50.88 52.12 38.28 67.29"/><polygon class="cls-2" points="49.24 38.6 45.62 53.77 36.64 53.77 49.24 38.6"/><path class="cls-2" d="M67.63,91.88a23,23,0,1,1,23-23A23,23,0,0,1,67.63,91.88Zm0-39.77a16.81,16.81,0,1,0,16.8,16.81A16.83,16.83,0,0,0,67.63,52.11Z" transform="translate(-23.9 -16)"/><circle class="cls-3" cx="27.54" cy="96.48" r="8.34"/><path class="cls-1" d="M51.44,123.89a11.42,11.42,0,1,1,11.42-11.41A11.43,11.43,0,0,1,51.44,123.89Zm0-16.67a5.26,5.26,0,1,0,5.26,5.26A5.27,5.27,0,0,0,51.44,107.22Z" transform="translate(-23.9 -16)"/><circle class="cls-3" cx="61.15" cy="96.48" r="8.34"/><path class="cls-1" d="M85.05,123.89a11.42,11.42,0,1,1,11.42-11.41A11.42,11.42,0,0,1,85.05,123.89Zm0-16.67a5.26,5.26,0,1,0,5.26,5.26A5.26,5.26,0,0,0,85.05,107.22Z" transform="translate(-23.9 -16)"/><path class="cls-3" d="M36.54,3.08h16a8.58,8.58,0,0,1,8.58,8.58v9.69a0,0,0,0,1,0,0H28a0,0,0,0,1,0,0V11.66A8.58,8.58,0,0,1,36.54,3.08Z"/><path class="cls-1" d="M88.13,40.43H48.78V27.66A11.68,11.68,0,0,1,60.44,16h16A11.67,11.67,0,0,1,88.13,27.66ZM54.94,34.27H82V27.66a5.51,5.51,0,0,0-5.5-5.5h-16a5.51,5.51,0,0,0-5.5,5.5Z" transform="translate(-23.9 -16)"/><rect class="cls-1" y="82.34" width="89.02" height="6.16"/></svg>