<svg id="Layer_1" data-name="Layer 1" xmlns="http://www.w3.org/2000/svg" viewBox="0 0 123.76 94.66"><defs><style>.cls-1{fill:#d14a43;}.cls-2{fill:#48443e;}</style></defs><title>1-6</title><path class="cls-1" d="M90,54.76c-3.17,0-4.77-2-5.94-3.47s-1.54-1.82-2.5-1.82-1.43.47-2.51,1.82-2.77,3.47-5.94,3.47-4.77-2-5.94-3.47-1.54-1.82-2.5-1.82-1.43.47-2.5,1.82-2.78,3.47-6,3.47-4.77-2-5.94-3.47-1.53-1.82-2.5-1.82v-4.4c3.17,0,4.77,2,5.94,3.47s1.54,1.81,2.5,1.81,1.43-.47,2.5-1.81,2.78-3.47,5.95-3.47,4.77,2,5.94,3.47,1.53,1.81,2.5,1.81,1.43-.47,2.5-1.81,2.78-3.47,5.95-3.47,4.77,2,5.94,3.47,1.54,1.81,2.5,1.81Z" transform="translate(-7.06 -22.06)"/><path class="cls-2" d="M106.31,116.71H31.57V22.06h74.74Zm-68.57-6.17h62.4V28.22H37.74Z" transform="translate(-7.06 -22.06)"/><path class="cls-2" d="M93.13,64.68H44.75V35.15H93.13ZM50.92,58.51H87V41.31h-36Z" transform="translate(-7.06 -22.06)"/><path class="cls-1" d="M68.93,102.32A14.85,14.85,0,0,1,56.31,79.64L57.94,77l5.24,3.26L61.55,82.9a8.68,8.68,0,1,0,14.76,0l-1.63-2.62L79.92,77l1.63,2.62a14.85,14.85,0,0,1-12.62,22.68Z" transform="translate(-7.06 -22.06)"/><rect class="cls-1" x="58.79" y="48.94" width="6.17" height="17.9"/><rect class="cls-1" x="107.16" y="22.7" width="16.6" height="6.17"/><path class="cls-2" d="M103.22,62.6h-3.08V33.08h3.08a14.76,14.76,0,1,1,0,29.52Zm3.09-22.78v16a8.6,8.6,0,0,0,0-16Z" transform="translate(-7.06 -22.06)"/><rect class="cls-1" y="22.7" width="16.6" height="6.17"/><path class="cls-2" d="M37.74,62.6H34.66a14.76,14.76,0,0,1,0-29.52h3.08ZM31.57,39.82a8.59,8.59,0,0,0,0,16Z" transform="translate(-7.06 -22.06)"/></svg>